<svg width="30" height="29" viewBox="0 0 30 29" fill="none" xmlns="http://www.w3.org/2000/svg">
<path d="M25.6816 2.39697H4.32159C3.9715 2.39697 3.63575 2.53604 3.38821 2.78359C3.14066 3.03114 3.00159 3.36689 3.00159 3.71697V25.077C3.00159 25.2503 3.03573 25.422 3.10207 25.5821C3.1684 25.7423 3.26563 25.8878 3.38821 26.0104C3.51078 26.1329 3.6563 26.2302 3.81644 26.2965C3.97659 26.3628 4.14824 26.397 4.32159 26.397H15.8176V17.097H12.6976V13.497H15.8176V10.797C15.753 10.1631 15.8278 9.52273 16.0368 8.92082C16.2459 8.31891 16.5841 7.77003 17.0277 7.31267C17.4714 6.85531 18.0097 6.50054 18.605 6.27326C19.2002 6.04597 19.838 5.95167 20.4736 5.99697C21.4076 5.99123 22.3411 6.0393 23.2696 6.14097V9.38097H21.3616C19.8496 9.38097 19.5616 10.101 19.5616 11.145V13.461H23.1616L22.6936 17.061H19.5616V26.397H25.6816C25.8549 26.397 26.0266 26.3628 26.1867 26.2965C26.3469 26.2302 26.4924 26.1329 26.615 26.0104C26.7375 25.8878 26.8348 25.7423 26.9011 25.5821C26.9674 25.422 27.0016 25.2503 27.0016 25.077V3.71697C27.0016 3.54363 26.9674 3.37198 26.9011 3.21183C26.8348 3.05168 26.7375 2.90617 26.615 2.78359C26.4924 2.66102 26.3469 2.56379 26.1867 2.49745C26.0266 2.43112 25.8549 2.39697 25.6816 2.39697Z" fill="white"/>
</svg>
