<svg width="30" height="29" viewBox="0 0 30 29" fill="none" xmlns="http://www.w3.org/2000/svg">
<path d="M21.6104 6.54897C21.3256 6.54897 21.0472 6.63343 20.8104 6.79166C20.5735 6.94989 20.389 7.17478 20.28 7.43791C20.171 7.70103 20.1425 7.99057 20.198 8.2699C20.2536 8.54924 20.3908 8.80582 20.5921 9.00721C20.7935 9.20859 21.0501 9.34574 21.3294 9.4013C21.6088 9.45687 21.8983 9.42835 22.1614 9.31936C22.4246 9.21037 22.6495 9.0258 22.8077 8.78899C22.9659 8.55219 23.0504 8.27378 23.0504 7.98897C23.0504 7.60706 22.8987 7.24079 22.6286 6.97074C22.3586 6.70069 21.9923 6.54897 21.6104 6.54897ZM27.1304 9.45297C27.107 8.45733 26.9206 7.47226 26.5784 6.53697C26.2733 5.73673 25.7984 5.01211 25.1864 4.41297C24.5922 3.79788 23.8658 3.32598 23.0624 3.03297C22.1296 2.68037 21.1434 2.48962 20.1464 2.46897C18.8744 2.39697 18.4664 2.39697 15.2024 2.39697C11.9384 2.39697 11.5304 2.39697 10.2584 2.46897C9.26135 2.48962 8.27518 2.68037 7.34237 3.03297C6.54038 3.32895 5.81469 3.80045 5.21837 4.41297C4.60328 5.00719 4.13138 5.7335 3.83837 6.53697C3.48576 7.46978 3.29502 8.45596 3.27437 9.45297C3.20237 10.725 3.20237 11.133 3.20237 14.397C3.20237 17.661 3.20237 18.069 3.27437 19.341C3.29502 20.338 3.48576 21.3242 3.83837 22.257C4.13138 23.0604 4.60328 23.7868 5.21837 24.381C5.81469 24.9935 6.54038 25.465 7.34237 25.761C8.27518 26.1136 9.26135 26.3043 10.2584 26.325C11.5304 26.397 11.9384 26.397 15.2024 26.397C18.4664 26.397 18.8744 26.397 20.1464 26.325C21.1434 26.3043 22.1296 26.1136 23.0624 25.761C23.8658 25.468 24.5922 24.9961 25.1864 24.381C25.8011 23.7841 26.2764 23.0588 26.5784 22.257C26.9206 21.3217 27.107 20.3366 27.1304 19.341C27.1304 18.069 27.2024 17.661 27.2024 14.397C27.2024 11.133 27.2024 10.725 27.1304 9.45297ZM24.9704 19.197C24.9616 19.9587 24.8237 20.7134 24.5624 21.429C24.3708 21.9512 24.063 22.4231 23.6624 22.809C23.2731 23.2056 22.8022 23.5127 22.2824 23.709C21.5668 23.9703 20.8121 24.1082 20.0504 24.117C18.8504 24.177 18.4064 24.189 15.2504 24.189C12.0944 24.189 11.6504 24.189 10.4504 24.117C9.65944 24.1318 8.87189 24.01 8.12237 23.757C7.62531 23.5507 7.176 23.2443 6.80237 22.857C6.40408 22.4715 6.10018 21.9992 5.91437 21.477C5.6214 20.7512 5.4589 19.9793 5.43437 19.197C5.43437 17.997 5.36237 17.553 5.36237 14.397C5.36237 11.241 5.36237 10.797 5.43437 9.59697C5.43975 8.81824 5.58191 8.04651 5.85437 7.31697C6.06563 6.81047 6.38989 6.35896 6.80237 5.99697C7.16695 5.58437 7.61752 5.25669 8.12237 5.03697C8.85383 4.77303 9.62477 4.63507 10.4024 4.62897C11.6024 4.62897 12.0464 4.55697 15.2024 4.55697C18.3584 4.55697 18.8024 4.55697 20.0024 4.62897C20.7641 4.63771 21.5188 4.77567 22.2344 5.03697C22.7797 5.23936 23.2691 5.56839 23.6624 5.99697C24.0556 6.36559 24.3629 6.81625 24.5624 7.31697C24.8291 8.04769 24.9671 8.81911 24.9704 9.59697C25.0304 10.797 25.0424 11.241 25.0424 14.397C25.0424 17.553 25.0304 17.997 24.9704 19.197ZM15.2024 8.24097C13.9853 8.24335 12.7963 8.6064 11.7856 9.28427C10.7748 9.96215 9.98763 10.9244 9.52353 12.0495C9.05944 13.1745 8.93924 14.4119 9.17812 15.6053C9.41701 16.7986 10.0043 17.8944 10.8657 18.7541C11.7271 19.6139 12.824 20.199 14.0178 20.4356C15.2116 20.6721 16.4488 20.5495 17.5729 20.0832C18.6971 19.6169 19.6578 18.8279 20.3337 17.8158C21.0096 16.8037 21.3704 15.614 21.3704 14.397C21.372 13.5871 21.2134 12.7849 20.9039 12.0365C20.5943 11.2881 20.1398 10.6083 19.5666 10.0362C18.9934 9.46412 18.3127 9.01099 17.5637 8.70289C16.8147 8.39479 16.0122 8.23781 15.2024 8.24097ZM15.2024 18.393C14.412 18.393 13.6395 18.1586 12.9823 17.7195C12.3252 17.2804 11.813 16.6564 11.5105 15.9262C11.2081 15.196 11.129 14.3925 11.2832 13.6174C11.4373 12.8422 11.8179 12.1302 12.3768 11.5714C12.9356 11.0125 13.6476 10.6319 14.4228 10.4778C15.1979 10.3236 16.0014 10.4027 16.7316 10.7052C17.4617 11.0076 18.0858 11.5198 18.5249 12.1769C18.964 12.8341 19.1984 13.6066 19.1984 14.397C19.1984 14.9217 19.095 15.4414 18.8942 15.9262C18.6934 16.411 18.399 16.8515 18.028 17.2226C17.6569 17.5936 17.2164 17.888 16.7316 18.0888C16.2468 18.2896 15.7271 18.393 15.2024 18.393Z" fill="white"/>
</svg>
