<svg width="29" height="29" viewBox="0 0 29 29" fill="none" xmlns="http://www.w3.org/2000/svg">
<g clip-path="url(#clip0_5_546)">
<path d="M14.9098 5.39692C18.5829 5.39692 21.5867 5.4588 24.3654 5.58255H24.4442C25.7435 5.58255 26.8067 6.82005 26.8067 8.34442V8.4063L26.8123 8.46817C26.9417 10.3807 27.0035 12.3663 27.0035 14.3688C27.0092 16.3713 26.9417 18.3569 26.8123 20.2694L26.8067 20.3313V20.3932C26.8067 21.1694 26.5423 21.8894 26.0529 22.4238C25.6142 22.9075 25.0404 23.1775 24.4442 23.1775H24.3542C21.3785 23.3182 18.2342 23.3913 14.9942 23.3913H14.3979H14.4035H13.7904C10.5392 23.3913 7.39478 23.3182 4.44166 23.1832H4.35166C3.75541 23.1832 3.18728 22.9132 2.74853 22.4294C2.26478 21.895 1.99478 21.175 1.99478 20.3988V20.3369L1.98916 20.275C1.85416 18.3569 1.79228 16.3713 1.80353 14.3857V14.3744C1.79791 12.3888 1.85978 10.4088 1.98916 8.49067L1.99478 8.4288V8.36692C1.99478 6.83692 3.05228 5.5938 4.35166 5.5938H4.43041C7.21478 5.46442 10.2185 5.40817 13.8917 5.40817H14.9098M14.9098 3.59692H13.8973C10.6573 3.59692 7.47353 3.64192 4.35728 3.78255C2.06228 3.78255 0.200405 5.82442 0.200405 8.35567C0.0597805 10.3694 -0.00209453 12.3719 0.00353047 14.38C-0.00209453 16.3882 0.0541555 18.3907 0.19478 20.3988C0.19478 22.93 2.05666 24.9888 4.35166 24.9888C7.43416 25.135 10.5785 25.2025 13.7904 25.2025H15.0054C18.2173 25.2025 21.3617 25.135 24.4498 24.9888C26.7504 24.9888 28.6123 22.93 28.6123 20.3988C28.7473 18.3907 28.8092 16.3825 28.8035 14.3744C28.8092 12.3663 28.7473 10.3638 28.6123 8.35005C28.6123 5.8188 26.7504 3.78817 24.4498 3.78817C21.3335 3.64192 18.1554 3.59692 14.9098 3.59692Z" fill="white"/>
<path d="M11.6469 19.8992V8.85168L19.8032 14.3754L11.6469 19.8992Z" fill="white"/>
</g>
<defs>
<clipPath id="clip0_5_546">
<rect width="28.8" height="28.8" fill="white" transform="translate(0.00158691 -0.00146484)"/>
</clipPath>
</defs>
</svg>
