<svg width="64" height="64" viewBox="0 0 64 64" fill="none" xmlns="http://www.w3.org/2000/svg">
<path d="M10.93 14.47L6.91 27H24.21L25.21 24.6C25.2881 24.4211 25.4168 24.269 25.5802 24.1624C25.7437 24.0558 25.9348 23.9993 26.13 24H37.83C38.0252 23.9993 38.2163 24.0558 38.3797 24.1624C38.5432 24.269 38.6719 24.4211 38.75 24.6L39.75 27H57.05L53.05 14.47C52.7271 13.4654 52.0947 12.5888 51.2433 11.9655C50.3919 11.3422 49.3652 11.0043 48.31 11H15.69C14.6314 11 13.6002 11.336 12.7448 11.9596C11.8893 12.5832 11.2539 13.4622 10.93 14.47ZM15.69 53H48.31C49.3686 53 50.3998 52.664 51.2552 52.0404C52.1107 51.4168 52.7461 50.5378 53.07 49.53L57.07 37H6.91L10.91 49.53C11.235 50.5411 11.8734 51.4224 12.7328 52.0463C13.5923 52.6702 14.628 53.0042 15.69 53ZM45 41C45 40.7348 45.1054 40.4804 45.2929 40.2929C45.4804 40.1054 45.7348 40 46 40C46.2652 40 46.5196 40.1054 46.7071 40.2929C46.8946 40.4804 47 40.7348 47 41V48C47 48.2652 46.8946 48.5196 46.7071 48.7071C46.5196 48.8946 46.2652 49 46 49C45.7348 49 45.4804 48.8946 45.2929 48.7071C45.1054 48.5196 45 48.2652 45 48V41ZM38 41C38 40.7348 38.1054 40.4804 38.2929 40.2929C38.4804 40.1054 38.7348 40 39 40C39.2652 40 39.5196 40.1054 39.7071 40.2929C39.8946 40.4804 40 40.7348 40 41V48C40 48.2652 39.8946 48.5196 39.7071 48.7071C39.5196 48.8946 39.2652 49 39 49C38.7348 49 38.4804 48.8946 38.2929 48.7071C38.1054 48.5196 38 48.2652 38 48V41ZM31 41C31 40.7348 31.1054 40.4804 31.2929 40.2929C31.4804 40.1054 31.7348 40 32 40C32.2652 40 32.5196 40.1054 32.7071 40.2929C32.8946 40.4804 33 40.7348 33 41V48C33 48.2652 32.8946 48.5196 32.7071 48.7071C32.5196 48.8946 32.2652 49 32 49C31.7348 49 31.4804 48.8946 31.2929 48.7071C31.1054 48.5196 31 48.2652 31 48V41ZM24 41C24 40.7348 24.1054 40.4804 24.2929 40.2929C24.4804 40.1054 24.7348 40 25 40C25.2652 40 25.5196 40.1054 25.7071 40.2929C25.8946 40.4804 26 40.7348 26 41V48C26 48.2652 25.8946 48.5196 25.7071 48.7071C25.5196 48.8946 25.2652 49 25 49C24.7348 49 24.4804 48.8946 24.2929 48.7071C24.1054 48.5196 24 48.2652 24 48V41ZM17 41C17 40.7348 17.1054 40.4804 17.2929 40.2929C17.4804 40.1054 17.7348 40 18 40C18.2652 40 18.5196 40.1054 18.7071 40.2929C18.8946 40.4804 19 40.7348 19 41V48C19 48.2652 18.8946 48.5196 18.7071 48.7071C18.5196 48.8946 18.2652 49 18 49C17.7348 49 17.4804 48.8946 17.2929 48.7071C17.1054 48.5196 17 48.2652 17 48V41ZM58 29H6C5.20435 29 4.44129 29.3161 3.87868 29.8787C3.31607 30.4413 3 31.2044 3 32C3 32.7956 3.31607 33.5587 3.87868 34.1213C4.44129 34.6839 5.20435 35 6 35H58C58.7957 35 59.5587 34.6839 60.1213 34.1213C60.6839 33.5587 61 32.7956 61 32C61 31.2044 60.6839 30.4413 60.1213 29.8787C59.5587 29.3161 58.7957 29 58 29Z" fill="white"/>
</svg>
