<svg width="46" height="46" viewBox="0 0 46 46" fill="none" xmlns="http://www.w3.org/2000/svg">
<path d="M40.8346 8.14498C41.1177 8.82647 41.0011 9.40823 40.4848 9.89026L28.1669 22.182V40.682C28.1669 41.3801 27.8421 41.8705 27.1924 42.1531C26.9759 42.2362 26.7677 42.2777 26.5678 42.2777C26.1181 42.2777 25.7433 42.1198 25.4434 41.804L19.0471 35.4213C18.7306 35.1054 18.5724 34.7315 18.5724 34.2993V22.182L6.25451 9.89026C5.73814 9.40823 5.62154 8.82647 5.90471 8.14498C6.18788 7.49673 6.67926 7.17261 7.37886 7.17261H39.3604C40.06 7.17261 40.5514 7.49673 40.8346 8.14498Z" fill="white"/>
</svg>
