<svg width="46" height="46" viewBox="0 0 46 46" fill="none" xmlns="http://www.w3.org/2000/svg">
<path d="M36.2862 10.0965H10.1453C8.65967 10.0965 7.23488 10.6849 6.18437 11.7323C5.13387 12.7797 4.5437 14.2002 4.5437 15.6814V30.5745C4.5437 32.0557 5.13387 33.4762 6.18437 34.5236C7.23488 35.571 8.65967 36.1594 10.1453 36.1594H36.2862C37.7718 36.1594 39.1966 35.571 40.2471 34.5236C41.2976 33.4762 41.8878 32.0557 41.8878 30.5745V15.6814C41.8878 14.2002 41.2976 12.7797 40.2471 11.7323C39.1966 10.6849 37.7718 10.0965 36.2862 10.0965ZM21.3485 28.7128H13.8797C13.3845 28.7128 12.9096 28.5167 12.5594 28.1676C12.2092 27.8185 12.0125 27.3449 12.0125 26.8512C12.0125 26.3575 12.2092 25.884 12.5594 25.5348C12.9096 25.1857 13.3845 24.9896 13.8797 24.9896H21.3485C21.8437 24.9896 22.3187 25.1857 22.6688 25.5348C23.019 25.884 23.2157 26.3575 23.2157 26.8512C23.2157 27.3449 23.019 27.8185 22.6688 28.1676C22.3187 28.5167 21.8437 28.7128 21.3485 28.7128ZM32.5517 28.7128H28.8173C28.3221 28.7128 27.8472 28.5167 27.497 28.1676C27.1469 27.8185 26.9501 27.3449 26.9501 26.8512C26.9501 26.3575 27.1469 25.884 27.497 25.5348C27.8472 25.1857 28.3221 24.9896 28.8173 24.9896H32.5517C33.047 24.9896 33.5219 25.1857 33.8721 25.5348C34.2222 25.884 34.419 26.3575 34.419 26.8512C34.419 27.3449 34.2222 27.8185 33.8721 28.1676C33.5219 28.5167 33.047 28.7128 32.5517 28.7128ZM38.1534 17.543H8.27811V15.6814C8.27811 15.1877 8.47483 14.7142 8.825 14.365C9.17517 14.0159 9.6501 13.8198 10.1453 13.8198H36.2862C36.7814 13.8198 37.2563 14.0159 37.6065 14.365C37.9566 14.7142 38.1534 15.1877 38.1534 15.6814V17.543Z" fill="white"/>
</svg>
