<svg width="46" height="46" viewBox="0 0 46 46" fill="none" xmlns="http://www.w3.org/2000/svg">
<path d="M8.22815 39.4726C8.22815 40.5006 9.06239 41.3343 10.0932 41.3343H34.339C37.4244 41.3343 39.9342 38.8291 39.9342 35.7494C39.9342 32.6697 37.4244 30.1645 34.339 30.1645H19.4185C18.3894 30.1645 17.5535 29.3291 17.5535 28.3028C17.5535 27.2765 18.3894 26.4412 19.4185 26.4412H30.6089C31.6397 26.4412 32.474 25.6075 32.474 24.5795C32.474 23.5516 31.6397 22.7179 30.6089 22.7179H25.0137V18.7303C28.2226 17.8978 30.6089 15.0076 30.6089 11.5481C30.6089 7.44208 27.2632 4.10156 23.1487 4.10156C19.0341 4.10156 15.6884 7.44208 15.6884 11.5481C15.6884 15.0076 18.0748 17.8978 21.2836 18.7303V22.7179H19.4185C16.3332 22.7179 13.8233 25.2231 13.8233 28.3028C13.8233 31.3825 16.3332 33.8877 19.4185 33.8877H34.339C35.3682 33.8877 36.2041 34.723 36.2041 35.7494C36.2041 36.7757 35.3682 37.611 34.339 37.611H10.0932C9.06239 37.611 8.22815 38.4446 8.22815 39.4726ZM19.4185 11.5481C19.4185 9.49472 21.0924 7.82483 23.1487 7.82483C25.2049 7.82483 26.8788 9.49472 26.8788 11.5481C26.8788 13.6015 25.2049 15.2714 23.1487 15.2714C21.0924 15.2714 19.4185 13.6015 19.4185 11.5481Z" fill="white"/>
</svg>
