<svg width="41" height="56" viewBox="0 0 41 56" fill="none" xmlns="http://www.w3.org/2000/svg">
<mask id="path-1-inside-1_74_7" fill="white">
<path d="M40.16 2.16V53.84C40.16 54.4267 39.9467 54.9333 39.52 55.36C39.0933 55.7867 38.5867 56 38 56H22.32C21.7333 56 21.2267 55.7867 20.8 55.36C20.3733 54.9333 20.16 54.4267 20.16 53.84V21.52L11.2 28.4C10.7733 28.72 10.2933 28.88 9.76 28.88C9.28 28.88 8.74667 28.5067 8.16 27.76L1.12 18.64C0.906667 18.2667 0.8 17.92 0.8 17.6C0.8 16.64 1.14667 15.9467 1.84 15.52L21.12 0.559999C21.6533 0.186664 22.24 -3.8147e-06 22.88 -3.8147e-06H38C38.5867 -3.8147e-06 39.0933 0.21333 39.52 0.639997C39.9467 1.06667 40.16 1.57333 40.16 2.16Z"/>
</mask>
<path d="M39.52 55.36L38.1058 53.9458L38.1058 53.9458L39.52 55.36ZM20.8 55.36L22.2142 53.9458L22.2142 53.9458L20.8 55.36ZM20.16 21.52H22.16V17.4627L18.9419 19.9337L20.16 21.52ZM11.2 28.4L12.4 30L12.4091 29.9932L12.4181 29.9863L11.2 28.4ZM8.16 27.76L6.57682 28.9821L6.58206 28.9889L6.58736 28.9956L8.16 27.76ZM1.12 18.64L-0.616488 19.6323L-0.54779 19.7525L-0.463181 19.8621L1.12 18.64ZM1.84 15.52L2.8882 17.2233L2.98047 17.1665L3.06606 17.1001L1.84 15.52ZM21.12 0.559999L19.9731 -1.07846L19.9328 -1.05026L19.8939 -1.02012L21.12 0.559999ZM39.52 0.639997L38.1058 2.05421L38.1058 2.05421L39.52 0.639997ZM40.16 2.16H38.16V53.84H40.16H42.16V2.16H40.16ZM40.16 53.84H38.16C38.16 53.8649 38.1578 53.878 38.157 53.882C38.1563 53.8856 38.1561 53.8855 38.1567 53.8839C38.1574 53.8824 38.1564 53.8855 38.1505 53.8939C38.1445 53.9027 38.1312 53.9204 38.1058 53.9458L39.52 55.36L40.9342 56.7742C41.724 55.9844 42.16 54.9738 42.16 53.84H40.16ZM39.52 55.36L38.1058 53.9458C38.0804 53.9712 38.0627 53.9845 38.0539 53.9905C38.0455 53.9963 38.0424 53.9974 38.0439 53.9967C38.0455 53.9961 38.0456 53.9963 38.042 53.997C38.038 53.9978 38.0249 54 38 54V56V58C39.1338 58 40.1444 57.564 40.9342 56.7742L39.52 55.36ZM38 56V54H22.32V56V58H38V56ZM22.32 56V54C22.2951 54 22.282 53.9978 22.278 53.997C22.2744 53.9963 22.2745 53.9961 22.2761 53.9967C22.2776 53.9974 22.2745 53.9963 22.2661 53.9905C22.2573 53.9845 22.2396 53.9712 22.2142 53.9458L20.8 55.36L19.3858 56.7742C20.1756 57.564 21.1862 58 22.32 58V56ZM20.8 55.36L22.2142 53.9458C22.1888 53.9204 22.1755 53.9027 22.1695 53.8939C22.1637 53.8855 22.1626 53.8824 22.1633 53.8839C22.1639 53.8855 22.1637 53.8856 22.163 53.882C22.1622 53.878 22.16 53.8649 22.16 53.84H20.16H18.16C18.16 54.9738 18.596 55.9844 19.3858 56.7742L20.8 55.36ZM20.16 53.84H22.16V21.52H20.16H18.16V53.84H20.16ZM20.16 21.52L18.9419 19.9337L9.98195 26.8137L11.2 28.4L12.4181 29.9863L21.3781 23.1063L20.16 21.52ZM11.2 28.4L10 26.8C9.91952 26.8604 9.86059 26.88 9.76 26.88V28.88V30.88C10.7261 30.88 11.6271 30.5796 12.4 30L11.2 28.4ZM9.76 28.88V26.88C10.0534 26.88 10.1947 26.995 10.1469 26.9615C10.1269 26.9475 10.0788 26.9104 10.0042 26.8358C9.93029 26.7619 9.83943 26.6603 9.73264 26.5244L8.16 27.76L6.58736 28.9956C7.21728 29.7974 8.27513 30.88 9.76 30.88V28.88ZM8.16 27.76L9.74318 26.5379L2.70318 17.4179L1.12 18.64L-0.463181 19.8621L6.57682 28.9821L8.16 27.76ZM1.12 18.64L2.85649 17.6477C2.80983 17.5661 2.79449 17.5213 2.79156 17.5118C2.78916 17.504 2.8 17.5361 2.8 17.6H0.8H-1.2C-1.2 18.3676 -0.945326 19.0568 -0.616488 19.6323L1.12 18.64ZM0.8 17.6H2.8C2.8 17.3579 2.84354 17.2651 2.84885 17.2544C2.85076 17.2506 2.85164 17.2495 2.85126 17.25C2.85088 17.2506 2.85046 17.251 2.85059 17.2509C2.85074 17.2507 2.85285 17.2485 2.85808 17.2442C2.86338 17.2399 2.87294 17.2327 2.8882 17.2233L1.84 15.52L0.791804 13.8167C-0.607547 14.6778 -1.2 16.0915 -1.2 17.6H0.8ZM1.84 15.52L3.06606 17.1001L22.3461 2.14011L21.12 0.559999L19.8939 -1.02012L0.613935 13.9399L1.84 15.52ZM21.12 0.559999L22.2669 2.19846C22.4703 2.05611 22.6578 2 22.88 2V-3.8147e-06V-2C21.8222 -2 20.8364 -1.68278 19.9731 -1.07846L21.12 0.559999ZM22.88 -3.8147e-06V2H38V-3.8147e-06V-2H22.88V-3.8147e-06ZM38 -3.8147e-06V2C38.0249 2 38.038 2.0022 38.042 2.00298C38.0456 2.00369 38.0455 2.00393 38.0439 2.00327C38.0424 2.00264 38.0455 2.00365 38.0539 2.00945C38.0627 2.01549 38.0804 2.02878 38.1058 2.05421L39.52 0.639997L40.9342 -0.774213C40.1444 -1.56399 39.1338 -2 38 -2V-3.8147e-06ZM39.52 0.639997L38.1058 2.05421C38.1312 2.07964 38.1445 2.09726 38.1505 2.10606C38.1564 2.11453 38.1574 2.1176 38.1567 2.11611C38.1561 2.11455 38.1563 2.11437 38.157 2.11802C38.1578 2.12199 38.16 2.13509 38.16 2.16H40.16H42.16C42.16 1.02621 41.724 0.0155537 40.9342 -0.774216L39.52 0.639997Z" fill="#F1EDE2" mask="url(#path-1-inside-1_74_7)"/>
</svg>
