<svg width="37" height="40" viewBox="0 0 37 40" fill="none" xmlns="http://www.w3.org/2000/svg">
<mask id="path-1-inside-1_5_784" fill="white">
<path d="M35.265 28.4448C35.6757 28.4448 36.0304 28.5942 36.329 28.8928C36.6277 29.1915 36.777 29.5462 36.777 29.9568V38.4688C36.777 38.8795 36.6277 39.2342 36.329 39.5328C36.0304 39.8315 35.6757 39.9808 35.265 39.9808H2.33702C1.92636 39.9808 1.57169 39.8315 1.27302 39.5328C0.974358 39.2342 0.825024 38.8795 0.825024 38.4688V32.6448C0.825024 31.3008 1.29169 30.2928 2.22502 29.6208C10.1397 23.9088 14.937 20.3248 16.617 18.8688C19.2677 16.5542 20.593 14.6875 20.593 13.2688C20.593 12.1115 20.2944 11.4208 19.697 11.1968C19.3984 11.0848 19.0624 11.0288 18.689 11.0288C18.353 11.0288 18.0544 11.0662 17.793 11.1408C17.569 11.1782 17.3637 11.2528 17.177 11.3648C16.9904 11.4395 16.8224 11.5515 16.673 11.7008C16.5237 11.8502 16.393 11.9808 16.281 12.0928C16.2064 12.2048 16.113 12.3728 16.001 12.5968C15.889 12.8208 15.8144 12.9888 15.777 13.1008C15.5904 13.5488 15.497 13.8102 15.497 13.8848C15.1984 14.7435 14.4517 15.1728 13.257 15.1728H2.72902C2.39302 15.1728 2.09436 15.0608 1.83302 14.8368C1.60902 14.5755 1.49702 14.2768 1.49702 13.9408C1.49702 9.79683 3.10236 6.43683 6.31302 3.86083C9.56102 1.28483 13.6864 -0.00316763 18.689 -0.00316763C23.729 -0.00316763 27.7424 1.11683 30.729 3.35683C33.753 5.5595 35.265 8.62083 35.265 12.5408C35.265 15.4902 34.2384 18.1595 32.185 20.5488C30.1317 22.9382 26.9957 25.5702 22.777 28.4448H35.265Z"/>
</mask>
<path d="M36.329 28.8928L35.3391 29.8828L35.3391 29.8828L36.329 28.8928ZM36.329 39.5328L35.3391 38.5429L35.3391 38.5429L36.329 39.5328ZM1.27302 39.5328L2.26297 38.5429H2.26297L1.27302 39.5328ZM2.22502 29.6208L3.04305 30.757L3.04432 30.7561L2.22502 29.6208ZM16.617 18.8688L17.5339 19.9268L17.5379 19.9234L16.617 18.8688ZM19.697 11.1968L19.2055 12.5077L19.2055 12.5077L19.697 11.1968ZM17.793 11.1408L18.0232 12.5218L18.1014 12.5087L18.1776 12.487L17.793 11.1408ZM17.177 11.3648L17.697 12.6647L17.8011 12.623L17.8973 12.5653L17.177 11.3648ZM16.673 11.7008L17.663 12.6908L17.663 12.6908L16.673 11.7008ZM16.281 12.0928L15.2911 11.1029L15.1931 11.2009L15.1162 11.3163L16.281 12.0928ZM15.777 13.1008L17.0693 13.6393L17.089 13.5921L17.1052 13.5436L15.777 13.1008ZM15.497 13.8848L16.8193 14.3448L16.897 14.1214V13.8848H15.497ZM1.83302 14.8368L0.770066 15.7479L0.84015 15.8297L0.921916 15.8998L1.83302 14.8368ZM6.31302 3.86083L5.44306 2.76392L5.4369 2.76886L6.31302 3.86083ZM30.729 3.35683L29.889 4.47683L29.8969 4.4827L29.9048 4.48846L30.729 3.35683ZM32.185 20.5488L33.2468 21.4613L32.185 20.5488ZM22.777 28.4448L21.9887 27.2879L18.2363 29.8448H22.777V28.4448ZM35.265 28.4448V29.8448C35.2825 29.8448 35.2916 29.8464 35.2944 29.8469C35.297 29.8474 35.2968 29.8476 35.2957 29.8471C35.2947 29.8467 35.2969 29.8474 35.3028 29.8515C35.3089 29.8557 35.3213 29.865 35.3391 29.8828L36.329 28.8928L37.319 27.9029C36.7661 27.35 36.0587 27.0448 35.265 27.0448V28.4448ZM36.329 28.8928L35.3391 29.8828C35.3569 29.9006 35.3662 29.9129 35.3704 29.9191C35.3745 29.925 35.3752 29.9272 35.3747 29.9261C35.3743 29.925 35.3744 29.9249 35.3749 29.9275C35.3755 29.9302 35.377 29.9394 35.377 29.9568H36.777H38.177C38.177 29.1632 37.8718 28.4557 37.319 27.9029L36.329 28.8928ZM36.777 29.9568H35.377V38.4688H36.777H38.177V29.9568H36.777ZM36.777 38.4688H35.377C35.377 38.4863 35.3755 38.4954 35.3749 38.4982C35.3744 38.5008 35.3743 38.5007 35.3747 38.4996C35.3752 38.4985 35.3745 38.5007 35.3704 38.5066C35.3662 38.5128 35.3569 38.5251 35.3391 38.5429L36.329 39.5328L37.319 40.5228C37.8718 39.9699 38.177 39.2625 38.177 38.4688H36.777ZM36.329 39.5328L35.3391 38.5429C35.3213 38.5607 35.3089 38.57 35.3028 38.5742C35.2969 38.5783 35.2947 38.579 35.2957 38.5785C35.2968 38.5781 35.297 38.5783 35.2944 38.5787C35.2916 38.5793 35.2825 38.5808 35.265 38.5808V39.9808V41.3808C36.0587 41.3808 36.7661 41.0756 37.319 40.5228L36.329 39.5328ZM35.265 39.9808V38.5808H2.33702V39.9808V41.3808H35.265V39.9808ZM2.33702 39.9808V38.5808C2.31959 38.5808 2.31042 38.5793 2.30764 38.5787C2.30508 38.5783 2.30521 38.5781 2.3063 38.5785C2.30735 38.579 2.30519 38.5783 2.29926 38.5742C2.29311 38.57 2.28077 38.5607 2.26297 38.5429L1.27302 39.5328L0.283075 40.5228C0.835914 41.0756 1.54337 41.3808 2.33702 41.3808V39.9808ZM1.27302 39.5328L2.26297 38.5429C2.24518 38.5251 2.23587 38.5128 2.23164 38.5066C2.22758 38.5007 2.22688 38.4985 2.22731 38.4996C2.22778 38.5007 2.22761 38.5008 2.22711 38.4982C2.22657 38.4954 2.22502 38.4863 2.22502 38.4688H0.825024H-0.574975C-0.574975 39.2625 -0.269764 39.9699 0.283075 40.5228L1.27302 39.5328ZM0.825024 38.4688H2.22502V32.6448H0.825024H-0.574975V38.4688H0.825024ZM0.825024 32.6448H2.22502C2.22502 31.6644 2.54023 31.119 3.04305 30.757L2.22502 29.6208L1.407 28.4847C0.0431571 29.4667 -0.574975 30.9373 -0.574975 32.6448H0.825024ZM2.22502 29.6208L3.04432 30.7561C10.9369 25.06 15.7955 21.4335 17.5339 19.9268L16.617 18.8688L15.7001 17.8109C14.0786 19.2162 9.34246 22.7577 1.40573 28.4856L2.22502 29.6208ZM16.617 18.8688L17.5379 19.9234C18.9069 18.7279 19.9898 17.6007 20.7406 16.5433C21.4767 15.5065 21.993 14.3977 21.993 13.2688H20.593H19.193C19.193 13.5586 19.0466 14.0925 18.4575 14.9223C17.8829 15.7316 16.9778 16.6951 15.6962 17.8143L16.617 18.8688ZM20.593 13.2688H21.993C21.993 12.0383 21.6905 10.4492 20.1886 9.88597L19.697 11.1968L19.2055 12.5077C19.1624 12.4916 19.1197 12.4634 19.0889 12.432C19.0617 12.4042 19.0658 12.3963 19.084 12.4385C19.1278 12.5398 19.193 12.7889 19.193 13.2688H20.593ZM19.697 11.1968L20.1886 9.88597C19.7085 9.70592 19.2022 9.62883 18.689 9.62883V11.0288V12.4288C18.9225 12.4288 19.0883 12.4638 19.2055 12.5077L19.697 11.1968ZM18.689 11.0288V9.62883C18.2523 9.62883 17.8202 9.67704 17.4084 9.7947L17.793 11.1408L18.1776 12.487C18.2885 12.4553 18.4537 12.4288 18.689 12.4288V11.0288ZM17.793 11.1408L17.5629 9.75988C17.1732 9.82483 16.8005 9.9581 16.4567 10.1643L17.177 11.3648L17.8973 12.5653C17.9269 12.5476 17.9648 12.5315 18.0232 12.5218L17.793 11.1408ZM17.177 11.3648L16.6571 10.065C16.2855 10.2136 15.9596 10.4344 15.6831 10.7109L16.673 11.7008L17.663 12.6908C17.6851 12.6686 17.6952 12.6654 17.697 12.6647L17.177 11.3648ZM16.673 11.7008L15.6831 10.7109C15.5337 10.8602 15.4031 10.9909 15.2911 11.1029L16.281 12.0928L17.271 13.0828C17.383 12.9708 17.5136 12.8401 17.663 12.6908L16.673 11.7008ZM16.281 12.0928L15.1162 11.3163C14.9928 11.5013 14.8688 11.7308 14.7488 11.9707L16.001 12.5968L17.2532 13.2229C17.3573 13.0148 17.4199 12.9084 17.4459 12.8694L16.281 12.0928ZM16.001 12.5968L14.7488 11.9707C14.6324 12.2036 14.5195 12.4461 14.4489 12.6581L15.777 13.1008L17.1052 13.5436C17.1041 13.5469 17.1125 13.5222 17.1404 13.4594C17.1666 13.4003 17.2036 13.3222 17.2532 13.2229L16.001 12.5968ZM15.777 13.1008L14.4847 12.5624C14.3878 12.7949 14.3072 12.9978 14.2486 13.162C14.2197 13.2428 14.1899 13.3316 14.1656 13.4191C14.153 13.4645 14.097 13.6574 14.097 13.8848H15.497H16.897C16.897 13.9498 16.8922 14.0017 16.8883 14.0341C16.8843 14.0682 16.8796 14.095 16.8762 14.1125C16.8698 14.146 16.864 14.1666 16.8634 14.1685C16.8625 14.1721 16.8677 14.1535 16.8855 14.1037C16.9202 14.0065 16.9795 13.8548 17.0693 13.6393L15.777 13.1008ZM15.497 13.8848L14.1747 13.4249C14.1294 13.5553 14.0793 13.6003 14.0152 13.6372C13.9207 13.6915 13.6998 13.7728 13.257 13.7728V15.1728V16.5728C14.0089 16.5728 14.7587 16.4395 15.4109 16.0645C16.0934 15.672 16.566 15.0731 16.8193 14.3448L15.497 13.8848ZM13.257 15.1728V13.7728H2.72902V15.1728V16.5728H13.257V15.1728ZM2.72902 15.1728V13.7728C2.72312 13.7728 2.72299 13.7724 2.72732 13.7731C2.73179 13.7739 2.73794 13.7755 2.7446 13.778C2.75122 13.7805 2.7553 13.7827 2.75632 13.7833C2.75719 13.7839 2.75303 13.7815 2.74413 13.7739L1.83302 14.8368L0.921916 15.8998C1.43021 16.3355 2.05001 16.5728 2.72902 16.5728V15.1728ZM1.83302 14.8368L2.89598 13.9257C2.88836 13.9168 2.88599 13.9127 2.88651 13.9135C2.88712 13.9146 2.8894 13.9186 2.89189 13.9253C2.89438 13.9319 2.89593 13.9381 2.89672 13.9425C2.89749 13.9469 2.89702 13.9467 2.89702 13.9408H1.49702H0.0970247C0.0970247 14.6198 0.334382 15.2396 0.770066 15.7479L1.83302 14.8368ZM1.49702 13.9408H2.89702C2.89702 10.2181 4.31225 7.26101 7.18915 4.95281L6.31302 3.86083L5.4369 2.76886C1.89246 5.61265 0.0970247 9.37556 0.0970247 13.9408H1.49702ZM6.31302 3.86083L7.18298 4.95773C10.1353 2.61621 13.9347 1.39683 18.689 1.39683V-0.00316763V-1.40317C13.438 -1.40317 8.98672 -0.0465473 5.44307 2.76394L6.31302 3.86083ZM18.689 -0.00316763V1.39683C23.5309 1.39683 27.2169 2.47277 29.889 4.47683L30.729 3.35683L31.569 2.23683C28.2678 -0.2391 23.9271 -1.40317 18.689 -1.40317V-0.00316763ZM30.729 3.35683L29.9048 4.48846C32.5471 6.41315 33.865 9.04322 33.865 12.5408H35.265H36.665C36.665 8.19845 34.9589 4.70585 31.5533 2.22521L30.729 3.35683ZM35.265 12.5408H33.865C33.865 15.1314 32.9745 17.4822 31.1232 19.6364L32.185 20.5488L33.2468 21.4613C35.5023 18.8368 36.665 15.8489 36.665 12.5408H35.265ZM32.185 20.5488L31.1232 19.6364C29.1838 21.8932 26.1603 24.4453 21.9887 27.2879L22.777 28.4448L23.5654 29.6018C27.8311 26.695 31.0796 23.9831 33.2468 21.4613L32.185 20.5488ZM22.777 28.4448V29.8448H35.265V28.4448V27.0448H22.777V28.4448Z" fill="#F1EDE2" mask="url(#path-1-inside-1_5_784)"/>
</svg>
