<svg width="37" height="41" viewBox="0 0 37 41" fill="none" xmlns="http://www.w3.org/2000/svg">
<mask id="path-1-inside-1_5_793" fill="white">
<path d="M36.5995 27.7168C36.5995 31.5622 34.8821 34.6608 31.4475 37.0128C28.0128 39.3648 23.6261 40.5408 18.2875 40.5408C15.1141 40.5408 12.2768 40.1488 9.77548 39.3648C7.31148 38.5808 5.40748 37.5728 4.06348 36.3408C1.41281 33.9142 0.0874756 31.4315 0.0874756 28.8928C0.0874756 28.5568 0.199476 28.2768 0.423476 28.0528C0.684809 27.7915 0.983476 27.6608 1.31948 27.6608H12.5755C13.2475 27.6608 13.9195 27.9968 14.5915 28.6688C15.2635 29.3408 16.4581 29.6768 18.1755 29.6768C20.7515 29.6768 22.0395 28.6875 22.0395 26.7088C22.0395 25.0662 20.7328 24.2448 18.1195 24.2448H11.3435C10.9328 24.2448 10.5781 24.0955 10.2795 23.7968C9.98081 23.4982 9.83148 23.1435 9.83148 22.7328V18.1968C9.83148 17.1515 10.2048 16.4048 10.9515 15.9568L18.7355 11.7008H4.00748C3.59681 11.7008 3.24214 11.5515 2.94348 11.2528C2.64481 10.9542 2.49548 10.5995 2.49548 10.1888V2.29283C2.49548 1.88217 2.64481 1.5275 2.94348 1.22883C3.24214 0.930166 3.59681 0.780832 4.00748 0.780832H32.6795C33.0901 0.780832 33.4448 0.930166 33.7435 1.22883C34.0421 1.5275 34.1915 1.88217 34.1915 2.29283V9.40483C34.1915 10.3755 33.8181 11.1222 33.0715 11.6448L26.5195 16.1248C33.2395 17.8048 36.5995 21.6688 36.5995 27.7168Z"/>
</mask>
<path d="M31.4475 37.0128L30.6565 35.8577L31.4475 37.0128ZM9.77548 39.3648L9.35099 40.6989L9.35676 40.7008L9.77548 39.3648ZM4.06348 36.3408L5.00949 35.3088L5.00883 35.3082L4.06348 36.3408ZM0.423476 28.0528L1.41342 29.0428L0.423476 28.0528ZM14.5915 28.6688L13.6015 29.6588H13.6015L14.5915 28.6688ZM10.2795 23.7968L9.28953 24.7868L9.28953 24.7868L10.2795 23.7968ZM10.9515 15.9568L10.2798 14.7285L10.2552 14.7419L10.2312 14.7563L10.9515 15.9568ZM18.7355 11.7008L19.4071 12.9292L18.7355 10.3008V11.7008ZM33.0715 11.6448L33.8617 12.8005L33.868 12.7962L33.8743 12.7918L33.0715 11.6448ZM26.5195 16.1248L25.7293 14.9692L23.1577 16.7275L26.1799 17.483L26.5195 16.1248ZM36.5995 27.7168H35.1995C35.1995 31.057 33.7471 33.7413 30.6565 35.8577L31.4475 37.0128L32.2385 38.168C36.0172 35.5804 37.9995 32.0673 37.9995 27.7168H36.5995ZM31.4475 37.0128L30.6565 35.8577C27.5127 38.0105 23.4233 39.1408 18.2875 39.1408V40.5408V41.9408C23.829 41.9408 28.513 40.7191 32.2385 38.168L31.4475 37.0128ZM18.2875 40.5408V39.1408C15.2273 39.1408 12.535 38.7626 10.1942 38.0289L9.77548 39.3648L9.35676 40.7008C12.0186 41.5351 15.001 41.9408 18.2875 41.9408V40.5408ZM9.77548 39.3648L10.2 38.0307C7.85429 37.2844 6.15461 36.3585 5.00949 35.3088L4.06348 36.3408L3.11746 37.3728C4.66035 38.7872 6.76866 39.8773 9.35099 40.6989L9.77548 39.3648ZM4.06348 36.3408L5.00883 35.3082C2.52446 33.0338 1.48748 30.8979 1.48748 28.8928H0.0874755H-1.31252C-1.31252 31.9651 0.301162 34.7945 3.11812 37.3735L4.06348 36.3408ZM0.0874755 28.8928H1.48748C1.48748 28.8826 1.48863 28.9076 1.47134 28.9508C1.4534 28.9956 1.4286 29.0276 1.41342 29.0428L0.423476 28.0528L-0.566473 27.0629C-1.07019 27.5666 -1.31252 28.2105 -1.31252 28.8928H0.0874755ZM0.423476 28.0528L1.41342 29.0428C1.43703 29.0192 1.43515 29.0281 1.40462 29.0415C1.39025 29.0477 1.37384 29.0531 1.35679 29.0566C1.33986 29.0601 1.3268 29.0608 1.31948 29.0608V27.6608V26.2608C0.573297 26.2608 -0.071419 26.5678 -0.566474 27.0629L0.423476 28.0528ZM1.31948 27.6608V29.0608H12.5755V27.6608V26.2608H1.31948V27.6608ZM12.5755 27.6608V29.0608C12.7452 29.0608 13.0821 29.1394 13.6015 29.6588L14.5915 28.6688L15.5814 27.6789C14.7568 26.8543 13.7497 26.2608 12.5755 26.2608V27.6608ZM14.5915 28.6688L13.6015 29.6588C14.6808 30.7381 16.36 31.0768 18.1755 31.0768V29.6768V28.2768C16.5563 28.2768 15.8461 27.9436 15.5814 27.6789L14.5915 28.6688ZM18.1755 29.6768V31.0768C19.6034 31.0768 20.9313 30.8094 21.9263 30.0451C22.9913 29.2271 23.4395 28.0274 23.4395 26.7088H22.0395H20.6395C20.6395 27.3689 20.4437 27.6533 20.2207 27.8246C19.9277 28.0496 19.3235 28.2768 18.1755 28.2768V29.6768ZM22.0395 26.7088H23.4395C23.4395 25.4434 22.8961 24.3617 21.8045 23.6755C20.822 23.0579 19.5276 22.8448 18.1195 22.8448V24.2448V25.6448C19.3247 25.6448 19.9903 25.8424 20.3144 26.0461C20.5296 26.1813 20.6395 26.3316 20.6395 26.7088H22.0395ZM18.1195 24.2448V22.8448H11.3435V24.2448V25.6448H18.1195V24.2448ZM11.3435 24.2448V22.8448C11.326 22.8448 11.3169 22.8433 11.3141 22.8427C11.3115 22.8422 11.3117 22.8421 11.3128 22.8425C11.3138 22.843 11.3116 22.8423 11.3057 22.8382C11.2996 22.834 11.2872 22.8247 11.2694 22.8069L10.2795 23.7968L9.28953 24.7868C9.84237 25.3396 10.5498 25.6448 11.3435 25.6448V24.2448ZM10.2795 23.7968L11.2694 22.8069C11.2516 22.7891 11.2423 22.7768 11.2381 22.7706C11.234 22.7647 11.2333 22.7625 11.2338 22.7636C11.2342 22.7647 11.2341 22.7648 11.2336 22.7622C11.233 22.7594 11.2315 22.7503 11.2315 22.7328H9.83148H8.43148C8.43148 23.5265 8.73669 24.2339 9.28953 24.7868L10.2795 23.7968ZM9.83148 22.7328H11.2315V18.1968H9.83148H8.43148V22.7328H9.83148ZM9.83148 18.1968H11.2315C11.2315 17.5277 11.4372 17.298 11.6718 17.1573L10.9515 15.9568L10.2312 14.7563C8.97238 15.5116 8.43148 16.7753 8.43148 18.1968H9.83148ZM10.9515 15.9568L11.6231 17.1852L19.4071 12.9292L18.7355 11.7008L18.0638 10.4725L10.2798 14.7285L10.9515 15.9568ZM18.7355 11.7008V10.3008H4.00748V11.7008V13.1008H18.7355V11.7008ZM4.00748 11.7008V10.3008C3.99004 10.3008 3.98087 10.2993 3.97809 10.2987C3.97553 10.2982 3.97566 10.2981 3.97676 10.2985C3.9778 10.299 3.97565 10.2983 3.96972 10.2942C3.96356 10.29 3.95122 10.2807 3.93343 10.2629L2.94348 11.2528L1.95353 12.2428C2.50636 12.7956 3.21382 13.1008 4.00748 13.1008V11.7008ZM2.94348 11.2528L3.93343 10.2629C3.91563 10.2451 3.90632 10.2328 3.9021 10.2266C3.89803 10.2207 3.89733 10.2185 3.89777 10.2196C3.89823 10.2207 3.89806 10.2208 3.89756 10.2182C3.89702 10.2154 3.89548 10.2063 3.89548 10.1888H2.49548H1.09548C1.09548 10.9825 1.40069 11.6899 1.95353 12.2428L2.94348 11.2528ZM2.49548 10.1888H3.89548V2.29283H2.49548H1.09548V10.1888H2.49548ZM2.49548 2.29283H3.89548C3.89548 2.2754 3.89702 2.26623 3.89756 2.26345C3.89806 2.26089 3.89823 2.26102 3.89777 2.26211C3.89733 2.26315 3.89803 2.261 3.9021 2.25507C3.90632 2.24891 3.91563 2.23658 3.93343 2.21878L2.94348 1.22883L1.95353 0.238885C1.40069 0.791724 1.09548 1.49918 1.09548 2.29283H2.49548ZM2.94348 1.22883L3.93343 2.21878C3.95122 2.20098 3.96356 2.19168 3.96972 2.18745C3.97565 2.18339 3.9778 2.18268 3.97676 2.18312C3.97566 2.18358 3.97553 2.18342 3.97809 2.18292C3.98087 2.18238 3.99004 2.18083 4.00748 2.18083V0.780832V-0.619168C3.21382 -0.619168 2.50636 -0.313956 1.95353 0.238885L2.94348 1.22883ZM4.00748 0.780832V2.18083H32.6795V0.780832V-0.619168H4.00748V0.780832ZM32.6795 0.780832V2.18083C32.6969 2.18083 32.7061 2.18238 32.7089 2.18292C32.7114 2.18342 32.7113 2.18358 32.7102 2.18312C32.7092 2.18268 32.7113 2.18339 32.7172 2.18745C32.7234 2.19168 32.7357 2.20098 32.7535 2.21878L33.7435 1.22883L34.7334 0.238884C34.1806 -0.313955 33.4731 -0.619168 32.6795 -0.619168V0.780832ZM33.7435 1.22883L32.7535 2.21878C32.7713 2.23658 32.7806 2.24891 32.7849 2.25507C32.7889 2.261 32.7896 2.26316 32.7892 2.26211C32.7887 2.26102 32.7889 2.26089 32.7894 2.26345C32.7899 2.26623 32.7915 2.2754 32.7915 2.29283H34.1915H35.5915C35.5915 1.49918 35.2863 0.791723 34.7334 0.238884L33.7435 1.22883ZM34.1915 2.29283H32.7915V9.40483H34.1915H35.5915V2.29283H34.1915ZM34.1915 9.40483H32.7915C32.7915 9.95369 32.6132 10.2567 32.2686 10.4979L33.0715 11.6448L33.8743 12.7918C35.0231 11.9876 35.5915 10.7973 35.5915 9.40483H34.1915ZM33.0715 11.6448L32.2813 10.4892L25.7293 14.9692L26.5195 16.1248L27.3097 17.2805L33.8617 12.8005L33.0715 11.6448ZM26.5195 16.1248L26.1799 17.483C29.3578 18.2775 31.5873 19.5504 33.023 21.2015C34.4426 22.834 35.1995 24.966 35.1995 27.7168H36.5995H37.9995C37.9995 24.4196 37.0764 21.5957 35.1359 19.3642C33.2116 17.1512 30.4012 15.6522 26.859 14.7666L26.5195 16.1248Z" fill="#F1EDE2" mask="url(#path-1-inside-1_5_793)"/>
</svg>
