<svg width="39" height="40" viewBox="0 0 39 40" fill="none" xmlns="http://www.w3.org/2000/svg">
<mask id="path-1-inside-1_5_803" fill="white">
<path d="M32.4335 22.3408H37.3055C37.7535 22.3408 38.1268 22.4902 38.4255 22.7888C38.7242 23.0875 38.8735 23.4422 38.8735 23.8528V32.1968C38.8735 32.6075 38.7242 32.9622 38.4255 33.2608C38.1268 33.5595 37.7722 33.7088 37.3615 33.7088H32.4335V38.4688C32.4335 38.8795 32.2842 39.2342 31.9855 39.5328C31.6868 39.8315 31.3322 39.9808 30.9215 39.9808H20.5055C20.0948 39.9808 19.7402 39.8315 19.4415 39.5328C19.1428 39.2342 18.9935 38.8795 18.9935 38.4688V33.7088H2.2495C1.83883 33.7088 1.48417 33.5595 1.1855 33.2608C0.886833 32.9622 0.7375 32.6075 0.7375 32.1968V24.1888C0.7375 23.5542 0.942833 22.9755 1.3535 22.4528L17.2015 1.73283C17.7242 1.09817 18.4148 0.780832 19.2735 0.780832H30.9215C31.3322 0.780832 31.6868 0.930166 31.9855 1.22883C32.2842 1.5275 32.4335 1.88217 32.4335 2.29283V22.3408ZM19.3855 22.9568V14.8928L13.5055 22.9568H19.3855Z"/>
</mask>
<path d="M32.4335 22.3408H31.0335V23.7408H32.4335V22.3408ZM38.4255 22.7888L39.4155 21.7989L39.4155 21.7989L38.4255 22.7888ZM38.4255 33.2608L39.4155 34.2508L39.4155 34.2508L38.4255 33.2608ZM32.4335 33.7088V32.3088H31.0335V33.7088H32.4335ZM19.4415 39.5328L18.4515 40.5228H18.4516L19.4415 39.5328ZM18.9935 33.7088H20.3935V32.3088H18.9935V33.7088ZM1.1855 33.2608L2.17545 32.2709H2.17545L1.1855 33.2608ZM1.3535 22.4528L2.45435 23.3178L2.45998 23.3106L2.46552 23.3034L1.3535 22.4528ZM17.2015 1.73283L16.1208 0.842844L16.1048 0.862286L16.0895 0.882292L17.2015 1.73283ZM19.3855 22.9568V24.3568H20.7855V22.9568H19.3855ZM19.3855 14.8928H20.7855V10.5966L18.2543 14.068L19.3855 14.8928ZM13.5055 22.9568L12.3743 22.132L10.752 24.3568H13.5055V22.9568ZM32.4335 22.3408V23.7408H37.3055V22.3408V20.9408H32.4335V22.3408ZM37.3055 22.3408V23.7408C37.3717 23.7408 37.3981 23.7513 37.4016 23.7527C37.4045 23.7539 37.4072 23.7552 37.4109 23.7577C37.4148 23.7603 37.4231 23.7663 37.4356 23.7788L38.4255 22.7888L39.4155 21.7989C38.8371 21.2205 38.0998 20.9408 37.3055 20.9408V22.3408ZM38.4255 22.7888L37.4356 23.7788C37.4534 23.7966 37.4627 23.8089 37.4669 23.8151C37.4709 23.821 37.4716 23.8232 37.4712 23.8221C37.4707 23.821 37.4709 23.8209 37.4714 23.8234C37.472 23.8262 37.4735 23.8354 37.4735 23.8528H38.8735H40.2735C40.2735 23.0592 39.9683 22.3517 39.4155 21.7989L38.4255 22.7888ZM38.8735 23.8528H37.4735V32.1968H38.8735H40.2735V23.8528H38.8735ZM38.8735 32.1968H37.4735C37.4735 32.2143 37.472 32.2234 37.4714 32.2262C37.4709 32.2288 37.4707 32.2287 37.4712 32.2276C37.4716 32.2265 37.4709 32.2287 37.4669 32.2346C37.4627 32.2408 37.4533 32.2531 37.4356 32.2709L38.4255 33.2608L39.4155 34.2508C39.9683 33.6979 40.2735 32.9905 40.2735 32.1968H38.8735ZM38.4255 33.2608L37.4356 32.2709C37.4178 32.2887 37.4054 32.298 37.3993 32.3022C37.3933 32.3063 37.3912 32.307 37.3922 32.3065C37.3933 32.3061 37.3934 32.3062 37.3909 32.3067C37.3881 32.3073 37.3789 32.3088 37.3615 32.3088V33.7088V35.1088C38.1552 35.1088 38.8626 34.8036 39.4155 34.2508L38.4255 33.2608ZM37.3615 33.7088V32.3088H32.4335V33.7088V35.1088H37.3615V33.7088ZM32.4335 33.7088H31.0335V38.4688H32.4335H33.8335V33.7088H32.4335ZM32.4335 38.4688H31.0335C31.0335 38.4863 31.032 38.4954 31.0314 38.4982C31.0309 38.5008 31.0308 38.5007 31.0312 38.4996C31.0317 38.4985 31.0309 38.5007 31.0269 38.5066C31.0227 38.5128 31.0134 38.5251 30.9956 38.5429L31.9855 39.5328L32.9755 40.5228C33.5283 39.9699 33.8335 39.2625 33.8335 38.4688H32.4335ZM31.9855 39.5328L30.9956 38.5429C30.9778 38.5607 30.9654 38.57 30.9593 38.5742C30.9533 38.5783 30.9512 38.579 30.9522 38.5785C30.9533 38.5781 30.9534 38.5783 30.9509 38.5787C30.9481 38.5793 30.9389 38.5808 30.9215 38.5808V39.9808V41.3808C31.7152 41.3808 32.4226 41.0756 32.9755 40.5228L31.9855 39.5328ZM30.9215 39.9808V38.5808H20.5055V39.9808V41.3808H30.9215V39.9808ZM20.5055 39.9808V38.5808C20.4881 38.5808 20.4789 38.5793 20.4761 38.5787C20.4736 38.5783 20.4737 38.5781 20.4748 38.5785C20.4758 38.579 20.4737 38.5783 20.4677 38.5742C20.4616 38.57 20.4492 38.5607 20.4314 38.5429L19.4415 39.5328L18.4516 40.5228C19.0044 41.0756 19.7118 41.3808 20.5055 41.3808V39.9808ZM19.4415 39.5328L20.4314 38.5429C20.4137 38.5251 20.4043 38.5128 20.4001 38.5066C20.3961 38.5007 20.3954 38.4985 20.3958 38.4996C20.3963 38.5007 20.3961 38.5008 20.3956 38.4982C20.395 38.4954 20.3935 38.4863 20.3935 38.4688H18.9935H17.5935C17.5935 39.2625 17.8987 39.9699 18.4515 40.5228L19.4415 39.5328ZM18.9935 38.4688H20.3935V33.7088H18.9935H17.5935V38.4688H18.9935ZM18.9935 33.7088V32.3088H2.2495V33.7088V35.1088H18.9935V33.7088ZM2.2495 33.7088V32.3088C2.23206 32.3088 2.22289 32.3073 2.22011 32.3067C2.21756 32.3062 2.21768 32.3061 2.21878 32.3065C2.21982 32.307 2.21767 32.3063 2.21174 32.3022C2.20558 32.298 2.19325 32.2887 2.17545 32.2709L1.1855 33.2608L0.19555 34.2508C0.74839 34.8036 1.45585 35.1088 2.2495 35.1088V33.7088ZM1.1855 33.2608L2.17545 32.2709C2.15765 32.2531 2.14834 32.2408 2.14412 32.2346C2.14006 32.2287 2.13935 32.2265 2.13979 32.2276C2.14025 32.2287 2.14009 32.2288 2.13959 32.2262C2.13904 32.2234 2.1375 32.2143 2.1375 32.1968H0.7375H-0.6625C-0.6625 32.9905 -0.357289 33.6979 0.195551 34.2508L1.1855 33.2608ZM0.7375 32.1968H2.1375V24.1888H0.7375H-0.6625V32.1968H0.7375ZM0.7375 24.1888H2.1375C2.1375 23.8835 2.22762 23.6063 2.45435 23.3178L1.3535 22.4528L0.252655 21.5879C-0.341948 22.3447 -0.6625 23.2249 -0.6625 24.1888H0.7375ZM1.3535 22.4528L2.46552 23.3034L18.3135 2.58338L17.2015 1.73283L16.0895 0.882292L0.241485 21.6023L1.3535 22.4528ZM17.2015 1.73283L18.2822 2.62282C18.5256 2.32723 18.8118 2.18083 19.2735 2.18083V0.780832V-0.619168C18.0179 -0.619168 16.9227 -0.130897 16.1208 0.842844L17.2015 1.73283ZM19.2735 0.780832V2.18083H30.9215V0.780832V-0.619168H19.2735V0.780832ZM30.9215 0.780832V2.18083C30.9389 2.18083 30.9481 2.18238 30.9509 2.18292C30.9534 2.18342 30.9533 2.18358 30.9522 2.18312C30.9512 2.18268 30.9533 2.18339 30.9593 2.18745C30.9654 2.19168 30.9778 2.20098 30.9956 2.21878L31.9855 1.22883L32.9755 0.238884C32.4226 -0.313955 31.7152 -0.619168 30.9215 -0.619168V0.780832ZM31.9855 1.22883L30.9956 2.21878C31.0134 2.23658 31.0227 2.24891 31.0269 2.25507C31.0309 2.261 31.0317 2.26316 31.0312 2.26211C31.0308 2.26102 31.0309 2.26089 31.0314 2.26345C31.032 2.26623 31.0335 2.2754 31.0335 2.29283H32.4335H33.8335C33.8335 1.49918 33.5283 0.791723 32.9755 0.238884L31.9855 1.22883ZM32.4335 2.29283H31.0335V22.3408H32.4335H33.8335V2.29283H32.4335ZM19.3855 22.9568H20.7855V14.8928H19.3855H17.9855V22.9568H19.3855ZM19.3855 14.8928L18.2543 14.068L12.3743 22.132L13.5055 22.9568L14.6367 23.7817L20.5167 15.7177L19.3855 14.8928ZM13.5055 22.9568V24.3568H19.3855V22.9568V21.5568H13.5055V22.9568Z" fill="#F1EDE2" mask="url(#path-1-inside-1_5_803)"/>
</svg>
