<svg width="970" height="359" viewBox="0 0 970 359" fill="none" xmlns="http://www.w3.org/2000/svg">
<path d="M1 80.8349C61.8333 25.0016 231 -51.9651 421 86.8349C658.5 260.335 820 489.334 969.5 263.334" stroke="#FF0000" stroke-linecap="round" stroke-dasharray="4 4"/>
<path d="M111.474 30.0374L106.606 14.4377C105.738 11.6562 108.04 8.90975 110.93 9.27813L128.154 11.4733C131.377 11.8841 132.792 15.763 130.589 18.1522L118.234 31.5567C116.147 33.8208 112.392 32.9768 111.474 30.0374Z" fill="#8A3E1D"/>
<path d="M732.37 332.632L743.856 321.008C745.903 318.935 749.409 319.678 750.441 322.402L756.593 338.64C757.744 341.678 754.983 344.749 751.84 343.926L734.203 339.314C731.224 338.535 730.205 334.823 732.37 332.632Z" fill="#8A3E1D"/>
</svg>
