<svg width="1084" height="356" viewBox="0 0 1084 356" fill="none" xmlns="http://www.w3.org/2000/svg">
<g opacity="0.1">
<path d="M1197.9 87.4699C1197.54 87.4699 1197.18 87.4699 1196.8 87.4974L1125.71 92.5554C1125 92.6103 1124.31 92.6378 1123.59 92.6378C1117.52 92.6378 1111.61 90.7686 1106.44 87.3049C1104.6 86.0679 1102.67 84.9409 1100.67 83.9238C1008.99 37.7973 896.837 16.7958 775.391 6.13005C731.684 2.30908 688.911 0 647.512 0C573.842 0 504.46 7.28458 441.537 26.142C439.393 26.7743 437.304 27.5714 435.27 28.4786C431.202 30.2928 426.913 31.2 422.625 31.2C420.206 31.2 417.759 30.8976 415.395 30.3203L346.288 12.9748C345.051 12.6724 343.814 12.5075 342.605 12.5075C334.88 12.5075 327.843 18.4451 325.919 27.1866L319.789 55.3353C318.057 63.3071 321.108 71.4988 327.348 75.6497L389.418 116.691C395.493 120.704 400.029 127.082 401.953 134.668C429.25 241.765 568.949 338.884 744.878 354.305C760.987 355.707 776.958 356.394 792.654 356.394C948.242 356.394 1079.45 289.156 1120.79 197.673C1124.01 190.526 1129.59 185.056 1136.27 182.142L1204.52 152.536C1211.39 149.567 1215.85 142.008 1215.52 133.871L1214.36 105.09C1213.98 95.1393 1206.67 87.4974 1197.87 87.4974L1197.9 87.4699ZM396.593 53.3286L392.799 81.5048C392.387 84.4736 389.996 86.4253 387.439 86.4253C386.505 86.4253 385.542 86.1504 384.663 85.6006L346.591 61.2729C344.556 59.9809 343.567 57.452 344.089 55.0054L347.058 41.3984C347.635 38.7594 349.862 36.9727 352.308 36.9727C352.721 36.9727 353.133 37.0276 353.545 37.1376L392.442 46.8962C395.191 47.5834 396.978 50.3873 396.566 53.3286H396.593ZM1101.33 129.748C1101.27 129.94 1101.22 130.105 1101.16 130.298C1101.03 130.765 1100.86 131.232 1100.67 131.7C1100.59 131.865 1100.53 132.03 1100.45 132.222C1100.17 132.799 1099.87 133.376 1099.51 133.954C1099.51 133.981 1099.49 134.009 1099.46 134.064C1099.05 134.696 1098.58 135.356 1098.06 135.96C1098.03 136.015 1097.97 136.043 1097.95 136.07C1097.45 136.648 1096.93 137.225 1096.35 137.775C1096.27 137.857 1096.21 137.912 1096.13 137.995C1094.21 139.836 1091.79 141.623 1088.93 143.3C1061.55 159.436 992.361 168.59 902.637 168.59C860.167 168.59 813.078 166.528 763.653 162.212C604.437 148.248 473.232 115.206 443.214 83.8139C442.637 83.2091 442.115 82.6318 441.62 82.0271C441.125 81.4498 440.685 80.8726 440.273 80.2953C440.273 80.2953 440.245 80.2403 440.218 80.2128C439.833 79.663 439.476 79.1133 439.146 78.5635C439.118 78.5085 439.091 78.4535 439.036 78.3986C438.734 77.8763 438.459 77.354 438.239 76.8592C438.211 76.7767 438.156 76.6942 438.129 76.6117C437.909 76.1169 437.744 75.6497 437.552 75.1823C437.524 75.0724 437.469 74.9624 437.414 74.8524C437.277 74.4126 437.167 73.9453 437.057 73.5055C437.029 73.3681 436.974 73.2306 436.947 73.0932C436.864 72.6533 436.809 72.2135 436.782 71.7737C436.782 71.6363 436.754 71.4988 436.727 71.3614C436.699 70.7841 436.727 70.2068 436.754 69.657C436.809 69.0523 436.919 68.475 437.057 67.8703C437.112 67.7053 437.167 67.5129 437.222 67.348C437.332 66.9356 437.469 66.5233 437.634 66.111C437.717 65.9186 437.799 65.7261 437.881 65.5612C438.046 65.1489 438.239 64.764 438.459 64.3792C438.541 64.2142 438.651 64.0493 438.761 63.8844C439.008 63.472 439.283 63.0322 439.586 62.6199C439.668 62.4824 439.778 62.3725 439.861 62.235C440.246 61.7402 440.658 61.2454 441.098 60.7506C441.125 60.6956 441.18 60.6682 441.208 60.6132C442.774 58.9089 444.754 57.287 447.09 55.7201C472.627 38.6495 543.302 28.9184 635.802 28.9184C678.272 28.9184 725.361 30.9801 774.786 35.2958C926.663 48.6005 1053.03 79.2782 1090.44 109.351C1091.35 110.093 1092.2 110.808 1093 111.55C1093.16 111.688 1093.3 111.853 1093.47 111.99C1094.1 112.595 1094.7 113.2 1095.28 113.777C1095.42 113.914 1095.56 114.079 1095.69 114.217C1096.35 114.931 1096.98 115.646 1097.53 116.388C1097.56 116.443 1097.62 116.498 1097.64 116.553C1098.14 117.213 1098.58 117.845 1098.99 118.505C1099.1 118.697 1099.21 118.862 1099.32 119.055C1099.68 119.659 1099.98 120.237 1100.26 120.842C1100.31 120.951 1100.37 121.089 1100.42 121.199C1100.72 121.886 1100.97 122.573 1101.16 123.288C1101.22 123.453 1101.25 123.618 1101.27 123.783C1101.41 124.333 1101.49 124.855 1101.58 125.405C1101.58 125.597 1101.63 125.79 1101.63 125.982C1101.69 126.669 1101.69 127.356 1101.63 128.016C1101.58 128.676 1101.44 129.308 1101.3 129.94L1101.33 129.748ZM1186.57 135.328L1144.84 152.646C1144.16 152.921 1143.5 153.059 1142.84 153.059C1139.92 153.059 1137.42 150.53 1137.56 147.203L1138.74 118.807C1138.85 115.839 1141.13 113.392 1143.94 113.172L1183.93 110.341C1183.93 110.341 1184.18 110.341 1184.29 110.341C1187.12 110.341 1189.46 112.677 1189.57 115.701L1190.12 129.61C1190.23 132.112 1188.77 134.421 1186.57 135.328Z" fill="#F1EDE2"/>
<path d="M1443.1 222.158L1429.33 180.32C1425.34 168.197 1414.92 160.5 1404.01 160.5C1401.37 160.5 1398.71 160.94 1396.09 161.902L1293.7 199.177C1288.67 201.019 1283.39 201.926 1278.08 201.926C1273.08 201.926 1268.05 201.129 1263.16 199.534C1259.91 198.49 1256.62 197.61 1253.26 196.978C1239.3 194.311 1225.14 192.03 1210.85 190.106L1153.56 214.956C1152.38 217.485 1151.09 220.014 1149.79 222.515C1193.56 224.302 1227.61 229.635 1248.78 238.541C1250.43 239.228 1251.97 239.943 1253.45 240.685C1253.76 240.823 1254.03 240.988 1254.33 241.125C1255.52 241.73 1256.67 242.362 1257.74 242.994C1258.02 243.159 1258.29 243.297 1258.54 243.462C1259.83 244.231 1261.04 245.029 1262.17 245.853C1262.25 245.908 1262.31 245.963 1262.39 246.046C1263.41 246.788 1264.31 247.558 1265.19 248.355C1265.44 248.575 1265.66 248.795 1265.91 249.014C1266.68 249.729 1267.39 250.471 1268.02 251.241C1268.16 251.379 1268.3 251.543 1268.44 251.681C1269.18 252.561 1269.81 253.495 1270.39 254.43C1270.53 254.65 1270.64 254.87 1270.77 255.09C1271.18 255.832 1271.57 256.574 1271.9 257.344C1272.01 257.619 1272.12 257.893 1272.23 258.168C1272.59 259.158 1272.89 260.148 1273.11 261.165C1273.3 262.127 1273.38 263.116 1273.41 264.133C1273.41 264.408 1273.41 264.711 1273.41 264.986C1273.41 265.728 1273.36 266.497 1273.27 267.267C1273.25 267.542 1273.22 267.844 1273.16 268.119C1273 269.081 1272.81 270.044 1272.53 271.033C1272.53 271.088 1272.53 271.143 1272.48 271.198C1272.15 272.325 1271.73 273.452 1271.21 274.579C1271.19 274.662 1271.13 274.717 1271.1 274.799C1270.64 275.844 1270.09 276.916 1269.48 277.988C1269.4 278.125 1269.32 278.263 1269.26 278.4C1267.2 281.919 1264.4 285.547 1260.88 289.231C1211.56 341.103 1022.35 408.835 790.54 453.615C651.226 480.499 523.1 493.969 428.923 493.969C360.833 493.969 310.501 486.931 286.448 472.857C285.348 472.225 284.331 471.565 283.341 470.905C283.341 470.905 283.341 470.905 283.314 470.905C282.352 470.246 281.445 469.586 280.593 468.899C280.565 468.871 280.51 468.844 280.483 468.816C279.685 468.157 278.916 467.497 278.201 466.837C278.119 466.782 278.064 466.7 277.981 466.645C277.321 466.012 276.717 465.353 276.139 464.693C276.057 464.583 275.947 464.473 275.864 464.363C275.342 463.758 274.875 463.126 274.435 462.494C274.325 462.356 274.215 462.191 274.105 462.054C273.693 461.449 273.363 460.845 273.033 460.212C272.923 460.02 272.813 459.827 272.703 459.635C272.401 459.03 272.153 458.398 271.906 457.766C271.824 457.573 271.741 457.381 271.659 457.161C271.384 456.336 271.136 455.484 270.971 454.632C270.807 453.725 270.697 452.818 270.669 451.911C270.669 451.636 270.669 451.361 270.669 451.086C270.669 450.426 270.669 449.766 270.751 449.107C270.779 448.804 270.834 448.502 270.861 448.172C270.944 447.512 271.054 446.853 271.219 446.165C271.274 445.863 271.356 445.588 271.439 445.286C271.631 444.544 271.879 443.829 272.126 443.087C272.208 442.867 272.291 442.619 272.373 442.399C272.731 441.492 273.116 440.613 273.583 439.705C273.61 439.623 273.665 439.541 273.693 439.458C275.287 436.297 277.514 433.081 280.29 429.782C308.246 396.823 395.084 356.936 514.771 320.513C508.861 317.022 503.006 313.449 497.343 309.738C487.612 303.36 478.321 296.68 469.524 289.781C393.077 316.39 322.458 348.635 259.783 388.796C256.897 390.638 254.176 392.672 251.564 394.843C243.4 401.661 233.504 405.564 223.086 405.894L114.174 409.44C99.9351 409.907 89.1869 423.102 90.1765 438.908L92.9529 482.863C93.75 495.316 101.694 506.091 112.607 509.527L221.106 543.806C231.717 547.16 241.063 554.637 247.111 564.973C315.201 681.773 486.375 758.99 687.897 758.99C738.284 758.99 790.568 754.152 843.594 743.926C1108.75 692.741 1305.93 522.997 1330.59 355.809C1332.35 343.961 1338.23 333.543 1346.83 326.478L1434.77 254.292C1443.62 247.035 1446.98 234.06 1443.07 222.213L1443.1 222.158ZM199.363 497.955C198.565 497.955 197.768 497.845 196.944 497.597L128.551 477.173C124.923 476.101 122.284 472.692 122.036 468.761L120.634 446.825C120.332 441.822 123.905 437.644 128.634 437.506L191.941 435.445C191.941 435.445 192.133 435.445 192.216 435.445C196.559 435.445 200.352 438.881 201.012 443.444L207.472 487.866C208.269 493.419 204.256 497.982 199.308 497.982L199.363 497.955ZM1407.97 230.157L1352.11 274.579C1350.57 275.816 1348.79 276.366 1347.05 276.366C1343.32 276.366 1339.71 273.755 1338.67 269.439L1328.14 225.786C1327.04 221.196 1329.41 216.523 1333.58 214.983L1393.1 193.322C1394.01 192.992 1394.94 192.827 1395.85 192.827C1399.39 192.827 1402.75 195.219 1403.98 198.985L1410.86 219.876C1412.09 223.615 1410.91 227.766 1407.94 230.102L1407.97 230.157Z" fill="#F1EDE2"/>
</g>
</svg>
