<svg width="242" height="81" viewBox="0 0 242 81" fill="none" xmlns="http://www.w3.org/2000/svg">
<path d="M117.41 26.8514V45.1112H110.184V24.5789C110.184 17.9247 113.307 14.4922 119.351 14.4922C122.948 14.4922 125.514 15.7091 127 18.105C128.485 15.7091 131.036 14.4922 134.649 14.4922C140.676 14.4922 143.8 17.9266 143.8 24.5789V45.1112H136.574V26.8514C136.574 22.3444 135.848 20.9319 133.5 20.9319C131.152 20.9319 130.41 22.3444 130.41 26.8514V45.1112H123.573V26.8514C123.573 22.3444 122.847 20.9319 120.499 20.9319C118.152 20.9319 117.41 22.3444 117.41 26.8514Z" fill="#8A3E1D"/>
<path d="M146.648 14.8867H162.654V21.3435H153.875V25.7253H162.654V31.3771H153.875V38.656H162.654V45.1128H146.648V14.8867Z" fill="#8A3E1D"/>
<path d="M165.336 14.8867H174.96C182.338 14.8867 185.276 17.2655 185.276 23.2382C185.276 27.5668 183.722 29.2299 180.684 29.9096C183.537 30.9461 184.618 33.3079 184.686 37.7257L184.804 45.1128H177.578L177.478 37.7257C177.394 32.8959 176.921 32.146 173.899 32.146H172.566V45.1128H165.34V14.8867H165.336ZM174.958 21.3435H172.56V26.9764H174.958C177.322 26.9764 178.048 26.1714 178.048 24.0432C178.048 22.1105 177.322 21.3416 174.958 21.3416V21.3435Z" fill="#8A3E1D"/>
<path d="M187.742 45.1112V24.5789C187.742 17.9247 191.287 14.4922 198.058 14.4922C204.829 14.4922 208.358 17.9266 208.358 24.5789V45.1112H201.132V33.1108H194.986V45.1112H187.744H187.742ZM194.986 26.8514V27.459H201.132V26.8514C201.132 22.3444 200.406 20.9319 198.058 20.9319C195.71 20.9319 194.984 22.3444 194.984 26.8514H194.986Z" fill="#8A3E1D"/>
<path d="M110.055 48.6055H115.56V56.2906H119.844V48.6055H125.349V71.6324H119.844V60.5812H115.56V71.6324H110.055V48.6055Z" fill="#8A3E1D"/>
<path d="M127.375 71.6316V55.9898C127.375 50.9208 130.076 48.3047 135.234 48.3047C140.392 48.3047 143.08 50.9208 143.08 55.9898V71.6316H137.574V62.4884H132.893V71.6316H127.375ZM132.893 57.7194V58.1826H137.574V57.7194C137.574 54.285 137.021 53.2085 135.234 53.2085C133.447 53.2085 132.893 54.285 132.893 57.7194Z" fill="#8A3E1D"/>
<path d="M145.113 48.6055H150.619V66.7134H157.205V71.6324H145.115V48.6055H145.113Z" fill="#8A3E1D"/>
<path d="M168.419 62.5177V48.6055H173.629V62.5177C173.629 65.9521 174.131 67.0285 175.701 67.0285C177.271 67.0285 177.746 65.9521 177.746 62.5177V48.6055H183.252V64.2605C183.252 69.3295 180.961 71.9324 176.563 71.9324C173.991 71.9324 172.126 71.0325 171.032 69.2764C169.939 71.0344 168.1 71.9324 165.502 71.9324C161.052 71.9324 158.801 69.3295 158.801 64.2605V48.6055H164.306V62.5177C164.306 65.9521 164.808 67.0285 166.364 67.0285C167.919 67.0285 168.421 65.9521 168.421 62.5177H168.419Z" fill="#8A3E1D"/>
<path d="M185.121 71.6316V55.9898C185.121 50.9208 187.822 48.3047 192.98 48.3047C198.138 48.3047 200.826 50.9208 200.826 55.9898V71.6316H195.32V62.4884H190.639V71.6316H185.121ZM190.639 57.7194V58.1826H195.32V57.7194C195.32 54.285 194.767 53.2085 192.98 53.2085C191.193 53.2085 190.639 54.285 190.639 57.7194Z" fill="#8A3E1D"/>
<path d="M202.859 48.6055H208.365V71.6324H202.859V48.6055Z" fill="#8A3E1D"/>
<path d="M210.951 68.8789C211.657 68.8789 212.125 69.2624 212.125 70.2458C212.125 71.2293 211.657 71.6203 210.951 71.6203C210.245 71.6203 209.777 71.2293 209.777 70.2458C209.777 69.2624 210.245 68.8789 210.951 68.8789Z" fill="#8A3E1D"/>
<path d="M213 64.0134C213 61.591 214.267 60.3398 216.688 60.3398C219.11 60.3398 220.371 61.591 220.371 64.0134V64.9912H217.74V64.8412C217.74 63.2009 217.495 62.6864 216.688 62.6864C215.882 62.6864 215.636 63.2009 215.636 64.8412V67.1346C215.636 68.7749 215.882 69.2894 216.688 69.2894C217.495 69.2894 217.74 68.7749 217.74 67.1346V66.9846H220.371V67.968C220.371 70.3905 219.117 71.634 216.688 71.634C214.26 71.634 213 70.3905 213 67.968V64.0153V64.0134Z" fill="#8A3E1D"/>
<path d="M221.195 64.0134C221.195 61.591 222.486 60.3398 224.952 60.3398C227.418 60.3398 228.703 61.591 228.703 64.0134V67.9661C228.703 70.3886 227.418 71.6321 224.952 71.6321C222.486 71.6321 221.195 70.3886 221.195 67.9661V64.0134ZM223.832 64.8412V67.1346C223.832 68.7749 224.09 69.2894 224.95 69.2894C225.81 69.2894 226.068 68.7749 226.068 67.1346V64.8412C226.068 63.2009 225.803 62.6864 224.95 62.6864C224.097 62.6864 223.832 63.2009 223.832 64.8412Z" fill="#8A3E1D"/>
<path d="M232.24 64.8393V71.4898H229.609V64.0134C229.609 61.591 230.747 60.3398 232.948 60.3398C234.258 60.3398 235.192 60.7822 235.733 61.6555C236.275 60.7822 237.203 60.3398 238.518 60.3398C240.714 60.3398 241.85 61.591 241.85 64.0134V71.4898H239.219V64.8393C239.219 63.199 238.954 62.6845 238.101 62.6845C237.248 62.6845 236.975 63.199 236.975 64.8393V71.4898H234.486V64.8393C234.486 63.199 234.221 62.6845 233.368 62.6845C232.515 62.6845 232.242 63.199 232.242 64.8393H232.24Z" fill="#8A3E1D"/>
<path d="M100.052 53.4497L99.6448 50.433C99.5104 49.4438 98.7093 48.73 97.7917 48.73C97.7039 48.73 97.6143 48.7357 97.5246 48.7509L89.6964 49.9374C89.5225 49.964 89.3487 49.9773 89.1748 49.9773C88.5995 49.9773 88.0296 49.8349 87.5099 49.5615C87.293 49.4476 87.069 49.347 86.8378 49.2597C83.5043 48.001 79.9684 47.0213 76.2693 46.2695C75.2029 47.0669 74.09 47.8263 72.9358 48.5439C79.1135 49.4097 83.7445 50.6228 85.9471 52.0201C86.0546 52.0884 86.155 52.1568 86.2518 52.227C86.2715 52.2403 86.2894 52.2555 86.3073 52.2688C86.3844 52.3258 86.4579 52.3827 86.526 52.4416C86.5421 52.4549 86.56 52.47 86.5762 52.4833C86.6568 52.5536 86.7321 52.6238 86.802 52.6941C86.8074 52.6998 86.8109 52.7036 86.8163 52.7093C86.8773 52.7738 86.9328 52.8384 86.9848 52.9029C86.9991 52.92 87.0135 52.939 87.026 52.9561C87.0708 53.0149 87.1102 53.0738 87.1461 53.1345C87.1533 53.1459 87.1622 53.1592 87.1694 53.1706C87.2088 53.2408 87.2429 53.3111 87.2715 53.3813C87.2787 53.3984 87.2823 53.4155 87.2895 53.4307C87.3092 53.4857 87.3253 53.5427 87.3378 53.5997C87.3414 53.6205 87.3468 53.6395 87.3504 53.6604C87.3629 53.7325 87.3719 53.8028 87.3719 53.8749C87.3719 53.9471 87.3647 54.0116 87.354 54.08C87.3504 54.099 87.3468 54.1179 87.3414 54.1388C87.3307 54.1901 87.3163 54.2413 87.3002 54.2926C87.293 54.3116 87.2877 54.3306 87.2805 54.3496C87.2554 54.4122 87.2285 54.4768 87.1945 54.5394C87.1927 54.5432 87.1909 54.547 87.1891 54.5508C87.1497 54.6229 87.1049 54.6932 87.0529 54.7653C87.0493 54.7691 87.0457 54.7748 87.0421 54.7786C86.9937 54.8432 86.94 54.9096 86.8826 54.9742C86.8755 54.9818 86.8683 54.9894 86.8611 54.9988C86.6658 55.2115 86.4149 55.4203 86.1138 55.6235C81.8753 58.4959 67.4248 60.6108 50.2485 60.6108C33.0722 60.6108 17.6074 58.344 13.9746 55.3159C13.9047 55.2589 13.8402 55.2001 13.7792 55.1412C13.7201 55.0843 13.6645 55.0273 13.6126 54.9704C13.6108 54.9685 13.6072 54.9647 13.6054 54.9628C13.557 54.9077 13.5122 54.8546 13.471 54.7995C13.4674 54.7938 13.462 54.7881 13.4584 54.7824C13.4208 54.7312 13.385 54.6799 13.3545 54.6267C13.3491 54.6191 13.3437 54.6097 13.3384 54.6021C13.3097 54.5527 13.2846 54.5052 13.2613 54.4559C13.2559 54.4445 13.2488 54.4331 13.2434 54.4217C13.2237 54.3761 13.2075 54.3287 13.1914 54.2831C13.186 54.2698 13.1807 54.2546 13.1771 54.2394C13.1645 54.1939 13.1538 54.1483 13.1466 54.1028C13.1448 54.0876 13.1394 54.0743 13.1376 54.0591C13.1287 53.9983 13.1233 53.9395 13.1233 53.8787C13.1233 53.8161 13.1287 53.7515 13.1394 53.6889C13.143 53.6699 13.1466 53.6509 13.152 53.6319C13.1609 53.5864 13.1717 53.5427 13.1842 53.4971C13.1896 53.4762 13.1986 53.4573 13.2057 53.4364C13.2219 53.3927 13.238 53.349 13.2595 53.3054C13.2685 53.2864 13.2774 53.2674 13.2864 53.2484C13.3097 53.201 13.3366 53.1554 13.367 53.1079C13.376 53.0928 13.385 53.0795 13.3939 53.0643C13.4316 53.0073 13.4728 52.9523 13.5176 52.8972C13.5212 52.8915 13.5248 52.8877 13.5283 52.882C13.6861 52.6903 13.8886 52.4985 14.1341 52.3125C15.3976 51.3499 17.8009 50.4671 21.0699 49.7134C20.1093 49.0413 19.2114 48.3294 18.3744 47.5776C16.6127 48.0731 14.8976 48.6332 13.2326 49.2616C13.0014 49.3489 12.7774 49.4495 12.5606 49.5634C12.0408 49.8368 11.4709 49.9792 10.8956 49.9792C10.7218 49.9792 10.5479 49.9659 10.3741 49.9393L2.54581 48.7528C2.4562 48.7395 2.36659 48.7319 2.27877 48.7319C1.36117 48.7319 0.56006 49.4457 0.425646 50.4348L0.0188179 53.4516C-0.0958822 54.3059 0.3217 55.1412 1.05471 55.5171L8.33278 59.261C9.04428 59.6274 9.60882 60.2558 9.89736 61.0361C13.9638 72.0512 30.3893 80.9799 50.037 80.9799C69.6848 80.9799 86.1102 72.0512 90.1767 61.0361C90.4652 60.2558 91.0298 59.6274 91.7413 59.261L99.0193 55.5171C99.7523 55.1393 100.172 54.3059 100.055 53.4516L100.052 53.4497ZM8.12847 55.2893C8.11234 55.6348 7.82918 55.8779 7.51554 55.8779C7.42414 55.8779 7.32916 55.857 7.23955 55.8114L2.63541 53.5313C2.39168 53.4098 2.25009 53.1459 2.28594 52.8744L2.49025 51.367C2.53147 51.0557 2.79492 50.8335 3.0978 50.8335C3.12827 50.8335 3.16053 50.8354 3.19099 50.8411L7.74136 51.5303C8.06216 51.5796 8.29515 51.8663 8.27902 52.191L8.12847 55.2874V55.2893ZM97.4333 53.5313L92.8291 55.8114C92.7377 55.857 92.6445 55.8779 92.5531 55.8779C92.2395 55.8779 91.9563 55.6348 91.9402 55.2893L91.7896 52.1929C91.7735 51.8682 92.0083 51.5815 92.3273 51.5322L96.8777 50.843C96.9099 50.8373 96.9404 50.8354 96.9709 50.8354C97.2737 50.8354 97.5354 51.0595 97.5784 51.3689L97.7827 52.8763C97.8186 53.1459 97.6788 53.4117 97.4333 53.5332V53.5313Z" fill="#EB8B23"/>
<path d="M78.0974 6.83791C78.0741 6.83791 78.0508 6.83791 78.0257 6.83981L73.3911 7.18913C73.3445 7.19293 73.2997 7.19483 73.2531 7.19483C72.857 7.19483 72.4717 7.06573 72.1348 6.82652C72.0147 6.74109 71.8893 6.66325 71.7584 6.593C65.7815 3.40732 58.4693 1.95686 50.5515 1.22024C47.7019 0.95635 44.9132 0.796875 42.2142 0.796875C37.4111 0.796875 32.8876 1.29998 28.7853 2.60235C28.6455 2.64602 28.5093 2.70107 28.3767 2.76372C28.1115 2.88902 27.8319 2.95168 27.5523 2.95168C27.3946 2.95168 27.2351 2.93079 27.0809 2.89092L22.5754 1.69297C22.4947 1.67208 22.4141 1.66069 22.3352 1.66069C21.8316 1.66069 21.3728 2.07077 21.2474 2.67449L20.8477 4.61856C20.7348 5.16913 20.9337 5.73488 21.3406 6.02155L25.3873 8.85602C25.7834 9.1332 26.0791 9.57365 26.2046 10.0976C27.9842 17.4942 37.0921 24.2016 48.5621 25.2667C49.6123 25.3635 50.6536 25.411 51.6769 25.411C61.8207 25.411 70.3749 20.7672 73.0703 14.449C73.28 13.9554 73.6438 13.5776 74.0793 13.3764L78.5293 11.3317C78.9774 11.1266 79.2677 10.6045 79.2462 10.0426L79.1709 8.05485C79.1458 7.36759 78.6691 6.83981 78.0956 6.83981L78.0974 6.83791ZM25.8551 4.47997L25.6078 6.42593C25.5809 6.63097 25.425 6.76577 25.2583 6.76577C25.1974 6.76577 25.1346 6.74678 25.0773 6.70881L22.5951 5.02864C22.4625 4.93941 22.398 4.76475 22.432 4.59578L22.6256 3.65602C22.6632 3.47376 22.8084 3.35036 22.9679 3.35036C22.9948 3.35036 23.0216 3.35416 23.0485 3.36175L25.5845 4.03572C25.7637 4.08318 25.8802 4.27683 25.8533 4.47997H25.8551ZM71.8014 9.75781C71.7979 9.7711 71.7943 9.78249 71.7907 9.79578C71.7817 9.82805 71.771 9.86033 71.7584 9.8926C71.7531 9.90399 71.7495 9.91538 71.7441 9.92867C71.7262 9.96854 71.7064 10.0084 71.6831 10.0483C71.6831 10.0502 71.6814 10.0521 71.6796 10.0559C71.6527 10.0995 71.6222 10.1451 71.5882 10.1869C71.5864 10.1907 71.5828 10.1926 71.581 10.1945C71.5487 10.2343 71.5147 10.2742 71.4771 10.3122C71.4717 10.3179 71.4681 10.3217 71.4627 10.3274C71.3373 10.4546 71.1796 10.578 70.9932 10.6938C69.2081 11.8082 64.6972 12.4404 58.8475 12.4404C56.0786 12.4404 53.0085 12.298 49.7862 11.9999C39.4058 11.0355 30.8517 8.7535 28.8946 6.58541C28.857 6.54364 28.823 6.50377 28.7907 6.46201C28.7584 6.42214 28.7298 6.38227 28.7029 6.3424C28.7029 6.3424 28.7011 6.3386 28.6993 6.3367C28.6742 6.29873 28.6509 6.26077 28.6294 6.2228C28.6276 6.219 28.6258 6.2152 28.6222 6.21141C28.6025 6.17533 28.5846 6.13926 28.5703 6.10509C28.5685 6.09939 28.5649 6.0937 28.5631 6.088C28.5488 6.05383 28.538 6.02156 28.5254 5.98928C28.5237 5.98169 28.5201 5.97409 28.5165 5.9665C28.5075 5.93612 28.5004 5.90385 28.4932 5.87347C28.4914 5.86398 28.4878 5.85449 28.486 5.84499C28.4807 5.81462 28.4771 5.78424 28.4753 5.75387C28.4753 5.74437 28.4735 5.73488 28.4717 5.72539C28.4699 5.68552 28.4717 5.64565 28.4735 5.60768C28.4771 5.56591 28.4842 5.52605 28.4932 5.48428C28.4968 5.47289 28.5004 5.4596 28.5039 5.44821C28.5111 5.41973 28.5201 5.39125 28.5308 5.36277C28.5362 5.34948 28.5416 5.3362 28.547 5.3248C28.5577 5.29633 28.5703 5.26975 28.5846 5.24317C28.59 5.23178 28.5971 5.22039 28.6043 5.209C28.6204 5.18052 28.6384 5.15014 28.6581 5.12166C28.6635 5.11217 28.6706 5.10458 28.676 5.09508C28.7011 5.06091 28.728 5.02674 28.7566 4.99257C28.7584 4.98877 28.762 4.98687 28.7638 4.98307C28.866 4.86537 28.995 4.75335 29.1473 4.64514C30.8123 3.46617 35.42 2.7941 41.4507 2.7941C44.2197 2.7941 47.2897 2.93649 50.512 3.23455C60.4139 4.15343 68.6526 6.27216 71.0917 8.34912C71.1509 8.40038 71.2064 8.44974 71.2584 8.501C71.2692 8.51049 71.2781 8.52188 71.2889 8.53138C71.3301 8.57314 71.3695 8.61491 71.4072 8.65478C71.4161 8.66427 71.4251 8.67566 71.434 8.68515C71.4771 8.73451 71.5183 8.78387 71.5541 8.83513C71.5559 8.83893 71.5595 8.84273 71.5613 8.84652C71.5935 8.89209 71.6222 8.93576 71.6491 8.98132C71.6563 8.99461 71.6634 9.006 71.6706 9.01929C71.6939 9.06106 71.7136 9.10093 71.7315 9.14269C71.7351 9.15029 71.7387 9.15978 71.7423 9.16737C71.762 9.21483 71.7781 9.2623 71.7907 9.31166C71.7943 9.32305 71.7961 9.33444 71.7979 9.34583C71.8068 9.3838 71.8122 9.41987 71.8176 9.45784C71.8176 9.47113 71.8212 9.48442 71.8212 9.49771C71.8247 9.54518 71.8247 9.59264 71.8212 9.6382C71.8176 9.68377 71.8086 9.72743 71.7996 9.7711L71.8014 9.75781ZM77.359 10.1432L74.6385 11.3393C74.5937 11.3582 74.5507 11.3677 74.5076 11.3677C74.3177 11.3677 74.1546 11.1931 74.1635 10.9634L74.2406 9.0022C74.2478 8.79716 74.3965 8.6282 74.5793 8.61301L77.187 8.41746C77.187 8.41746 77.2031 8.41746 77.2103 8.41746C77.3949 8.41746 77.5472 8.57884 77.5544 8.78767L77.5902 9.74831C77.5974 9.92108 77.5024 10.0806 77.359 10.1432Z" fill="#EB8B23"/>
<path d="M94.0851 16.1412L93.1872 13.2516C92.9273 12.4144 92.2481 11.8828 91.5366 11.8828C91.3645 11.8828 91.1907 11.9132 91.0204 11.9796L84.3445 14.554C84.0166 14.6812 83.6725 14.7439 83.3266 14.7439C83.0004 14.7439 82.6724 14.6888 82.3534 14.5787C82.1419 14.5065 81.9269 14.4458 81.7082 14.4021C80.7978 14.218 79.8748 14.0604 78.9429 13.9275L75.208 15.6437C75.1309 15.8184 75.0467 15.9931 74.9624 16.1658C77.8156 16.2892 80.0361 16.6575 81.4161 17.2727C81.5236 17.3201 81.624 17.3695 81.7208 17.4207C81.7405 17.4302 81.7584 17.4416 81.7781 17.4511C81.8552 17.4929 81.9305 17.5366 82.0004 17.5802C82.0183 17.5916 82.0362 17.6011 82.0523 17.6125C82.1366 17.6657 82.2154 17.7207 82.2889 17.7777C82.2943 17.7815 82.2979 17.7853 82.3032 17.791C82.3696 17.8422 82.4287 17.8954 82.486 17.9504C82.5022 17.9656 82.5165 17.9808 82.5326 17.996C82.5828 18.0454 82.6294 18.0966 82.6706 18.1498C82.6796 18.1593 82.6886 18.1707 82.6975 18.1801C82.7459 18.2409 82.7871 18.3054 82.8248 18.37C82.8337 18.3852 82.8409 18.4004 82.8499 18.4156C82.8767 18.4668 82.9018 18.5181 82.9233 18.5712C82.9305 18.5902 82.9377 18.6092 82.9448 18.6282C82.9681 18.6965 82.9879 18.7649 83.0022 18.8351C83.0147 18.9016 83.0201 18.9699 83.0219 19.0402C83.0219 19.0592 83.0219 19.08 83.0219 19.099C83.0219 19.1503 83.0183 19.2034 83.0129 19.2566C83.0112 19.2756 83.0094 19.2965 83.0058 19.3154C82.995 19.3819 82.9825 19.4483 82.9646 19.5167C82.9646 19.5205 82.9646 19.5243 82.961 19.5281C82.9395 19.6059 82.9126 19.6838 82.8785 19.7616C82.8767 19.7673 82.8732 19.7711 82.8714 19.7768C82.8409 19.8489 82.8051 19.923 82.7656 19.997C82.7602 20.0065 82.7549 20.016 82.7513 20.0255C82.6169 20.2685 82.4341 20.5191 82.2047 20.7735C78.9895 24.356 66.6538 29.0339 51.5403 32.1265C42.4575 33.9833 34.1041 34.9135 27.9641 34.9135C23.5248 34.9135 20.2433 34.4275 18.6752 33.4555C18.6035 33.4118 18.5372 33.3663 18.4726 33.3207C18.4726 33.3207 18.4726 33.3207 18.4709 33.3207C18.4081 33.2751 18.349 33.2296 18.2934 33.1821C18.2916 33.1802 18.2881 33.1783 18.2863 33.1764C18.2343 33.1309 18.1841 33.0853 18.1375 33.0397C18.1321 33.0359 18.1285 33.0302 18.1232 33.0264C18.0802 32.9828 18.0407 32.9372 18.0031 32.8916C17.9977 32.884 17.9906 32.8765 17.9852 32.8689C17.9511 32.8271 17.9207 32.7834 17.892 32.7398C17.8848 32.7303 17.8776 32.7189 17.8705 32.7094C17.8436 32.6676 17.8221 32.6259 17.8006 32.5822C17.7934 32.5689 17.7862 32.5556 17.7791 32.5423C17.7594 32.5005 17.7432 32.4569 17.7271 32.4132C17.7217 32.3999 17.7163 32.3866 17.711 32.3715C17.693 32.3145 17.6769 32.2556 17.6662 32.1968C17.6554 32.1341 17.6482 32.0715 17.6464 32.0088C17.6464 31.9899 17.6464 31.9709 17.6464 31.9519C17.6464 31.9063 17.6464 31.8608 17.6518 31.8152C17.6536 31.7943 17.6572 31.7734 17.659 31.7506C17.6644 31.7051 17.6715 31.6595 17.6823 31.6121C17.6859 31.5912 17.6913 31.5722 17.6966 31.5513C17.7092 31.5 17.7253 31.4507 17.7414 31.3994C17.7468 31.3842 17.7522 31.3671 17.7576 31.352C17.7809 31.2893 17.806 31.2286 17.8364 31.1659C17.8382 31.1602 17.8418 31.1545 17.8436 31.1488C17.9475 30.9305 18.0927 30.7084 18.2737 30.4805C20.0964 28.2042 25.7579 25.4495 33.5611 22.934C33.1758 22.6929 32.794 22.4461 32.4248 22.1898C31.7904 21.7493 31.1846 21.288 30.6111 20.8115C25.6271 22.6492 21.0229 24.8762 16.9367 27.6499C16.7486 27.7771 16.5711 27.9176 16.4009 28.0675C15.8686 28.5384 15.2234 28.808 14.5442 28.8307L7.44352 29.0757C6.51516 29.1079 5.81442 30.0192 5.87894 31.1108L6.05995 34.1466C6.11192 35.0066 6.62986 35.7508 7.34136 35.9881L14.4151 38.3555C15.1069 38.5871 15.7163 39.1035 16.1105 39.8174C20.5498 47.8841 31.7098 53.217 44.8483 53.217C48.1334 53.217 51.5421 52.8829 54.9992 52.1766C72.2867 48.6416 85.1421 36.9184 86.7497 25.3717C86.8644 24.5534 87.2479 23.8339 87.8088 23.346L93.5421 18.3605C94.1191 17.8593 94.3378 16.9632 94.0833 16.145L94.0851 16.1412ZM12.9975 35.1888C12.9455 35.1888 12.8936 35.1812 12.8398 35.1641L8.38083 33.7536C8.14426 33.6795 7.97221 33.4441 7.95608 33.1726L7.86468 31.6576C7.84497 31.3121 8.07795 31.0235 8.38621 31.014L12.5136 30.8716C12.5136 30.8716 12.5262 30.8716 12.5315 30.8716C12.8147 30.8716 13.062 31.1089 13.105 31.4241L13.5262 34.4921C13.5782 34.8756 13.3165 35.1907 12.9939 35.1907L12.9975 35.1888ZM91.7947 16.6936L88.1529 19.7616C88.0526 19.847 87.9361 19.885 87.8232 19.885C87.5794 19.885 87.3447 19.7046 87.2766 19.4066L86.5902 16.3918C86.5185 16.0747 86.6726 15.752 86.945 15.6456L90.8251 14.1496C90.8842 14.1268 90.9452 14.1155 91.0043 14.1155C91.2355 14.1155 91.4542 14.2806 91.5348 14.5407L91.9828 15.9836C92.0635 16.2418 91.9864 16.5284 91.7929 16.6898L91.7947 16.6936Z" fill="#EB8B23"/>
</svg>
