<svg width="242" height="81" viewBox="0 0 242 81" fill="none" xmlns="http://www.w3.org/2000/svg">
<path d="M117.41 26.0546V44.3144H110.184V23.7821C110.184 17.1278 113.307 13.6953 119.351 13.6953C122.948 13.6953 125.514 14.9123 127 17.3082C128.485 14.9123 131.036 13.6953 134.649 13.6953C140.676 13.6953 143.8 17.1297 143.8 23.7821V44.3144H136.574V26.0546C136.574 21.5475 135.848 20.135 133.5 20.135C131.152 20.135 130.41 21.5475 130.41 26.0546V44.3144H123.573V26.0546C123.573 21.5475 122.847 20.135 120.499 20.135C118.152 20.135 117.41 21.5475 117.41 26.0546Z" fill="white"/>
<path d="M146.648 14.0898H162.654V20.5467H153.875V24.9284H162.654V30.5802H153.875V37.8591H162.654V44.3159H146.648V14.0898Z" fill="white"/>
<path d="M165.336 14.0898H174.96C182.338 14.0898 185.276 16.4687 185.276 22.4414C185.276 26.7699 183.722 28.433 180.684 29.1127C183.537 30.1493 184.618 32.511 184.686 36.9288L184.804 44.3159H177.578L177.478 36.9288C177.394 32.099 176.921 31.3491 173.899 31.3491H172.566V44.3159H165.34V14.0898H165.336ZM174.958 20.5467H172.56V26.1795H174.958C177.322 26.1795 178.048 25.3745 178.048 23.2463C178.048 21.3136 177.322 20.5448 174.958 20.5448V20.5467Z" fill="white"/>
<path d="M187.742 44.3144V23.7821C187.742 17.1278 191.287 13.6953 198.058 13.6953C204.829 13.6953 208.358 17.1297 208.358 23.7821V44.3144H201.132V32.3139H194.986V44.3144H187.744H187.742ZM194.986 26.0546V26.6621H201.132V26.0546C201.132 21.5475 200.406 20.135 198.058 20.135C195.71 20.135 194.984 21.5475 194.984 26.0546H194.986Z" fill="white"/>
<path d="M110.055 47.8086H115.56V55.4937H119.844V47.8086H125.349V70.8355H119.844V59.7844H115.56V70.8355H110.055V47.8086Z" fill="white"/>
<path d="M127.375 70.8347V55.1929C127.375 50.1239 130.076 47.5078 135.234 47.5078C140.392 47.5078 143.08 50.1239 143.08 55.1929V70.8347H137.574V61.6915H132.893V70.8347H127.375ZM132.893 56.9225V57.3857H137.574V56.9225C137.574 53.4881 137.021 52.4116 135.234 52.4116C133.447 52.4116 132.893 53.4881 132.893 56.9225Z" fill="white"/>
<path d="M145.113 47.8086H150.619V65.9165H157.205V70.8355H145.115V47.8086H145.113Z" fill="white"/>
<path d="M168.419 61.7208V47.8086H173.629V61.7208C173.629 65.1552 174.131 66.2317 175.701 66.2317C177.271 66.2317 177.746 65.1552 177.746 61.7208V47.8086H183.252V63.4636C183.252 68.5326 180.961 71.1355 176.563 71.1355C173.991 71.1355 172.126 70.2356 171.032 68.4795C169.939 70.2375 168.1 71.1355 165.502 71.1355C161.052 71.1355 158.801 68.5326 158.801 63.4636V47.8086H164.306V61.7208C164.306 65.1552 164.808 66.2317 166.364 66.2317C167.919 66.2317 168.421 65.1552 168.421 61.7208H168.419Z" fill="white"/>
<path d="M185.121 70.8347V55.1929C185.121 50.1239 187.822 47.5078 192.98 47.5078C198.138 47.5078 200.826 50.1239 200.826 55.1929V70.8347H195.32V61.6915H190.639V70.8347H185.121ZM190.639 56.9225V57.3857H195.32V56.9225C195.32 53.4881 194.767 52.4116 192.98 52.4116C191.193 52.4116 190.639 53.4881 190.639 56.9225Z" fill="white"/>
<path d="M202.859 47.8086H208.365V70.8355H202.859V47.8086Z" fill="white"/>
<path d="M210.951 68.082C211.657 68.082 212.125 68.4655 212.125 69.449C212.125 70.4324 211.657 70.8235 210.951 70.8235C210.245 70.8235 209.777 70.4324 209.777 69.449C209.777 68.4655 210.245 68.082 210.951 68.082Z" fill="white"/>
<path d="M213 63.2166C213 60.7941 214.267 59.543 216.688 59.543C219.11 59.543 220.371 60.7941 220.371 63.2166V64.1943H217.74V64.0443C217.74 62.404 217.495 61.8895 216.688 61.8895C215.882 61.8895 215.636 62.404 215.636 64.0443V66.3377C215.636 67.978 215.882 68.4925 216.688 68.4925C217.495 68.4925 217.74 67.978 217.74 66.3377V66.1877H220.371V67.1712C220.371 69.5936 219.117 70.8372 216.688 70.8372C214.26 70.8372 213 69.5936 213 67.1712V63.2185V63.2166Z" fill="white"/>
<path d="M221.195 63.2166C221.195 60.7941 222.486 59.543 224.952 59.543C227.418 59.543 228.703 60.7941 228.703 63.2166V67.1692C228.703 69.5917 227.418 70.8353 224.952 70.8353C222.486 70.8353 221.195 69.5917 221.195 67.1692V63.2166ZM223.832 64.0443V66.3377C223.832 67.978 224.09 68.4925 224.95 68.4925C225.81 68.4925 226.068 67.978 226.068 66.3377V64.0443C226.068 62.404 225.803 61.8895 224.95 61.8895C224.097 61.8895 223.832 62.404 223.832 64.0443Z" fill="white"/>
<path d="M232.24 64.0424V70.6929H229.609V63.2166C229.609 60.7941 230.747 59.543 232.948 59.543C234.258 59.543 235.192 59.9853 235.733 60.8586C236.275 59.9853 237.203 59.543 238.518 59.543C240.714 59.543 241.85 60.7941 241.85 63.2166V70.6929H239.219V64.0424C239.219 62.4021 238.954 61.8876 238.101 61.8876C237.248 61.8876 236.975 62.4021 236.975 64.0424V70.6929H234.486V64.0424C234.486 62.4021 234.221 61.8876 233.368 61.8876C232.515 61.8876 232.242 62.4021 232.242 64.0424H232.24Z" fill="white"/>
<path d="M100.052 52.6528L99.6448 49.6361C99.5104 48.647 98.7093 47.9331 97.7917 47.9331C97.7039 47.9331 97.6143 47.9388 97.5246 47.954L89.6964 49.1406C89.5225 49.1671 89.3487 49.1804 89.1748 49.1804C88.5995 49.1804 88.0296 49.038 87.5099 48.7647C87.293 48.6507 87.069 48.5501 86.8378 48.4628C83.5043 47.2041 79.9684 46.2245 76.2693 45.4727C75.2029 46.27 74.09 47.0294 72.9358 47.7471C79.1135 48.6128 83.7445 49.8259 85.9471 51.2232C86.0546 51.2916 86.155 51.3599 86.2518 51.4302C86.2715 51.4434 86.2894 51.4586 86.3073 51.4719C86.3844 51.5289 86.4579 51.5858 86.526 51.6447C86.5421 51.658 86.56 51.6732 86.5762 51.6865C86.6568 51.7567 86.7321 51.8269 86.802 51.8972C86.8074 51.9029 86.8109 51.9067 86.8163 51.9124C86.8773 51.9769 86.9328 52.0415 86.9848 52.106C86.9991 52.1231 87.0135 52.1421 87.026 52.1592C87.0708 52.218 87.1102 52.2769 87.1461 52.3376C87.1533 52.349 87.1622 52.3623 87.1694 52.3737C87.2088 52.444 87.2429 52.5142 87.2715 52.5845C87.2787 52.6015 87.2823 52.6186 87.2895 52.6338C87.3092 52.6889 87.3253 52.7458 87.3378 52.8028C87.3414 52.8237 87.3468 52.8426 87.3504 52.8635C87.3629 52.9357 87.3719 53.0059 87.3719 53.0781C87.3719 53.1502 87.3647 53.2148 87.354 53.2831C87.3504 53.3021 87.3468 53.3211 87.3414 53.342C87.3307 53.3932 87.3163 53.4445 87.3002 53.4957C87.293 53.5147 87.2877 53.5337 87.2805 53.5527C87.2554 53.6153 87.2285 53.6799 87.1945 53.7425C87.1927 53.7463 87.1909 53.7501 87.1891 53.7539C87.1497 53.8261 87.1049 53.8963 87.0529 53.9685C87.0493 53.9723 87.0457 53.9779 87.0421 53.9817C86.9937 54.0463 86.94 54.1127 86.8826 54.1773C86.8755 54.1849 86.8683 54.1925 86.8611 54.202C86.6658 54.4146 86.4149 54.6234 86.1138 54.8266C81.8753 57.699 67.4248 59.8139 50.2485 59.8139C33.0722 59.8139 17.6074 57.5471 13.9746 54.519C13.9047 54.4621 13.8402 54.4032 13.7792 54.3444C13.7201 54.2874 13.6645 54.2305 13.6126 54.1735C13.6108 54.1716 13.6072 54.1678 13.6054 54.1659C13.557 54.1108 13.5122 54.0577 13.471 54.0026C13.4674 53.9969 13.462 53.9912 13.4584 53.9855C13.4208 53.9343 13.385 53.883 13.3545 53.8299C13.3491 53.8223 13.3437 53.8128 13.3384 53.8052C13.3097 53.7558 13.2846 53.7084 13.2613 53.659C13.2559 53.6476 13.2488 53.6362 13.2434 53.6248C13.2237 53.5793 13.2075 53.5318 13.1914 53.4862C13.186 53.4729 13.1807 53.4578 13.1771 53.4426C13.1645 53.397 13.1538 53.3514 13.1466 53.3059C13.1448 53.2907 13.1394 53.2774 13.1376 53.2622C13.1287 53.2015 13.1233 53.1426 13.1233 53.0819C13.1233 53.0192 13.1287 52.9547 13.1394 52.892C13.143 52.873 13.1466 52.854 13.152 52.835C13.1609 52.7895 13.1717 52.7458 13.1842 52.7003C13.1896 52.6794 13.1986 52.6604 13.2057 52.6395C13.2219 52.5958 13.238 52.5522 13.2595 52.5085C13.2685 52.4895 13.2774 52.4705 13.2864 52.4516C13.3097 52.4041 13.3366 52.3585 13.367 52.3111C13.376 52.2959 13.385 52.2826 13.3939 52.2674C13.4316 52.2104 13.4728 52.1554 13.5176 52.1003C13.5212 52.0946 13.5248 52.0908 13.5283 52.0851C13.6861 51.8934 13.8886 51.7016 14.1341 51.5156C15.3976 50.5531 17.8009 49.6702 21.0699 48.9165C20.1093 48.2445 19.2114 47.5325 18.3744 46.7807C16.6127 47.2762 14.8976 47.8363 13.2326 48.4647C13.0014 48.552 12.7774 48.6526 12.5606 48.7666C12.0408 49.0399 11.4709 49.1823 10.8956 49.1823C10.7218 49.1823 10.5479 49.169 10.3741 49.1425L2.54581 47.9559C2.4562 47.9426 2.36659 47.935 2.27877 47.935C1.36117 47.935 0.56006 48.6489 0.425646 49.638L0.0188179 52.6547C-0.0958822 53.509 0.3217 54.3444 1.05471 54.7203L8.33278 58.4641C9.04428 58.8305 9.60882 59.4589 9.89736 60.2392C13.9638 71.2543 30.3893 80.183 50.037 80.183C69.6848 80.183 86.1102 71.2543 90.1767 60.2392C90.4652 59.4589 91.0298 58.8305 91.7413 58.4641L99.0193 54.7203C99.7523 54.3425 100.172 53.509 100.055 52.6547L100.052 52.6528ZM8.12847 54.4924C8.11234 54.838 7.82918 55.081 7.51554 55.081C7.42414 55.081 7.32916 55.0601 7.23955 55.0145L2.63541 52.7344C2.39168 52.6129 2.25009 52.349 2.28594 52.0775L2.49025 50.5701C2.53147 50.2588 2.79492 50.0367 3.0978 50.0367C3.12827 50.0367 3.16053 50.0386 3.19099 50.0443L7.74136 50.7334C8.06216 50.7828 8.29515 51.0694 8.27902 51.3941L8.12847 54.4905V54.4924ZM97.4333 52.7344L92.8291 55.0145C92.7377 55.0601 92.6445 55.081 92.5531 55.081C92.2395 55.081 91.9563 54.838 91.9402 54.4924L91.7896 51.396C91.7735 51.0713 92.0083 50.7847 92.3273 50.7353L96.8777 50.0461C96.9099 50.0405 96.9404 50.0386 96.9709 50.0386C97.2737 50.0386 97.5354 50.2626 97.5784 50.572L97.7827 52.0794C97.8186 52.349 97.6788 52.6148 97.4333 52.7363V52.7344Z" fill="white"/>
<path d="M78.0974 6.04104C78.0741 6.04104 78.0508 6.04104 78.0257 6.04293L73.3911 6.39226C73.3445 6.39605 73.2997 6.39795 73.2531 6.39795C72.857 6.39795 72.4717 6.26885 72.1348 6.02964C72.0147 5.94421 71.8893 5.86637 71.7584 5.79613C65.7815 2.61044 58.4693 1.15999 50.5515 0.423367C47.7019 0.159475 44.9132 0 42.2142 0C37.4111 0 32.8876 0.503104 28.7853 1.80548C28.6455 1.84914 28.5093 1.9042 28.3767 1.96685C28.1115 2.09215 27.8319 2.1548 27.5523 2.1548C27.3946 2.1548 27.2351 2.13392 27.0809 2.09405L22.5754 0.896093C22.4947 0.87521 22.4141 0.863819 22.3352 0.863819C21.8316 0.863819 21.3728 1.2739 21.2474 1.87762L20.8477 3.82169C20.7348 4.37225 20.9337 4.93801 21.3406 5.22468L25.3873 8.05914C25.7834 8.33632 26.0791 8.77678 26.2046 9.30077C27.9842 16.6973 37.0921 23.4047 48.5621 24.4698C49.6123 24.5666 50.6536 24.6141 51.6769 24.6141C61.8207 24.6141 70.3749 19.9703 73.0703 13.6521C73.28 13.1585 73.6438 12.7807 74.0793 12.5795L78.5293 10.5348C78.9774 10.3298 79.2677 9.80766 79.2462 9.24571L79.1709 7.25797C79.1458 6.57072 78.6691 6.04293 78.0956 6.04293L78.0974 6.04104ZM25.8551 3.6831L25.6078 5.62906C25.5809 5.8341 25.425 5.96889 25.2583 5.96889C25.1974 5.96889 25.1346 5.94991 25.0773 5.91194L22.5951 4.23176C22.4625 4.14253 22.398 3.96787 22.432 3.7989L22.6256 2.85914C22.6632 2.67689 22.8084 2.55349 22.9679 2.55349C22.9948 2.55349 23.0216 2.55728 23.0485 2.56488L25.5845 3.23884C25.7637 3.28631 25.8802 3.47996 25.8533 3.6831H25.8551ZM71.8014 8.96093C71.7979 8.97422 71.7943 8.98561 71.7907 8.9989C71.7817 9.03118 71.771 9.06345 71.7584 9.09573C71.7531 9.10712 71.7495 9.11851 71.7441 9.1318C71.7262 9.17167 71.7064 9.21153 71.6831 9.2514C71.6831 9.2533 71.6814 9.2552 71.6796 9.259C71.6527 9.30266 71.6222 9.34823 71.5882 9.38999C71.5864 9.39379 71.5828 9.39569 71.581 9.39759C71.5487 9.43746 71.5147 9.47732 71.4771 9.51529C71.4717 9.52099 71.4681 9.52479 71.4627 9.53048C71.3373 9.65768 71.1796 9.78109 70.9932 9.89689C69.2081 11.0113 64.6972 11.6435 58.8475 11.6435C56.0786 11.6435 53.0085 11.5011 49.7862 11.2031C39.4058 10.2386 30.8517 7.95663 28.8946 5.78854C28.857 5.74677 28.823 5.7069 28.7907 5.66513C28.7584 5.62526 28.7298 5.5854 28.7029 5.54553C28.7029 5.54553 28.7011 5.54173 28.6993 5.53983C28.6742 5.50186 28.6509 5.46389 28.6294 5.42592C28.6276 5.42212 28.6258 5.41833 28.6222 5.41453C28.6025 5.37846 28.5846 5.34239 28.5703 5.30821C28.5685 5.30252 28.5649 5.29682 28.5631 5.29113C28.5488 5.25695 28.538 5.22468 28.5254 5.19241C28.5237 5.18481 28.5201 5.17722 28.5165 5.16962C28.5075 5.13925 28.5004 5.10697 28.4932 5.0766C28.4914 5.0671 28.4878 5.05761 28.486 5.04812C28.4807 5.01774 28.4771 4.98737 28.4753 4.95699C28.4753 4.9475 28.4735 4.93801 28.4717 4.92851C28.4699 4.88865 28.4717 4.84877 28.4735 4.8108C28.4771 4.76904 28.4842 4.72917 28.4932 4.6874C28.4968 4.67601 28.5004 4.66272 28.5039 4.65133C28.5111 4.62285 28.5201 4.59438 28.5308 4.5659C28.5362 4.55261 28.5416 4.53932 28.547 4.52793C28.5577 4.49945 28.5703 4.47287 28.5846 4.44629C28.59 4.4349 28.5971 4.42351 28.6043 4.41212C28.6204 4.38364 28.6384 4.35327 28.6581 4.32479C28.6635 4.3153 28.6706 4.3077 28.676 4.29821C28.7011 4.26404 28.728 4.22986 28.7566 4.19569C28.7584 4.19189 28.762 4.19 28.7638 4.1862C28.866 4.06849 28.995 3.95648 29.1473 3.84826C30.8123 2.66929 35.42 1.99722 41.4507 1.99722C44.2197 1.99722 47.2897 2.13961 50.512 2.43768C60.4139 3.35655 68.6526 5.47528 71.0917 7.55224C71.1509 7.6035 71.2064 7.65286 71.2584 7.70412C71.2692 7.71362 71.2781 7.72501 71.2889 7.7345C71.3301 7.77627 71.3695 7.81803 71.4072 7.8579C71.4161 7.86739 71.4251 7.87879 71.434 7.88828C71.4771 7.93764 71.5183 7.987 71.5541 8.03826C71.5559 8.04206 71.5595 8.04585 71.5613 8.04965C71.5935 8.09521 71.6222 8.13888 71.6491 8.18444C71.6563 8.19773 71.6634 8.20912 71.6706 8.22241C71.6939 8.26418 71.7136 8.30405 71.7315 8.34582C71.7351 8.35341 71.7387 8.3629 71.7423 8.3705C71.762 8.41796 71.7781 8.46542 71.7907 8.51478C71.7943 8.52618 71.7961 8.53757 71.7979 8.54896C71.8068 8.58693 71.8122 8.623 71.8176 8.66097C71.8176 8.67426 71.8212 8.68755 71.8212 8.70084C71.8247 8.7483 71.8247 8.79576 71.8212 8.84133C71.8176 8.88689 71.8086 8.93056 71.7996 8.97422L71.8014 8.96093ZM77.359 9.34633L74.6385 10.5424C74.5937 10.5614 74.5507 10.5709 74.5076 10.5709C74.3177 10.5709 74.1546 10.3962 74.1635 10.1665L74.2406 8.20533C74.2478 8.00029 74.3965 7.83132 74.5793 7.81613L77.187 7.62059C77.187 7.62059 77.2031 7.62059 77.2103 7.62059C77.3949 7.62059 77.5472 7.78196 77.5544 7.9908L77.5902 8.95144C77.5974 9.1242 77.5024 9.28368 77.359 9.34633Z" fill="white"/>
<path d="M94.0851 15.3443L93.1872 12.4548C92.9273 11.6175 92.2481 11.0859 91.5366 11.0859C91.3645 11.0859 91.1907 11.1163 91.0204 11.1828L84.3445 13.7571C84.0166 13.8843 83.6725 13.947 83.3266 13.947C83.0004 13.947 82.6724 13.8919 82.3534 13.7818C82.1419 13.7097 81.9269 13.6489 81.7082 13.6053C80.7978 13.4211 79.8748 13.2635 78.9429 13.1306L75.208 14.8469C75.1309 15.0215 75.0467 15.1962 74.9624 15.369C77.8156 15.4924 80.0361 15.8607 81.4161 16.4758C81.5236 16.5232 81.624 16.5726 81.7208 16.6239C81.7405 16.6334 81.7584 16.6448 81.7781 16.6542C81.8552 16.696 81.9305 16.7397 82.0004 16.7833C82.0183 16.7947 82.0362 16.8042 82.0523 16.8156C82.1366 16.8688 82.2154 16.9238 82.2889 16.9808C82.2943 16.9846 82.2979 16.9884 82.3032 16.9941C82.3696 17.0453 82.4287 17.0985 82.486 17.1536C82.5022 17.1687 82.5165 17.1839 82.5326 17.1991C82.5828 17.2485 82.6294 17.2997 82.6706 17.3529C82.6796 17.3624 82.6886 17.3738 82.6975 17.3833C82.7459 17.444 82.7871 17.5086 82.8248 17.5731C82.8337 17.5883 82.8409 17.6035 82.8499 17.6187C82.8767 17.6699 82.9018 17.7212 82.9233 17.7744C82.9305 17.7933 82.9377 17.8123 82.9448 17.8313C82.9681 17.8997 82.9879 17.968 83.0022 18.0383C83.0147 18.1047 83.0201 18.173 83.0219 18.2433C83.0219 18.2623 83.0219 18.2832 83.0219 18.3021C83.0219 18.3534 83.0183 18.4066 83.0129 18.4597C83.0112 18.4787 83.0094 18.4996 83.0058 18.5186C82.995 18.585 82.9825 18.6515 82.9646 18.7198C82.9646 18.7236 82.9646 18.7274 82.961 18.7312C82.9395 18.809 82.9126 18.8869 82.8785 18.9647C82.8767 18.9704 82.8732 18.9742 82.8714 18.9799C82.8409 19.0521 82.8051 19.1261 82.7656 19.2001C82.7602 19.2096 82.7549 19.2191 82.7513 19.2286C82.6169 19.4716 82.4341 19.7222 82.2047 19.9766C78.9895 23.5591 66.6538 28.237 51.5403 31.3297C42.4575 33.1864 34.1041 34.1167 27.9641 34.1167C23.5248 34.1167 20.2433 33.6307 18.6752 32.6586C18.6035 32.615 18.5372 32.5694 18.4726 32.5238C18.4726 32.5238 18.4726 32.5238 18.4709 32.5238C18.4081 32.4783 18.349 32.4327 18.2934 32.3852C18.2916 32.3833 18.2881 32.3814 18.2863 32.3795C18.2343 32.334 18.1841 32.2884 18.1375 32.2428C18.1321 32.239 18.1285 32.2334 18.1232 32.2296C18.0802 32.1859 18.0407 32.1403 18.0031 32.0948C17.9977 32.0872 17.9906 32.0796 17.9852 32.072C17.9511 32.0302 17.9207 31.9866 17.892 31.9429C17.8848 31.9334 17.8776 31.922 17.8705 31.9125C17.8436 31.8707 17.8221 31.829 17.8006 31.7853C17.7934 31.772 17.7862 31.7587 17.7791 31.7454C17.7594 31.7037 17.7432 31.66 17.7271 31.6163C17.7217 31.6031 17.7163 31.5898 17.711 31.5746C17.693 31.5176 17.6769 31.4588 17.6662 31.3999C17.6554 31.3373 17.6482 31.2746 17.6464 31.212C17.6464 31.193 17.6464 31.174 17.6464 31.155C17.6464 31.1094 17.6464 31.0639 17.6518 31.0183C17.6536 30.9974 17.6572 30.9766 17.659 30.9538C17.6644 30.9082 17.6715 30.8626 17.6823 30.8152C17.6859 30.7943 17.6913 30.7753 17.6966 30.7544C17.7092 30.7032 17.7253 30.6538 17.7414 30.6025C17.7468 30.5874 17.7522 30.5703 17.7576 30.5551C17.7809 30.4924 17.806 30.4317 17.8364 30.369C17.8382 30.3633 17.8418 30.3576 17.8436 30.3519C17.9475 30.1336 18.0927 29.9115 18.2737 29.6837C20.0964 27.4074 25.7579 24.6526 33.5611 22.1371C33.1758 21.896 32.794 21.6492 32.4248 21.3929C31.7904 20.9525 31.1846 20.4911 30.6111 20.0146C25.6271 21.8523 21.0229 24.0793 16.9367 26.853C16.7486 26.9802 16.5711 27.1207 16.4009 27.2707C15.8686 27.7415 15.2234 28.0111 14.5442 28.0339L7.44352 28.2788C6.51516 28.3111 5.81442 29.2223 5.87894 30.314L6.05995 33.3497C6.11192 34.2097 6.62986 34.9539 7.34136 35.1912L14.4151 37.5587C15.1069 37.7903 15.7163 38.3067 16.1105 39.0205C20.5498 47.0872 31.7098 52.4201 44.8483 52.4201C48.1334 52.4201 51.5421 52.086 54.9992 51.3798C72.2867 47.8447 85.1421 36.1215 86.7497 24.5748C86.8644 23.7565 87.2479 23.037 87.8088 22.5491L93.5421 17.5636C94.1191 17.0624 94.3378 16.1663 94.0833 15.3481L94.0851 15.3443ZM12.9975 34.392C12.9455 34.392 12.8936 34.3844 12.8398 34.3673L8.38083 32.9567C8.14426 32.8826 7.97221 32.6472 7.95608 32.3757L7.86468 30.8607C7.84497 30.5152 8.07795 30.2266 8.38621 30.2171L12.5136 30.0748C12.5136 30.0748 12.5262 30.0748 12.5315 30.0748C12.8147 30.0748 13.062 30.3121 13.105 30.6272L13.5262 33.6952C13.5782 34.0787 13.3165 34.3939 12.9939 34.3939L12.9975 34.392ZM91.7947 15.8967L88.1529 18.9647C88.0526 19.0502 87.9361 19.0881 87.8232 19.0881C87.5794 19.0881 87.3447 18.9078 87.2766 18.6097L86.5902 15.5949C86.5185 15.2778 86.6726 14.9551 86.945 14.8488L90.8251 13.3528C90.8842 13.33 90.9452 13.3186 91.0043 13.3186C91.2355 13.3186 91.4542 13.4837 91.5348 13.7438L91.9828 15.1867C92.0635 15.4449 91.9864 15.7316 91.7929 15.8929L91.7947 15.8967Z" fill="white"/>
</svg>
