<svg width="170" height="154" viewBox="0 0 170 154" fill="none" xmlns="http://www.w3.org/2000/svg">
<path d="M93.9386 93.5455L88.8597 103.52C89.0936 105.268 90.0125 105.996 88.4776 107.496L93.1158 112.691C92.0466 107.605 96.4279 108.468 99.9718 108.337C100.841 93.5182 111.487 86.4147 125.074 84.4122C125.963 84.2818 127.135 84.5573 127.855 84.3091C129.008 83.9136 129.048 81.4526 132.525 82.2666C133.816 82.5674 134.39 84.063 135.194 84.2944C136.979 84.8097 140.275 84.7614 142.518 85.2704C154.152 87.9145 162.274 96.0487 163.069 108.331C166.492 108.506 171.46 107.683 169.587 112.824C168.486 114.368 149.451 114.214 146.373 114.582C144.456 117.311 141.409 117.999 139.085 119.589C137.111 120.939 134.206 124.513 132.064 126.316C120.25 136.246 106.546 141.732 92.9466 131.206C90.5805 129.374 88.8033 127.054 86.6335 125.039C88.4483 141.486 92.0549 157.908 99.2514 172.826L99.0968 173.728C98.3513 174.767 93.4144 173.493 92.0382 173.703C91.7145 174.031 93.358 179.812 93.8321 180.432C94.4753 181.276 96.9792 182.628 97.9796 183.518C100.486 185.752 106.525 192.113 102.256 195.068C99.3328 197.092 89.0331 197.794 86.0906 195.857C82.5571 193.533 84.894 186.522 84.021 183.051C83.2212 179.862 77.5847 173.783 76.4487 170.161L65.8837 165.708C64.4302 165.722 65.0672 170.462 64.9962 171.698C64.8333 174.578 64.5931 177.542 64.2569 180.411C65.3909 181.974 67.001 183.078 67.6943 184.967C69.6156 190.203 67.4416 191.604 62.841 192.769C57.7099 194.069 48.8115 194.879 43.6407 193.945C40.882 193.446 37.3151 192.91 39.2928 189.418C39.6457 188.796 40.8235 187.109 41.3331 186.36C44.8039 181.265 49.3315 184.534 53.8527 181.829L51.6829 172.401L46.6437 173.674C43.1959 158.573 42.891 142.5 47.3329 127.582C44.2442 128.993 41.3623 130.777 38.1462 131.945C22.5505 137.607 12.5702 131.663 5.44687 117.656C4.82872 116.44 4.54261 114.869 3.98085 113.684C3.2729 112.195 1.999 111.057 1.27017 109.151C-0.168703 105.394 -0.356654 99.8076 0.562219 95.9035C2.08254 89.4479 8.32044 91.0024 13.4411 89.9906C15.1159 88.251 17.2544 83.7853 19.184 82.702C21.1137 81.6187 23.5884 81.6882 25.6934 82.0079C23.7513 77.6726 23.5215 72.1951 23.9037 67.4833C23.9705 66.6545 25.0606 60.952 25.3447 60.7606C27.552 59.2671 26.6958 66.8943 28.2203 67.2961C29.3814 60.4345 32.4806 53.7013 36.1477 47.8599C37.0311 46.4526 40.8695 41.7177 41.1221 40.8868C41.9136 38.2806 42.0013 33.9811 42.749 30.9058C57.4844 -29.6263 152.164 8.08082 127.682 64.1598C121.492 78.3373 108.087 88.3415 93.9407 93.5455H93.9386ZM69.6824 3.38163C63.7452 4.46072 60.028 6.5579 55.9808 10.645C55.9223 10.7039 55.4879 10.5735 55.2895 10.6702L55.6195 11.3728V11.7367C55.5485 11.7619 54.8551 12.576 54.5377 12.8263C50.881 15.7039 48.5462 20.8595 46.9653 25.1738C45.8042 25.666 46.485 25.6344 46.2449 25.8995C46.1989 25.9499 45.6685 25.7144 45.5307 26.1582C45.3928 26.602 45.539 27.212 45.3678 27.7337C44.2108 31.2297 43.0622 34.7404 43.459 38.39C43.5237 38.979 44.1774 39.5343 44.4447 40.0644C44.1983 40.3378 43.8934 40.5923 43.7242 40.7901C43.4172 41.1498 43.3984 41.4737 43.3629 41.5158C36.6259 49.7109 31.6222 59.5847 29.726 70.1127L29.8158 70.5775C30.2398 70.8447 30.6971 71.0003 31.1043 71.2948C31.4489 71.5451 31.781 72.0353 32.1924 72.1846C34.0698 72.8745 39.725 71.5388 41.6964 70.5986C42.561 70.7458 42.9662 73.5519 44.4447 72.3823C44.6953 72.6074 44.9021 72.9061 45.1652 73.108C48.3457 75.546 54.5377 75.8783 58.4513 74.6878C59.5038 74.368 61.306 73.1038 61.9346 73.1249C62.4045 73.1396 66.6689 76.135 68.1579 76.6398C72.6249 78.1627 80.191 78.4867 84.5431 76.6356C86.3433 75.8699 88.866 74.3975 89.4967 72.5233L90.5931 72.7483L91.3135 71.6566C90.0919 79.4753 84.3552 86.8775 76.5301 88.7264L76.8935 89.4458C72.7335 90.6616 68.4941 91.9511 64.0794 91.6419C57.8143 91.2001 53.4163 86.6987 49.983 81.8712C47.7715 81.97 47.738 83.4341 46.7523 84.3343C45.9379 85.079 44.8561 85.3545 44.3278 86.4252L38.6746 89.4521C38.4407 89.4711 38.1901 89.4563 37.9541 89.4521C37.3255 89.4374 36.6761 89.5384 36.0558 89.3785C35.492 89.2313 33.0131 87.2014 33.2679 89.4521C33.2825 89.5868 34.4812 91.4462 34.7026 91.7407C34.9448 92.0626 35.4063 91.9637 35.4314 91.9952C38.2757 95.3861 41.8071 98.3162 45.8878 100.348C46.059 100.434 46.2449 100.788 46.6082 100.712H46.9695C46.8672 101.476 49.0182 102.551 49.4776 102.725C52.3742 103.825 56.081 104.461 59.107 105.39C59.9507 105.649 60.1011 105.115 59.9507 106.524C59.8317 106.535 59.7085 106.511 59.5894 106.524C59.3346 106.551 58.8877 106.932 58.5139 106.907L58.8606 110.153C58.539 110.245 58.0315 110.068 57.7872 110.157C57.9522 109.137 57.3779 109.271 56.7159 109.622C55.7824 110.117 54.3143 111.579 53.4601 112.336C53.1239 112.426 52.7375 112.588 52.3784 112.7C52.1967 112.757 52.0839 113.039 52.0171 113.064C51.9106 113.104 51.7581 113.022 51.6558 113.064C50.2921 113.628 49.7679 113.979 48.4105 114.879C48.281 114.965 48.1849 115.157 48.0492 115.243L40.834 118.325C35.5337 120.138 32.4054 120.485 27.1365 118.51C27.03 118.47 26.8796 118.552 26.7752 118.51C26.7794 117.45 26.2072 117.435 25.3321 117.42C25.1191 117.416 24.739 117.37 24.6117 117.42C24.4592 117.353 24.2921 117.216 24.2504 117.056C23.8056 115.357 22.3604 113.598 22.4481 111.972C22.515 110.723 25.2027 105.702 26.1779 104.835C28.0616 103.158 31.664 103.154 31.5053 99.4416C31.4656 98.5182 29.7114 98.8021 30.743 97.4454C30.8516 97.4033 30.9665 97.1635 31.1043 97.0815C31.8206 96.6608 32.4137 97.1803 32.0295 95.6217C31.5262 93.575 30.1082 93.3204 29.2916 92.1909C28.661 91.3179 29.0222 89.7382 27.859 89.8181C27.2659 88.2658 26.6666 86.4273 25.6955 85.0979C25.6329 85.0117 25.8939 84.6267 25.447 84.368C24.2754 83.6907 21.239 83.8926 20.0987 84.7256C19.6957 85.0201 15.7236 90.3398 15.6067 90.7353C15.3979 91.644 16.4734 91.2001 17.0435 91.2738L16.6822 92.3634C15.9199 92.2393 14.7881 92.3591 13.9506 92.3507C13.4954 92.3465 13.1236 92.7252 13.0756 92.7273C12.6329 92.7357 11.9959 92.3402 11.6326 92.3634C9.51915 92.4959 4.56767 92.9166 3.17057 94.5531C2.59836 95.2241 2.81764 95.8236 2.61924 96.3579C1.97394 98.0912 1.57716 99.5215 1.52286 101.604C1.479 103.262 1.38712 105.247 2.61924 106.526C2.6443 106.762 2.58792 107.02 2.61924 107.252C2.93876 109.599 2.71531 110.024 4.46117 111.724C4.68044 111.938 5.0647 111.901 5.14197 111.972C5.18791 112.012 5.07723 112.443 5.24012 112.584C5.82277 113.091 6.95675 112.954 6.94422 114.151C6.84815 114.155 6.70406 114.46 6.58293 114.515C6.43466 114.58 6.08382 114.456 5.86245 114.515C5.70582 114.704 7.41827 118.787 7.64172 119.088C7.99674 119.561 8.5961 119.473 8.74646 119.597C8.89682 119.721 8.99498 119.784 9.10775 119.961C9.95562 121.276 9.85746 121.94 11.1627 123.724C16.1998 130.603 21.8362 132.91 30.576 132.325C34.6065 132.056 43.1165 128.581 46.5748 126.288C47.312 125.8 47.4979 124.976 47.7882 124.784C47.9072 124.707 50.3777 123.663 50.5698 124.32C46.1196 135.641 45.5787 150.455 46.9653 162.452C47.051 163.188 47.2285 163.897 47.3266 164.631C47.5981 166.673 47.784 168.76 48.0492 170.807C49.2792 171.366 50.2608 169.831 50.5719 169.715C54.3184 168.32 58.2341 167.048 61.3875 164.267C61.8657 163.819 62.5236 163.716 63.0707 163.404C63.2503 163.303 63.1647 162.828 63.1897 162.813C63.2566 162.775 64.4281 162.769 64.6328 162.813C66.3494 163.181 70.6786 165.956 72.7335 166.82C75.4296 167.954 77.6975 168.644 80.4959 169.351C80.8488 169.904 81.4628 169.986 82.0225 170.173C83.6911 170.735 85.4662 171.28 87.164 171.547C87.8197 171.65 88.6321 171.063 88.4295 172.254C84.9378 171.852 81.7176 170.91 78.3344 170.079L85.391 182.033C86.4602 183.55 91.5934 182.679 91.9818 181.084L89.5113 172.256C91.9505 172.422 94.3187 172.803 96.7224 172.256C96.6138 169.496 95.0412 167.073 94.0117 164.637C93.782 164.096 93.9449 163.192 93.6776 162.794C93.3351 162.281 92.341 162.622 92.0779 162.391C91.8586 162.197 92.4183 161.072 91.3135 161.364C91.3282 161.124 91.3094 160.878 91.3135 160.638C91.4075 155.439 89.9164 152.616 88.4295 147.927C88.4066 147.855 88.1873 147.517 88.0682 147.201C88.6843 146.85 88.4588 145.859 88.3481 145.291C86.6419 136.549 84.8668 127.813 84.4679 118.874C84.7958 119.24 85.6813 119.919 85.8985 120.235C90.2255 126.52 92.8631 130.407 100.247 133.291C101.379 133.733 100.511 133.848 102.854 134.126C102.973 134.141 103.096 134.113 103.215 134.126C103.002 135.102 103.7 134.86 104.345 134.967C109.802 135.872 116.589 134.57 121.501 132.027C122.042 131.747 123.737 130.537 123.766 129.77C123.879 129.74 124.013 129.797 124.128 129.77C126.16 129.294 125.032 129.092 125.669 128.419C125.961 128.11 127.227 128.182 127.373 127.229C127.492 127.218 127.617 127.245 127.734 127.229C129.727 126.943 129.094 126.162 129.622 125.851C129.984 125.638 130.641 125.906 130.919 125.725C131.174 125.558 131.09 124.679 131.422 124.404C131.754 124.128 132.527 124.265 133.045 123.855C133.634 123.39 134.547 121.253 134.686 121.133C135.05 120.819 136 121.522 135.668 119.965V119.601C135.758 119.406 135.52 118.691 135.691 118.548C135.825 118.434 136.975 118.508 137.491 118.356C140.444 117.477 141.298 117.004 143.24 114.881C143.518 114.576 145.08 114.799 143.961 113.066C150.61 112.946 157.717 112.845 164.329 112.336C164.686 112.309 169.209 111.844 168.117 110.889C163.641 111.696 159.101 111.448 154.584 111.598C136.946 112.18 118.882 112.475 101.242 111.608C99.3787 111.518 96.9521 110.901 95.1164 110.872C94.0743 110.855 94.5588 111.732 95.1707 111.913C97.2131 112.521 100.828 112.218 103.038 112.342C107.722 112.605 112.6 112.961 117.282 113.066V113.792C117.163 113.802 117.036 113.771 116.921 113.792C116.342 113.901 115.841 113.893 115.837 114.681C116.015 115.245 116.24 115.964 116.551 116.448C116.768 116.787 117.255 116.665 117.282 116.696C117.351 116.779 117.282 117.189 117.497 117.403C117.909 117.809 118.485 117.656 118.36 118.146L117.641 118.15C117.364 118.009 116.319 117.49 116.196 117.586L113.316 121.783C113.216 121.749 113.078 121.806 112.955 121.783C112.842 121.76 112.713 121.795 112.594 121.783L112.308 121.518L111.871 121.783C111.752 121.789 111.627 121.768 111.51 121.783C110.324 121.943 109.643 122.357 108.785 122.489C105.487 122.994 100.287 120.453 97.4491 118.878C97.2298 118.756 96.973 118.649 96.7286 118.514L95.6594 116.867L91.6811 114.155C91.5579 114.038 91.443 113.911 91.3198 113.792C90.7852 113.297 90.662 112.21 90.2589 111.768C89.812 111.278 89.3964 111.122 88.6634 110.315C87.7174 109.273 86.6356 108.63 86.9948 106.892C87.0512 106.831 87.2935 106.953 87.3561 106.892C87.4543 106.795 87.6548 106.825 87.7174 106.528C88.0056 105.134 87.0888 104.959 86.9969 104.713C86.905 104.467 87.7863 101.596 87.9722 101.169C88.158 100.742 89.7828 100.068 88.7992 99.267C88.9203 99.0335 89.0372 98.7811 89.1605 98.5413C89.1792 98.5034 89.4027 98.413 89.5217 98.1774C89.5698 98.0806 89.4737 97.9103 89.5217 97.8135C91.0253 97.8429 90.3675 96.4778 90.7058 95.7268C91.2906 94.4332 93.6755 91.7996 94.208 90.912C95.9747 90.628 97.5995 89.7277 99.2555 89.0966C100.408 88.657 102.215 89.0083 102.501 87.2813C102.607 87.2435 102.756 87.3213 102.862 87.2813C103.063 87.2077 103.167 86.9406 103.223 86.9174C103.328 86.8754 103.482 86.9616 103.585 86.9174C103.975 86.7513 104.343 86.3348 104.769 86.1223C105.993 85.5123 107.479 85.8825 107.912 84.0104C108.156 83.92 108.398 83.7685 108.632 83.6465C109.827 83.0302 113.149 80.7879 114.012 79.8055C114.592 79.1429 115.064 77.6957 115.449 77.3487C116.127 76.7365 116.094 77.4896 117.284 76.0193C119.425 73.3794 120.899 71.2591 122.693 68.392C123.115 67.7189 123.942 66.928 124.136 66.5767C124.33 66.2254 124.633 65.5712 124.857 65.1232L125.517 65.0748L125.821 63.838L125.577 63.6718C125.713 63.3626 125.698 62.8977 125.938 62.5822C126.97 62.6348 126.832 62.0311 127.074 61.3664C128.236 58.1985 128.95 55.3925 129.182 52.0521C129.207 51.6924 129.169 51.3243 129.182 50.9625C129.196 50.4913 129.175 50.1905 129.182 49.8729C129.202 48.6655 129.169 47.4497 129.182 46.2423L129.904 46.0572L129.9 45.5187H129.182C129.182 45.1527 129.184 44.7909 129.182 44.427C129.179 44.0631 129.182 43.7013 129.182 43.3374C129.177 42.4918 129.184 41.642 129.182 40.7943L129.52 40.2474C129.516 39.9466 129.186 39.7657 129.182 39.7047C129.171 39.467 129.217 39.2019 129.182 38.979C129.113 38.5288 129.24 37.9924 129.182 37.5233H128.461C128.442 37.2856 128.484 37.0374 128.461 36.7997C128.457 36.745 128.824 36.5747 128.687 35.727C128.543 34.8288 127.051 30.4556 126.298 30.2642C126.199 30.239 126.041 30.2558 125.936 30.2642C126.112 29.6395 125.253 29.2714 125.216 29.1746C123.505 24.7404 121.739 23.6803 119.807 20.0959C119.513 19.5469 120.379 18.9306 118.364 18.6424C118.249 18.5183 118.122 18.4005 118.003 18.2785C117.884 18.1565 117.762 18.0366 117.641 17.9146C117.52 17.7926 117.401 17.6727 117.28 17.5507L117.259 16.4822L116.198 16.4611C115.827 16.1372 115.305 15.9752 115.117 15.3715L114.755 15.0076H114.394C114.559 13.7392 113.03 14.5112 112.235 13.7308C111.865 13.369 111.838 12.6769 111.51 12.2836C110.34 10.8764 109.115 10.6576 107.544 9.92348C107.289 9.80358 107.07 9.69209 106.824 9.55957C106.849 8.27434 106.059 8.66139 105.381 8.46997C105.268 8.43842 105.128 8.50573 105.019 8.46997L103.938 7.19736L100.331 6.29076C100.108 6.16875 99.8779 6.08461 99.6106 5.92685C99.4205 5.81537 99.2806 5.24322 98.5434 4.99921C97.848 4.77204 97.2152 4.95294 96.7265 4.83725C86.4811 2.41403 80.2891 1.45694 69.6845 3.38374L69.6824 3.38163ZM133.137 85.0916C133.298 84.2565 132.132 83.6675 131.483 83.636C130.51 83.5876 128.793 84.9486 130.79 85.0937C131.564 85.1505 132.362 85.0579 133.137 85.0937V85.0916ZM137.827 86.1833C131.587 85.4218 123.031 85.8783 117.084 87.986C108.077 91.177 101.503 99.2039 101.778 109.059C108.958 109.755 116.188 110.014 123.407 110.153C130.257 110.283 137.481 110.34 144.32 110.153C145.573 110.119 146.611 109.818 147.73 109.774C152.243 109.597 156.769 109.755 161.261 109.059C161.104 99.633 156.261 92.8724 147.925 89.0882C144.6 87.58 141.547 86.6377 137.829 86.1833H137.827ZM31.8248 91.991C32.2362 91.5535 29.8659 87.8009 29.3021 88.3646C29.9119 89.5846 30.1604 91.8101 31.8248 91.991ZM32.5474 92.721C33.6354 94.9044 33.2887 98.4193 32.823 100.807C32.0754 104.65 28.8343 104.015 26.7731 106.335C26.5246 106.614 24.3966 110.504 24.3548 110.752C23.816 113.956 28.3059 117.729 31.3257 118.104C39.9548 119.17 50.7223 111.568 57.4238 106.703C54.9575 105.988 52.4347 105.268 50.029 104.351C45.0566 102.456 40.7734 100.178 36.7053 96.7092C36.25 96.32 32.752 92.519 32.5495 92.7252C32.6309 92.6431 32.4952 92.3528 32.3699 92.3613C31.9752 92.3886 32.3803 92.8955 32.5495 92.7252L32.5474 92.721ZM106.817 110.155C103.487 110.498 99.8987 108.899 96.7203 110.333C96.7307 110.817 105.502 110.979 106.285 110.878C106.811 110.811 107.402 110.603 106.817 110.153V110.155ZM167.029 110.155C163.704 109.677 160.087 109.74 156.748 110.148C156.213 110.214 155.643 110.437 156.217 110.874H162.161L167.031 110.153L167.029 110.155ZM114.031 110.878C113.983 110.878 113.623 110.514 113.158 110.5C112.45 110.476 107.521 110.342 107.538 111.059C109.664 111.402 111.882 111.227 114.031 111.24C118.466 111.267 122.952 111.368 127.375 111.059C122.952 110.641 118.468 110.996 114.031 110.878ZM152.79 110.514C151.113 110.361 149.261 110.626 147.563 110.514C147.356 110.794 148.292 111.24 148.465 111.24H155.136V110.88C154.281 111.215 153.344 110.565 152.792 110.514H152.79ZM114.392 114.509L93.8404 113.426L97.8355 116.84C102.282 119.85 107.3 123.1 112.228 119.052C113.703 117.841 114.724 116.56 114.39 114.509H114.392ZM55.6884 181.991C57.144 182.58 61.9158 182.851 62.6593 181.337L63.551 164.263L53.2555 170.434L55.6884 181.991Z" fill="#2C2523"/>
<path d="M92.7594 109.059L91.6797 109.061V108.337L92.2122 108.339L92.7594 109.059Z" fill="#EFE3E3"/>
<path d="M88.4272 128.312H88.0742V129.035H88.4272V128.312Z" fill="#EFE3E3"/>
<path d="M71.125 108.699L75.9846 113.792C76.7468 114.599 79.326 115.927 80.3179 115.935C81.4602 115.946 82.4773 114.362 83.7449 114.509C84.148 116.972 83.8368 120.96 84.1083 123.768C84.7035 129.948 85.9794 141.642 88.072 147.195C88.191 147.51 88.4103 147.851 88.4332 147.921L91.3173 160.632C91.3131 160.874 91.3319 161.118 91.3173 161.358C91.2483 162.502 91.7078 165.596 90.3504 166.034C82.6819 165.274 75.6358 161.56 68.596 158.64C67.5351 158.2 63.4837 157.159 63.2498 156.398C63.0911 155.884 63.0034 153.892 62.9324 153.085C62.7445 150.933 62.8656 148.312 62.8322 146.105C62.8134 144.778 62.8196 143.438 62.8322 142.111C62.9032 134.641 63.3856 128.301 65.1001 120.971C65.8373 117.822 67.3388 112.191 68.6315 109.351C68.784 109.017 69.6527 108.527 69.8532 108.007C70.2751 108.238 70.6697 108.533 71.125 108.701V108.699Z" fill="#D5412C"/>
<path d="M86.6284 110.878C87.2779 111.036 87.4366 111.206 87.8167 111.711C91.6279 116.804 99.6889 124.105 106.263 124.692C109.047 124.94 111.039 124.113 113.67 123.587C114.374 124.694 117.876 126.772 119.19 127.29C121.001 128.003 122.964 128.249 124.845 128.676L124.127 129.761C124.012 129.789 123.878 129.732 123.766 129.761C122.383 130.127 120.055 131.772 118.605 132.372C112.835 134.757 109.354 134.765 103.214 134.12C103.095 134.107 102.972 134.134 102.853 134.12L97.54 131.677C94.1861 129.519 86.1084 122.361 85.2668 118.24C84.9849 116.86 84.7781 112.363 85.6531 111.333C85.8912 111.053 86.453 111.04 86.6263 110.878H86.6284Z" fill="#D5412C"/>
<path d="M6.58587 94.1722C5.33286 94.839 5.85704 95.2661 5.86539 95.9876C5.87166 96.5765 5.93222 97.1802 5.82571 97.7629C1.83488 98.497 2.18363 102.504 4.42443 105.066C4.53511 105.192 4.33463 105.697 5.01752 106.091C7.03487 107.258 13.1642 105.76 15.6013 105.428C15.476 105.966 15.9354 109.343 16.681 108.333C16.5891 105.853 17.6792 104.41 19.6819 103.186C20.2124 102.862 21.3944 102.744 21.6471 102.439C21.7703 102.292 22.3174 100.468 22.8103 99.6182L24.0716 101.076L24.4517 100.325C26.3793 101.086 28.9375 100.504 30.7418 99.6203C31.1699 101.77 27.7638 102.803 26.4461 103.827C23.5454 106.086 23.3846 109.826 20.7825 111.196C16.2821 113.564 9.8082 113.981 5.14282 111.968L2.61801 107.248C2.58668 107.014 2.64307 106.757 2.61801 106.522C2.27552 103.221 1.95183 100.035 2.61801 96.7175C3.77913 94.7297 4.40146 94.6056 6.58378 94.1743L6.58587 94.1722ZM4.60403 95.9876V96.3515C4.83792 96.2294 4.83792 96.1096 4.60403 95.9876Z" fill="#F3A73E"/>
<path d="M88.7922 99.2564C89.7758 100.06 88.1615 100.712 87.9652 101.158C87.7689 101.604 86.9001 104.467 86.9899 104.702C82.3747 106.718 77.6947 107.361 72.7495 107.988C72.0749 108.074 71.2855 107.527 71.486 108.697C71.3858 108.655 71.2333 108.737 71.1247 108.697C70.6716 108.529 70.2748 108.234 69.8529 108.003C69.6524 108.522 68.7816 109.015 68.6312 109.347C67.3406 112.187 65.837 117.818 65.0998 120.967C63.3853 128.295 62.9029 134.637 62.8319 142.107C62.2158 143.028 62.2325 145.251 62.8319 146.101C62.8653 148.308 62.7442 150.929 62.9321 153.08C63.0031 153.888 63.0909 155.88 63.2496 156.393C63.4835 157.155 67.5349 158.196 68.5957 158.636C75.6335 161.555 82.6796 165.27 90.3501 166.03C91.7075 165.592 91.2481 162.498 91.317 161.353C92.4217 161.061 91.862 162.186 92.0813 162.38C92.3465 162.613 93.3406 162.273 93.681 162.784C93.9462 163.181 93.7854 164.086 94.0151 164.627C95.0447 167.064 96.6151 169.488 96.7258 172.245C94.32 172.794 91.9539 172.414 89.5147 172.245C89.3957 172.237 89.2725 172.256 89.1534 172.245L88.9739 171.515L88.7943 172.245C88.6752 172.233 88.552 172.258 88.433 172.245C88.6376 171.055 87.8253 171.642 87.1674 171.539C85.4696 171.269 83.6945 170.725 82.0259 170.165C81.4683 169.978 80.8543 169.896 80.4993 169.343C85.5323 170.613 90.7907 171.663 96.0011 171.52L92.9334 164.261C91.7618 163.974 92.451 167.287 89.3894 167.14C84.8055 166.921 68.9988 160.685 64.7239 158.192C64.371 157.986 64.2039 157.792 64.2687 157.361C62.5019 158.625 64.2165 161.152 64.6362 162.805C64.4316 162.761 63.26 162.767 63.1932 162.805C63.1681 162.82 63.2537 163.293 63.0741 163.396C62.5249 163.707 61.8692 163.808 61.3909 164.258C61.89 163.819 62.1678 162.769 63.1932 162.805C63.2913 161.28 63.0219 159.776 62.8173 158.276C62.7463 157.757 63.1577 157.205 62.2973 157.361C58.3273 160.563 54.0754 163.476 49.4936 165.71C49.4163 165.617 47.6392 165.176 47.3301 164.62C47.2319 163.886 47.0544 163.177 46.9688 162.441C48.1696 162.38 47.706 164.239 49.0279 164.568C49.6419 164.721 50.2266 164.399 50.5733 163.892C50.6944 163.888 50.8301 163.916 50.9346 163.892C51.465 163.77 51.6885 163.348 52.0163 163.167C55.6981 161.116 59.0019 158.352 62.4915 156.011C61.4348 147.531 61.4578 138.951 62.4727 130.481C62.5145 130.129 62.4247 129.74 62.4727 129.391C63.308 123.2 65.0602 117.199 66.7956 111.234L62.268 114.85C61.038 114.227 60.2904 113.51 59.5887 112.323C59.2504 111.753 59.6096 110.567 58.5132 110.874C57.2664 113.116 55.5331 115.075 54.2509 117.298C53.0689 119.343 51.394 122.229 50.5754 124.309C50.3832 123.653 47.9106 124.698 47.7937 124.774C47.5034 124.965 47.3175 125.788 46.5804 126.278C43.1221 128.569 34.612 132.043 30.5815 132.315C21.8418 132.902 16.2053 130.592 11.1682 123.714C9.863 121.932 9.96115 121.265 9.11328 119.951C13.1187 120.066 16.5729 120.129 20.3883 118.779C21.1798 118.499 21.5766 118.02 22.0924 117.771C22.6876 117.485 23.6002 117.271 24.2559 117.046C24.2977 117.205 24.4647 117.342 24.6172 117.41C24.5107 117.452 23.2994 118.659 22.8149 118.863C19.0267 120.445 14.2402 121.675 10.1992 120.68C9.21352 121.795 14.9293 127.296 15.9902 128.099C24.2893 134.389 35.0443 131.619 43.4457 127.113C44.5254 126.534 49.3996 123.548 49.9593 122.877C50.7445 121.934 52.4632 117.264 53.4636 115.594C53.8729 114.908 54.4388 114.185 54.9066 113.415C55.0319 113.301 55.1656 113.19 55.2679 113.051C55.4642 112.786 55.5519 112.416 55.6292 112.325C55.9842 111.9 57.4627 110.264 57.7927 110.146C58.035 110.06 58.5445 110.235 58.8661 110.142L58.5195 106.896C58.8954 106.922 59.3423 106.543 59.595 106.513C59.2671 107.201 59.4341 108.461 59.9562 109.057C59.9541 109.176 59.9562 109.298 59.9562 109.42C59.9604 110.714 60.3175 112.128 61.2197 113.045C61.4995 112.938 61.6311 112.401 61.7585 112.325C62.9321 111.629 64.5861 109.936 65.3859 109.595C65.8579 109.395 66.3821 109.799 66.4239 109.77C66.6285 109.616 66.5993 108.106 67.5244 108.152L60.3154 106.879L59.9541 106.516C60.1045 105.108 59.9541 105.641 59.1105 105.382C56.0844 104.454 52.3797 103.817 49.4811 102.717C49.0216 102.542 46.8706 101.467 46.973 100.704C49.0718 101.646 51.2854 102.182 53.4636 102.883C59.8351 104.932 66.2004 106.884 73.1107 106.511C75.8026 106.366 85.1751 104.797 86.8061 102.874C87.2176 102.391 88.3808 100.047 88.7963 99.2501L88.7922 99.2564ZM61.3888 105.798H60.6705V106.154H61.3888V105.798Z" fill="#47200F"/>
<path d="M19.9272 91.2674C19.9314 90.6132 20.0317 89.145 21.0069 89.4521C20.9276 91.2169 21.9634 96.4988 23.3876 97.4054C25.0834 98.4866 28.9197 98.1563 30.7449 97.4411C29.7133 98.7979 31.4675 98.5118 31.5071 99.4374C31.6679 103.15 28.0635 103.154 26.1798 104.831C25.2045 105.699 22.5189 110.72 22.45 111.968C21.5582 111.863 20.7918 112.866 20.2864 113.057C16.7571 114.391 13.0106 114.585 9.27458 114.526C8.45803 114.513 7.68743 114.12 6.94607 114.147C6.9586 112.95 5.82462 113.087 5.24197 112.58C5.07908 112.439 5.18976 112.008 5.14382 111.968C5.06446 111.896 4.68229 111.934 4.46302 111.72C2.71716 110.02 2.93852 109.593 2.62109 107.248L5.14591 111.968C9.81128 113.981 16.2852 113.564 20.7856 111.196C23.3876 109.826 23.5484 106.086 26.4492 103.827C27.7669 102.801 31.173 101.768 30.7449 99.6204C30.5737 98.7621 26.5327 99.309 25.5031 99.2712C24.6511 99.2396 23.8742 98.9052 23.0284 98.8631C22.5962 98.9346 22.8927 99.4836 22.8133 99.6183C22.3184 100.468 21.7713 102.292 21.6501 102.439C21.3974 102.744 20.2154 102.862 19.685 103.186C17.6823 104.41 16.5922 105.853 16.684 108.333C15.9385 109.343 15.4791 105.967 15.6044 105.428C15.6294 105.319 16.5044 104.477 16.3248 104.343C12.357 104.347 8.36197 106.097 4.42752 105.066C2.18672 102.506 1.83796 98.4971 5.8288 97.763C5.93739 97.1803 5.87474 96.5766 5.86848 95.9876C6.24438 96.2485 6.92309 97.8934 6.95024 98.1668C7.05048 99.1471 6.51169 100.089 6.58687 101.072L5.86639 99.2544C3.68198 99.0861 3.74671 102.328 4.93498 103.649C6.19635 104.622 10.5297 103.552 12.1293 103.285C13.1756 102.548 12.6201 95.9834 12.3591 94.5362C12.3131 94.2817 12.1022 93.7748 11.9978 93.4466C11.885 93.0869 11.6449 92.7588 11.6365 92.357C11.9978 92.3339 12.6368 92.7272 13.0795 92.7209C13.0879 93.15 13.7395 93.6191 13.8 93.8105C13.9044 94.1387 14.036 95.0789 14.1613 95.6258L13.8021 103.251C16.2893 103.003 18.7076 102.727 18.835 99.7255C18.8664 98.9662 18.4884 98.5939 18.4863 98.5308C18.457 96.848 18.5844 95.8446 18.125 94.1723C17.841 93.1332 18.1626 92.5968 16.682 92.357L17.0432 91.2674C17.9642 91.3852 18.2587 90.9098 18.8455 91.9931C19.3864 92.9902 19.898 94.8118 19.9272 95.9876C19.7017 95.9519 19.4407 96.0045 19.2089 95.9876C19.8562 98.1311 19.2882 100.037 18.8476 102.157L21.3223 101.749C21.1427 100.262 22.6609 98.5812 22.4667 97.275C22.4479 97.1467 21.4497 95.1988 21.3014 94.9611C21.174 94.7571 20.6999 94.9485 20.6498 94.898C20.3052 94.5468 19.9231 91.9363 19.9293 91.2674H19.9272Z" fill="#47200F"/>
<path d="M50.5753 124.315C51.3939 122.235 53.0709 119.349 54.2508 117.304C55.5351 115.081 57.2664 113.125 58.5131 110.88C59.6074 110.573 59.2503 111.76 59.5886 112.33C58.5549 112.197 58.6885 112.235 58.3314 113.047C56.9406 116.194 55.084 119.075 53.7517 122.248C53.1962 123.571 50.0783 132.111 50.5774 132.666C52.6198 131.804 54.4993 130.8 56.7046 130.306C58.6969 129.86 60.5534 129.877 62.4747 129.399C62.4267 129.749 62.5165 130.138 62.4747 130.489C57.6444 131.08 52.9664 132.723 49.5311 136.227C47.5722 145.178 47.8333 154.242 48.8211 163.305C49.0591 164.054 49.9634 163.918 50.5753 163.899C50.2286 164.406 49.6418 164.725 49.0299 164.574C47.708 164.244 48.1716 162.384 46.9708 162.447C45.5862 150.451 46.125 135.636 50.5753 124.315Z" fill="#E18E29"/>
<path d="M117.276 113.783C125.562 113.057 134.843 114.324 143.238 113.783V114.871C141.674 115.375 140.477 116.661 138.98 117.302C134.204 119.347 124.449 119.551 119.602 117.794C119.272 117.674 117.359 116.785 117.276 116.686C117.011 116.377 116.545 114.309 116.914 113.781C117.029 113.76 117.157 113.791 117.276 113.781V113.783Z" fill="#E18E29"/>
<path d="M135.303 119.957C133.399 122.916 129.993 124.599 127.731 127.22C127.614 127.237 127.489 127.21 127.37 127.22C120.764 127.761 119.029 126.358 114.391 122.5L117.995 118.505C123.64 120.935 129.295 120.529 135.301 119.959L135.303 119.957Z" fill="#F5C522"/>
<path d="M135.662 119.957H135.301C135.397 119.81 135.616 119.692 135.662 119.593V119.957Z" fill="#F5C522"/>
<path d="M25.6951 85.0936C26.6662 86.423 27.2655 88.2614 27.8586 89.8138C28.1573 90.5963 28.0507 91.5302 28.6334 92.4852C29.6045 94.0734 31.8035 94.2437 31.1039 97.0771C30.9661 97.1592 30.8512 97.399 30.7426 97.441C28.9174 98.1562 25.0811 98.4886 23.3854 97.4053C21.9632 96.4966 20.9274 91.2168 21.0047 89.452C20.0294 89.1428 19.9292 90.6131 19.925 91.2673C19.5741 91.2336 19.4321 91.4356 19.2045 91.6312L17.7656 90.7267C20.3092 88.0363 21.0214 83.3855 25.6951 85.0936Z" fill="#F3A73E"/>
<path d="M20.2876 113.057L22.0898 117.778C21.574 118.026 21.1772 118.505 20.3858 118.785C16.5703 120.136 13.1141 120.073 9.11075 119.957C8.99798 119.782 8.89983 119.717 8.74947 119.593L6.58594 114.509C6.70706 114.456 6.84907 114.149 6.94722 114.145C7.69067 114.118 8.45919 114.511 9.27573 114.524C13.0097 114.582 16.7583 114.389 20.2876 113.055V113.057Z" fill="#F5C522"/>
<path d="M86.9888 104.704C87.0807 104.951 87.9996 105.125 87.7093 106.52L87.348 106.884C87.2874 106.945 87.0452 106.823 86.9867 106.884C85.5144 108.459 83.9795 110.935 82.3005 112.332C81.6197 112.898 78.9695 114.589 78.2031 114.437C77.5536 114.309 73.7612 109.671 71.4849 108.701C71.2844 107.532 72.0717 108.076 72.7483 107.992C77.6936 107.365 82.3736 106.722 86.9888 104.707V104.704Z" fill="#D5412C"/>
<path d="M55.6207 112.33C55.5435 112.422 55.4558 112.792 55.2595 113.055C55.1362 113.167 54.9859 113.276 54.8982 113.419C54.4304 114.189 53.8665 114.913 53.4551 115.598C53.7934 113.049 51.0848 115.819 50.3205 116.253C43.3433 120.216 32.8661 125.331 25.2123 120.622C24.3331 120.081 23.9259 118.981 22.8086 118.867C23.2931 118.665 24.5043 117.458 24.6108 117.414C24.7382 117.363 25.1183 117.41 25.3313 117.414C25.6216 118.278 26.1353 118.245 26.7744 118.503C26.8767 118.545 27.0291 118.463 27.1357 118.503C27.5638 119.505 29.3075 120.079 30.287 120.232C36.6585 121.232 42.9027 118.508 48.0463 115.237C48.18 115.15 48.2781 114.959 48.4076 114.873C49.6126 114.648 50.9407 114.124 51.6529 113.057C51.7552 113.015 51.9077 113.097 52.0142 113.057L52.3754 112.694C52.7346 112.582 53.121 112.42 53.4572 112.33C54.2153 112.126 54.9128 111.772 55.6207 112.33Z" fill="#E18E29"/>
<path d="M91.3173 113.783C91.4384 113.903 91.5553 114.027 91.6785 114.147C93.51 115.905 94.2973 117.18 96.7261 118.505C96.9704 118.638 97.2273 118.747 97.4466 118.869C100.667 122.067 107.521 124.955 111.507 121.774C111.624 121.759 111.75 121.78 111.869 121.774C112.101 121.762 112.359 121.751 112.589 121.774C112.708 121.787 112.836 121.751 112.95 121.774C113.161 122.277 113.41 123.177 113.671 123.589C111.04 124.115 109.047 124.942 106.264 124.694C99.6894 124.107 91.6284 116.806 87.8172 111.713C87.4392 111.206 87.2784 111.036 86.6289 110.88C86.915 110.615 86.8106 109.46 87.5269 109.793C88.4875 111.436 89.9995 112.498 91.3173 113.785V113.783Z" fill="#E18E29"/>
<path d="M86.9906 106.884C86.6314 108.621 87.7132 109.265 88.6592 110.306C89.3922 111.114 89.8078 111.269 90.2547 111.76C90.6578 112.201 90.781 113.289 91.3156 113.783C89.9979 112.496 88.488 111.431 87.5253 109.791C86.811 109.458 86.9134 110.613 86.6273 110.878C86.4539 111.04 85.8922 111.053 85.6541 111.333C84.7791 112.365 84.9858 116.863 85.2677 118.24C86.1094 122.363 94.185 129.519 97.541 131.678L102.854 134.12C100.513 133.842 101.379 133.726 100.247 133.285C92.8631 130.399 90.2255 126.511 85.8984 120.228C85.6812 119.915 84.7958 119.235 84.4679 118.867C84.8668 127.807 86.644 136.543 88.3481 145.285C88.4587 145.853 88.6864 146.844 88.0682 147.195C85.9757 141.642 84.6997 129.948 84.1045 123.768C83.833 120.96 84.1442 116.972 83.7412 114.509C83.4676 112.843 81.9327 114.078 82.2981 112.33C83.9771 110.933 85.5121 108.457 86.9844 106.882L86.9906 106.884Z" fill="#47200F"/>
<path d="M135.664 119.957C135.996 121.515 135.046 120.813 134.683 121.124C134.543 121.244 133.628 123.381 133.041 123.846C132.523 124.256 131.734 124.134 131.418 124.395C131.103 124.656 131.17 125.548 130.915 125.716C130.637 125.897 129.982 125.63 129.618 125.842C129.09 126.154 129.723 126.934 127.73 127.22C129.992 124.599 133.396 122.916 135.303 119.957H135.664Z" fill="#47200F"/>
<path d="M143.958 113.057C145.075 114.791 143.515 114.57 143.237 114.873C141.297 116.995 140.443 117.468 137.488 118.348C136.972 118.501 135.822 118.428 135.688 118.539C135.517 118.684 135.755 119.399 135.665 119.593C135.619 119.69 135.4 119.807 135.304 119.957C129.298 120.529 123.642 120.935 117.998 118.503C117.872 118.449 117.764 118.205 117.636 118.139L118.355 118.135C118.48 117.643 117.904 117.799 117.492 117.393C117.277 117.18 117.346 116.768 117.277 116.686C117.25 116.654 116.763 116.776 116.546 116.438C116.235 115.954 116.01 115.234 115.832 114.671C115.836 113.882 116.337 113.89 116.916 113.781C116.546 114.309 117.012 116.377 117.277 116.686C117.361 116.785 119.274 117.675 119.604 117.794C124.451 119.551 134.205 119.347 138.981 117.302C140.479 116.661 141.675 115.375 143.237 114.871V113.783C134.846 114.322 125.564 113.055 117.277 113.783V113.057C126.042 113.253 135.187 113.217 143.958 113.057Z" fill="#47200F"/>
<path d="M17.0453 91.2674C16.4752 91.1959 15.3997 91.6376 15.6086 90.7289C15.7255 90.3355 19.6975 85.0137 20.1006 84.7192C21.2408 83.8863 24.2773 83.6843 25.4489 84.3616C25.8979 84.6204 25.6368 85.0053 25.6974 85.0916C21.0236 83.3814 20.3136 88.0343 17.7679 90.7247L19.2068 91.6292C19.0794 91.7386 18.9771 91.8858 18.8455 91.9931C18.2566 90.9098 17.9642 91.3831 17.0432 91.2674H17.0453Z" fill="#D2D2D4"/>
<path d="M114.392 122.5C119.033 126.358 120.766 127.761 127.371 127.22C127.225 128.173 125.96 128.102 125.667 128.411C125.03 129.084 126.158 129.286 124.126 129.761L124.844 128.676C122.963 128.249 121 128.003 119.189 127.29C117.878 126.772 114.373 124.694 113.67 123.587C113.407 123.175 113.16 122.275 112.949 121.772C113.072 121.795 113.21 121.739 113.31 121.772C113.549 121.85 114.156 122.302 114.392 122.498V122.5Z" fill="#47200F"/>
<path d="M123.766 129.763C123.739 130.533 122.043 131.741 121.5 132.02C116.589 134.563 109.801 135.866 104.345 134.961C103.701 134.854 103.002 135.096 103.215 134.12C109.355 134.765 112.836 134.757 118.606 132.372C120.055 131.772 122.382 130.127 123.766 129.761V129.763Z" fill="#47200F"/>
<path d="M22.4526 111.968C22.3649 113.594 23.8121 115.352 24.2548 117.052C23.5991 117.277 22.6865 117.492 22.0913 117.778L20.2891 113.057C20.7944 112.866 21.5609 111.863 22.4526 111.968Z" fill="#EFE3E3"/>
<path d="M11.6344 92.3569C11.6428 92.7587 11.8808 93.0868 11.9957 93.4465C10.1767 93.8041 8.42044 93.8125 6.58687 94.1722C4.40454 94.6014 3.78222 94.7276 2.62109 96.7154V96.3515C2.81949 95.8172 2.60021 95.2177 3.17242 94.5467C4.57161 92.908 9.521 92.4895 11.6344 92.3569Z" fill="#D2D2D4"/>
<path d="M48.0513 115.237C42.9056 118.51 36.6635 121.232 30.2919 120.232C29.3125 120.079 27.5687 119.507 27.1406 118.503C32.4095 120.478 35.5379 120.131 40.8381 118.318L48.0534 115.237H48.0513Z" fill="#47200F"/>
<path d="M111.506 121.772C107.52 124.95 100.663 122.062 97.4453 118.867C100.285 120.443 105.483 122.984 108.781 122.479C109.639 122.348 110.32 121.932 111.506 121.772Z" fill="#47200F"/>
<path d="M117.634 118.142C117.759 118.205 117.867 118.451 117.995 118.505L114.39 122.5C114.154 122.304 113.547 121.852 113.309 121.774L116.188 117.578C116.312 117.483 117.358 118.003 117.634 118.142Z" fill="#D2D2D4"/>
<path d="M91.3176 160.632L88.4336 147.921C89.9205 152.609 91.4116 155.432 91.3176 160.632Z" fill="#47200F"/>
<path d="M16.6826 92.3569C18.1633 92.5967 17.8396 93.1331 18.1257 94.1722C16.7641 93.9787 15.0412 93.1689 13.7986 93.8083C13.738 93.619 13.0865 93.1478 13.0781 92.7187C13.1262 92.7187 13.4958 92.338 13.9531 92.3422C14.7906 92.3506 15.9225 92.2307 16.6847 92.3548L16.6826 92.3569Z" fill="#D2D2D4"/>
<path d="M27.8594 89.8138C29.0226 89.7339 28.6613 91.3136 29.292 92.1866C30.1085 93.3182 31.5265 93.5728 32.0298 95.6174C32.4141 97.176 31.821 96.6544 31.1047 97.0772C31.8043 94.2438 29.6052 94.0734 28.6342 92.4853C28.0515 91.5303 28.158 90.5963 27.8594 89.8138Z" fill="#47200F"/>
<path d="M2.6216 96.7153C1.95542 100.035 2.27912 103.221 2.6216 106.52C1.38948 105.241 1.48137 103.255 1.52522 101.598C1.57952 99.513 1.9763 98.0847 2.6216 96.3514V96.7153Z" fill="#47200F"/>
<path d="M53.457 112.33C54.3091 111.572 55.7793 110.11 56.7128 109.616C57.3748 109.265 57.9512 109.13 57.7841 110.15C57.4541 110.268 55.9756 111.905 55.6206 112.33C54.9126 111.772 54.2172 112.126 53.457 112.33Z" fill="#D5412C"/>
<path d="M6.58607 114.509L8.7496 119.593C8.59924 119.469 7.99988 119.557 7.64486 119.084C7.41932 118.783 5.70896 114.7 5.86559 114.511C6.08695 114.45 6.43779 114.574 6.58607 114.511V114.509Z" fill="#47200F"/>
<path d="M91.6758 114.147L95.6541 116.858L96.7233 118.505C94.2946 117.18 93.5073 115.908 91.6758 114.147Z" fill="#47200F"/>
<path d="M137.825 86.1833L141.678 89.2018C147.233 97.2308 138.067 105.243 131.069 107.887C128.979 108.676 126.861 109.095 124.66 109.437C123.99 109.543 123.2 108.981 123.403 110.153C116.184 110.016 108.954 109.757 101.774 109.059C101.498 99.2039 108.072 91.177 117.079 87.986C123.029 85.8783 131.585 85.4219 137.823 86.1833H137.825Z" fill="#EFE3E3"/>
<path d="M147.923 89.0881C156.258 92.8723 161.103 99.6329 161.259 109.059C156.767 109.755 152.242 109.597 147.729 109.774C146.609 109.818 145.571 110.117 144.318 110.152C144.615 109.014 143.439 109.587 143.278 109.404C142.447 108.449 145.008 103.163 145.315 101.896C145.622 100.63 145.599 98.8525 145.926 97.4285C146.576 94.6161 147.522 91.9468 147.923 89.0881Z" fill="#EFE3E3"/>
<path d="M147.921 89.0881C147.522 91.9468 146.576 94.6161 145.924 97.4285C145.594 98.8525 145.632 100.584 145.312 101.896C144.993 103.209 142.445 108.447 143.276 109.404C143.437 109.589 144.613 109.014 144.316 110.152C137.477 110.34 130.253 110.283 123.403 110.152C123.201 108.981 123.99 109.542 124.661 109.437C126.862 109.092 128.979 108.676 131.07 107.887C138.068 105.243 147.234 97.2328 141.679 89.2017L137.826 86.1832C141.543 86.6376 144.596 87.5799 147.921 89.0881Z" fill="#D2D2D4"/>
<path d="M117.275 113.057C112.593 112.954 107.712 112.597 103.03 112.334C100.82 112.21 97.2056 112.515 95.1632 111.905C94.5513 111.722 94.0668 110.847 95.1089 110.864C96.9466 110.893 99.3733 111.509 101.234 111.6C118.874 112.466 136.938 112.172 154.577 111.589C159.096 111.44 163.634 111.686 168.109 110.88C169.201 111.835 164.68 112.3 164.321 112.328C157.709 112.837 150.603 112.938 143.953 113.057C135.182 113.217 126.037 113.253 117.273 113.057H117.275Z" fill="#D2D2D4"/>
<path d="M167.029 110.155L162.158 110.874H156.215C155.643 110.436 156.213 110.216 156.745 110.15C160.085 109.74 163.702 109.679 167.026 110.157L167.029 110.155Z" fill="#D2D2D4"/>
<path d="M106.816 110.155C107.401 110.605 106.81 110.813 106.283 110.88C105.5 110.981 96.7292 110.817 96.7188 110.336C99.8972 108.899 103.483 110.5 106.816 110.157V110.155Z" fill="#D2D2D4"/>
<path d="M114.031 110.878C118.469 110.996 122.951 110.641 127.376 111.059C122.953 111.37 118.469 111.269 114.031 111.24V110.876V110.878Z" fill="#D2D2D4"/>
<path d="M152.79 110.514C153.341 110.565 154.279 111.215 155.131 110.88V111.24H148.463C148.292 111.24 147.354 110.794 147.561 110.514C149.259 110.626 151.111 110.361 152.788 110.514H152.79Z" fill="#D2D2D4"/>
<path d="M114.028 110.878V111.242C111.879 111.229 109.659 111.402 107.535 111.061C107.518 110.344 112.447 110.479 113.155 110.502C113.621 110.516 113.98 110.878 114.028 110.88V110.878Z" fill="#E18E29"/>
<path d="M133.137 85.0915C132.363 85.0579 131.565 85.1504 130.79 85.0915C128.796 84.9464 130.51 83.5854 131.484 83.6338C132.133 83.6654 133.298 84.2544 133.137 85.0894V85.0915Z" fill="#D2D2D4"/>
<path d="M60.3084 106.884C60.4797 107.62 59.9597 108.444 59.9471 109.063C59.4271 108.47 59.258 107.21 59.5859 106.52C59.7049 106.507 59.8281 106.53 59.9471 106.52L60.3084 106.884Z" fill="#E18E29"/>
<path d="M26.779 118.503C26.14 118.247 25.6262 118.278 25.3359 117.414C26.2089 117.426 26.7811 117.443 26.779 118.503Z" fill="#47200F"/>
<path d="M51.6554 113.057C50.9433 114.124 49.6151 114.648 48.4102 114.873C49.7676 113.972 50.2918 113.621 51.6554 113.057Z" fill="#47200F"/>
<path d="M112.588 121.772C112.358 121.749 112.099 121.76 111.867 121.772L112.304 121.507L112.59 121.772H112.588Z" fill="#47200F"/>
<path d="M87.3516 106.884L87.7128 106.52C87.6523 106.816 87.4518 106.785 87.3516 106.884Z" fill="#47200F"/>
<path d="M32.5462 92.7209C32.377 92.8913 31.9719 92.3843 32.3666 92.357C32.4919 92.3486 32.6276 92.6389 32.5462 92.7209Z" fill="#EFE3E3"/>
<path d="M52.0156 113.057C52.0825 113.032 52.1931 112.75 52.3769 112.693L52.0156 113.057Z" fill="#47200F"/>
<path d="M82.3018 112.33C81.9364 114.078 83.4713 112.843 83.7449 114.509C82.4773 114.361 81.4602 115.945 80.3179 115.935C79.3259 115.926 76.7489 114.599 75.9846 113.791L71.125 108.699C71.2336 108.739 71.386 108.657 71.4863 108.699C73.7626 109.669 77.555 114.307 78.2045 114.435C78.973 114.587 81.621 112.895 82.3018 112.33Z" fill="#8A1A1C"/>
<path d="M62.8347 146.105C62.2354 145.255 62.2186 143.032 62.8347 142.111C62.8222 143.438 62.8159 144.778 62.8347 146.105Z" fill="#8A1A1C"/>
<path d="M11.9951 93.4465C12.0995 93.7747 12.3104 94.2816 12.3564 94.5361C11.1117 94.4162 11.9032 94.8096 11.9638 95.4722C12.0494 96.4335 11.9972 97.378 12.2958 98.3161C10.8716 99.9421 8.38642 99.8643 6.94755 98.1668C6.9204 97.8933 6.24378 96.2484 5.86579 95.9875C5.85743 95.2639 5.33326 94.839 6.58627 94.1722C8.41984 93.8104 10.1741 93.802 11.9951 93.4465Z" fill="#E18E29"/>
<path d="M4.42188 105.068C8.35841 106.099 12.3513 104.351 16.3192 104.345C16.4988 104.479 15.6238 105.323 15.5987 105.43C13.1616 105.76 7.03231 107.26 5.01497 106.093C4.33208 105.697 4.53256 105.195 4.42188 105.068Z" fill="#E18E29"/>
<path d="M30.747 99.6203C28.9427 100.504 26.3865 101.086 24.4569 100.325L24.0768 101.076L22.8155 99.6182C22.8948 99.4836 22.5983 98.9346 23.0306 98.863C23.8763 98.903 24.6532 99.2396 25.5052 99.2711C26.5348 99.309 30.5779 98.7621 30.747 99.6203Z" fill="#E18E29"/>
<path d="M4.60547 95.9875C4.83936 96.1096 4.83936 96.2294 4.60547 96.3514V95.9875Z" fill="#E18E29"/>
<path d="M62.4703 130.489C61.4553 138.958 61.4323 147.538 62.4891 156.019C58.9994 158.36 55.6957 161.124 52.0139 163.175H50.9321V163.901C50.8298 163.924 50.692 163.897 50.5708 163.901C49.959 163.92 49.0526 164.056 48.8166 163.308C47.8268 154.242 47.5657 145.178 49.5267 136.229C52.962 132.725 57.6399 131.082 62.4703 130.491V130.489Z" fill="#D5412C"/>
<path d="M22.8135 118.867C23.9308 118.981 24.338 120.081 25.2172 120.622C32.871 125.331 43.3483 120.216 50.3255 116.253C51.0898 115.817 53.7984 113.049 53.4601 115.598C52.4597 117.269 50.741 121.938 49.9558 122.881C49.3961 123.552 44.5219 126.539 43.4423 127.117C35.0408 131.623 24.2858 134.393 15.9867 128.104C14.9279 127.3 9.21003 121.8 10.1957 120.685C14.2367 121.68 19.0253 120.449 22.8115 118.867H22.8135Z" fill="#D5412C"/>
<path d="M62.4708 129.399C60.5495 129.877 58.693 129.86 56.7007 130.306C54.4975 130.8 52.6179 131.804 50.5735 132.666C50.0743 132.111 53.1902 123.571 53.7477 122.248C55.0801 119.078 56.9367 116.194 58.3275 113.047C58.6867 112.237 58.553 112.197 59.5847 112.33C60.2885 113.516 61.0361 114.233 62.264 114.856L66.7916 111.24C65.0562 117.208 63.304 123.207 62.4687 129.397L62.4708 129.399Z" fill="#D5412C"/>
<path d="M60.3093 106.884L67.5183 108.156C66.5932 108.112 66.6224 109.622 66.4178 109.774C66.376 109.805 65.8518 109.399 65.3799 109.599C64.5779 109.938 62.926 111.633 61.7524 112.33C60.7416 111.509 61.2762 109.225 59.9501 109.425C59.9501 109.305 59.9481 109.183 59.9501 109.061C59.9627 108.442 60.4827 107.618 60.3114 106.882L60.3093 106.884Z" fill="#D5412C"/>
<path d="M59.9492 109.425C61.2753 109.225 60.7407 111.509 61.7515 112.33C61.6241 112.405 61.4925 112.944 61.2127 113.049C60.3084 112.132 59.9534 110.718 59.9492 109.425Z" fill="#E18E29"/>
<path d="M54.9023 113.419C54.988 113.276 55.1404 113.167 55.2636 113.055C55.1613 113.192 55.0297 113.306 54.9023 113.419Z" fill="#D5412C"/>
<path d="M12.3561 94.5361C12.6171 95.9833 13.1705 102.548 12.1263 103.285C10.5267 103.552 6.19335 104.62 4.93198 103.648C3.7458 102.33 3.68106 99.086 5.86339 99.2543L6.58387 101.072C6.50869 100.089 7.04748 99.147 6.94724 98.1668C8.38611 99.8643 10.8712 99.9421 12.2955 98.3161C11.9969 97.378 12.0491 96.4335 11.9635 95.4722C11.905 94.8075 11.1135 94.4162 12.3561 94.5361Z" fill="#F3A73E"/>
<path d="M18.1258 94.1722C18.5852 95.8445 18.4578 96.8458 18.487 98.5307L17.7624 99.6161L17.4032 98.5307L16.689 99.2564L16.6827 98.5286L16.123 99.2774L14.5672 98.8483C14.6883 97.5504 14.4085 96.7048 14.1621 95.6236C14.0368 95.0767 13.9073 94.1365 13.8008 93.8083C15.0413 93.1689 16.7641 93.9766 18.1278 94.1722H18.1258Z" fill="#E18E29"/>
<path d="M14.16 95.6257C14.4064 96.7048 14.6862 97.5504 14.5651 98.8504L16.1209 99.2795L16.6806 98.5306L16.6869 99.2585L17.4011 98.5328L17.7603 99.6181L18.4849 98.5328C18.4849 98.5959 18.865 98.9682 18.8337 99.7275C18.7063 102.729 16.2859 103.005 13.8008 103.253L14.16 95.6278V95.6257ZM14.7009 99.6203V99.9842C14.9348 99.8622 14.9348 99.7423 14.7009 99.6203Z" fill="#F3A73E"/>
<path d="M20.6499 94.898C20.7 94.9485 21.1741 94.7571 21.3015 94.9611C21.4497 95.1988 22.448 97.1466 22.4668 97.2749C22.6631 98.5812 21.1428 100.262 21.3224 101.749L18.8477 102.157C19.2883 100.037 19.8563 98.1311 19.2089 95.9876C19.4407 96.0023 19.7018 95.9497 19.9273 95.9876C19.9816 95.996 20.013 96.4209 20.2824 96.3515L20.6499 94.898Z" fill="#2C2523"/>
<path d="M19.9276 91.2674C19.9234 91.9363 20.3035 94.5467 20.6481 94.898L20.2805 96.3515C20.0132 96.4188 19.9819 95.996 19.9255 95.9876C19.8963 94.8118 19.3846 92.9902 18.8438 91.9931C18.9753 91.8858 19.0756 91.7386 19.205 91.6292C19.4348 91.4336 19.5768 91.2316 19.9255 91.2653L19.9276 91.2674Z" fill="#D5412C"/>
<path d="M14.6992 99.6204C14.9331 99.7424 14.9331 99.8623 14.6992 99.9843V99.6204Z" fill="#E18E29"/>
<path d="M56.7005 58.2195C59.8873 52.9208 62.5521 45.8909 61.6541 39.612C61.3554 37.5212 60.046 35.8678 59.5824 33.8906C62.7191 33.7012 66.0208 32.9629 69.1429 32.8031C70.7927 32.7189 74.8671 32.5296 76.2621 32.8872C77.7177 33.2616 79.6264 35.994 80.8502 36.9743C79.1983 38.1754 76.9638 38.2427 75.8089 40.0622H82.1178C82.5 40.0622 84.5862 41.0908 85.0206 41.4968C86.9001 43.2532 88.8172 46.9322 90.231 49.1408C87.3324 49.0861 90.8179 51.3306 91.3128 51.848C91.837 52.3949 92.0521 52.7967 92.7538 53.4993C94.3284 55.0727 96.1703 59.3743 97.1435 61.6082C98.7766 65.3566 100.199 69.3427 101.237 73.2973C97.8222 81.1223 93.7812 88.6485 89.9616 96.2758C89.7027 96.7911 89.6923 97.439 89.5085 97.8071C89.4604 97.9039 89.5565 98.0743 89.5085 98.171L89.1472 98.5349C89.0261 98.7747 88.9091 99.0271 88.7859 99.2606C88.3703 100.056 87.2071 102.399 86.7957 102.885C85.1647 104.805 75.7922 106.377 73.1003 106.522C66.19 106.894 59.8268 104.942 53.4531 102.893C62.6022 104.05 74.0818 102.199 76.8865 91.9994C71.6155 93.861 67.3845 94.553 61.9819 92.6494C61.5037 92.4811 61.2197 92.0772 61.0234 91.9973C73.7226 94.4331 90.0953 86.2611 91.9853 72.5232C92.2463 70.6259 91.9706 69.0461 92.0312 67.3023C92.1294 64.4921 92.7872 61.8732 91.9957 58.9831L89.8698 58.5876L90.229 59.6709H89.1493L89.166 58.2426L90.7949 57.8829L90.9515 56.0424L85.5448 54.9507C85.338 53.9368 85.9123 54.2418 86.6245 54.225L85.9019 50.954C84.7324 50.6154 84.9371 51.4673 84.5654 51.684C82.5689 52.8451 82.1805 50.3251 82.2953 48.779C82.5522 48.5161 85.0164 49.2649 85.1793 48.4193C83.9806 48.718 84.0704 47.6537 83.2936 47.2372C81.8484 46.4589 79.5658 46.6145 77.9662 46.5998L77.7845 45.1526C76.6526 44.9086 76.7863 45.9877 76.0658 46.3579C75.9217 46.4315 73.0168 46.562 72.8455 46.5241C71.4443 46.2212 69.2202 43.5245 68.4245 43.697L67.4889 46.2233L66.4322 46.2422C67.2362 43.0113 63.5545 43.0807 63.1807 40.4303C62.6627 39.9065 62.5291 40.4661 62.4644 40.9667C62.3077 42.2035 62.5792 43.615 62.4205 44.9233C62.1239 47.376 61.3805 50.7773 60.3154 52.6831C59.2504 54.5889 57.8888 57.1194 57.0555 58.9494L56.6942 58.2237L56.7005 58.2195ZM84.0997 50.5943H83.3833V51.3158H84.0997V50.5943Z" fill="#E18E29"/>
<path d="M122.681 68.3878C120.887 71.2549 119.414 73.3731 117.272 76.0151L115.286 76.0214C112.874 67.3382 110.021 58.6171 105.922 50.586C102.933 44.7341 98.9215 39.7236 95.2773 34.2545L109.509 37.5296C115.417 47.0858 119.214 57.7273 122.681 68.3878Z" fill="#F5C522"/>
<path d="M61.0294 91.9931C61.2257 92.073 61.5076 92.4769 61.9879 92.6452C67.3905 94.5488 71.6215 93.8568 76.8925 91.9952C74.0878 102.193 62.6082 104.044 53.4591 102.889C51.2831 102.189 49.0673 101.652 46.9685 100.71H46.6072V100.346C43.2534 97.6557 40.4508 95.1778 37.9531 91.6292C42.7146 90.9287 47.4029 87.479 50.2117 83.6401C52.9141 87.8471 56.5415 90.1525 61.0273 91.9931H61.0294ZM54.1775 95.9918C52.6384 95.7268 51.0721 95.4723 49.579 94.9927C47.8435 94.4352 46.7931 93.5812 45.1684 93.0848C46.0288 96.3242 49.2741 96.8984 52.1936 96.7091C52.6133 96.6818 54.1274 96.5703 54.1775 95.9918Z" fill="#F3A73E"/>
<path d="M125.207 29.1661C125.244 29.2629 126.103 29.631 125.927 30.2557C124.037 30.3966 125.353 30.1968 124.578 29.9149C122.097 29.0062 119.769 28.4572 117.275 27.7147C95.3705 21.1918 72.2713 21.0508 49.8529 25.1716C48.6437 25.3945 47.4199 25.4829 46.2484 25.8973L44.0869 36.4273C44.7573 37.092 48.3221 35.1884 49.1345 34.9759C70.7384 29.3154 94.3827 31.7113 115.475 38.2448C117.129 38.7559 118.929 39.164 120.623 39.7782C123.503 40.8215 126.299 42.2666 129.175 43.3289C129.175 43.6928 129.173 44.0546 129.175 44.4185C126.24 43.0659 123.108 42.2161 120.09 41.1097C118.474 40.5165 116.651 39.5174 114.752 38.9705C113.577 38.6318 112.422 38.1143 111.148 38.2469C110.469 38.8653 113.479 41.9027 113.671 42.2393C115.692 45.7773 118.223 51.7365 119.679 55.6175C120.708 58.3583 121.642 63.3225 122.782 65.5648C123.114 66.219 123.338 66.5388 124.127 66.5703C123.933 66.9216 123.106 67.7125 122.684 68.3856C119.217 57.7252 115.421 47.0836 109.513 37.5275L95.2807 34.2523C98.9228 39.7214 102.937 44.7319 105.925 50.5838C110.024 58.6128 112.875 67.336 115.289 76.0192L117.275 76.0129C116.085 77.4811 116.118 76.7302 115.44 77.3423C115.055 77.6893 114.583 79.1365 114.003 79.7991C113.138 80.7836 109.818 83.0238 108.623 83.6401C109.256 81.0381 114.366 80.2325 114.306 77.3928C114.289 76.6145 113.909 75.1715 113.733 74.3154C112.09 66.2464 107.819 58.0575 104.296 50.954C101.782 45.8867 99.3802 40.3693 95.7798 35.7458C95.3998 35.2557 94.6208 34.9212 94.3075 34.2334C89.4981 33.1775 84.5612 33.0639 79.6557 32.8556L79.0605 33.697C80.5036 34.856 81.4976 36.5704 82.6629 37.8787C82.2661 37.6074 81.9967 37.4938 81.4976 37.5779C81.2574 37.6179 79.1754 38.2553 79.4218 38.7811C79.9293 39.8686 82.3726 38.8863 83.208 39.6856L82.6629 37.8787C87.5684 43.3836 91.1834 48.8526 95.2828 54.5846C97.6134 57.8429 99.7728 64.8581 100.871 68.7474C102.08 73.0217 103.753 77.3318 104.628 81.667C105.207 84.5278 103.739 85.5522 107.901 83.9998C107.47 85.8719 105.984 85.5017 104.758 86.1117C104.332 86.3242 103.964 86.7386 103.574 86.9068C104.357 83.3519 102.767 79.1534 101.953 75.6511C98.9479 80.3755 97.0496 86.1559 94.199 90.9014C93.6664 91.789 91.2815 94.4226 90.6968 95.7162C90.3564 96.4672 91.0163 97.8323 89.5127 97.8029C89.6965 97.4348 89.7069 96.7869 89.9659 96.2716C93.7855 88.6464 97.8243 81.118 101.241 73.2931C100.203 69.3385 98.7808 65.3524 97.1477 61.604C96.1766 59.3722 94.3326 55.0684 92.758 53.495C92.5157 51.7491 91.0476 50.4113 90.2332 49.1366C88.8215 46.9258 86.9044 43.2468 85.0227 41.4925C84.5884 41.0866 82.5021 40.058 82.1199 40.058H75.811C76.9659 38.2384 79.2004 38.1711 80.8523 36.97C79.6306 35.9898 77.7198 33.2553 76.2642 32.883C74.8692 32.5254 70.7948 32.7147 69.145 32.7988C66.025 32.9587 62.7213 33.697 59.5846 33.8863C60.0482 35.8657 61.3555 37.519 61.6562 39.6078C62.5542 45.8867 59.8895 52.9166 56.7026 58.2153C56.4165 58.6885 56.0072 59.105 55.8046 59.6646C51.0787 57.0731 44.6633 56.5766 42.0925 62.2035C40.1608 66.4357 41.1883 69.4605 44.4419 72.378C42.9634 73.5476 42.5582 70.7415 41.6937 70.5943C39.7202 71.5345 34.0649 72.8682 32.1896 72.1803C31.7782 72.0289 31.4482 71.5409 31.1016 71.2905C31.3417 71.2905 31.5819 71.2905 31.822 71.2905C35.2762 71.2905 37.9472 71.2148 41.1966 69.8328C38.2395 60.1841 46.7579 53.3015 55.5854 58.5581L58.1394 53.4971C53.7414 54.0251 47.8752 55.0748 44.2644 51.6755C43.1931 50.6679 43.404 49.4921 42.2805 49.1324C42.7191 48.2637 44.3918 49.8939 45.0267 50.182C48.604 51.808 54.0337 53.5119 57.964 52.7714C59.3715 52.5064 60.825 46.7597 60.99 45.2872C61.7356 38.6108 60.0356 34.2776 52.7348 35.3377C48.6019 35.9393 47.209 36.989 44.4419 40.058C44.1746 39.5279 43.521 38.9726 43.4562 38.3836C43.0615 34.734 44.208 31.2233 45.365 27.7273C45.5383 27.2057 45.3963 26.5746 45.5279 26.1518C45.6594 25.729 46.1962 25.9457 46.2421 25.8931C46.4823 25.628 45.8035 25.6596 46.9626 25.1674C48.0297 24.713 49.4456 24.2986 50.5671 24.0778C65.0769 21.2233 82.901 20.9225 97.5675 22.6768C106.975 23.8022 116.248 26.1665 125.2 29.1619L125.207 29.1661Z" fill="#47200F"/>
<path d="M104.296 50.9562C107.822 58.0597 112.09 66.2464 113.734 74.3175C113.909 75.1736 114.289 76.6166 114.306 77.3949C114.366 80.2346 109.256 81.0403 108.623 83.6423C108.39 83.7622 108.147 83.9136 107.903 84.0062C103.741 85.5585 105.209 84.5341 104.631 81.6734C103.756 77.3381 102.083 73.0281 100.874 68.7538C99.773 64.8644 97.6137 57.8493 95.2852 54.591L104.298 50.9604L104.296 50.9562Z" fill="#8A1A1C"/>
<path d="M96.7232 4.8351C97.404 5.63232 98.6132 5.81322 99.6072 5.92471C99.8746 6.08247 100.106 6.16661 100.328 6.28861C101.919 7.16156 103.262 7.90409 105.014 8.46782C105.123 8.50358 105.262 8.43627 105.375 8.46782C105.618 9.3555 106.294 9.27977 106.818 9.55743C107.065 9.68995 107.284 9.80144 107.539 9.92133C108.28 11.1624 110.563 11.6798 110.598 13.1944C106.749 12.475 102.903 11.5621 99.0142 11.0614C86.7931 9.49433 72.1601 9.39126 59.9453 11.0109C60.4444 9.49012 63.1154 7.85781 64.5146 7.07952C66.2375 6.12033 69.18 5.45563 70.4038 4.65841C70.575 4.54692 70.8736 4.19143 70.7609 4.11361C70.0634 4.1683 69.2719 4.02105 68.5973 4.1094L69.6791 3.3837C80.2817 1.4548 86.4757 2.41399 96.7212 4.83721L96.7232 4.8351Z" fill="#D5412C"/>
<path d="M114.75 38.9727C116.65 39.5196 118.473 40.5187 120.088 41.1119C123.103 42.2183 126.236 43.066 129.172 44.4207C129.174 44.7846 129.172 45.1464 129.172 45.5103C129.172 45.7522 129.174 45.9941 129.172 46.236C129.159 47.4434 129.193 48.6613 129.172 49.8666C128.629 49.9171 128.629 50.9057 129.172 50.9562C129.159 51.318 129.197 51.6861 129.172 52.0458L125.927 62.578C125.686 62.8935 125.701 63.3584 125.565 63.6676C125.411 64.021 125.052 64.7088 124.845 65.1211C124.621 65.5691 124.327 66.2044 124.124 66.5746C123.335 66.541 123.111 66.2233 122.779 65.5691C121.641 63.3268 120.706 58.3626 119.676 55.6218C118.221 51.7408 115.689 45.7816 113.668 42.2436C113.958 41.0572 115.021 40.3357 114.75 38.9748V38.9727Z" fill="#8A1A1C"/>
<path d="M117.275 27.7147C119.768 28.4573 122.097 29.0063 124.578 29.915C125.353 30.1989 124.037 30.3967 125.927 30.2557C126.031 30.2473 126.19 30.2305 126.288 30.2557L128.452 36.7934C128.475 37.0311 128.433 37.2814 128.452 37.5191C128.498 38.0954 128.663 38.636 129.172 38.9726C129.208 39.1956 129.162 39.4627 129.172 39.6983C128.629 39.7488 128.629 40.7374 129.172 40.7879C129.174 41.6335 129.168 42.4833 129.172 43.331C126.297 42.2688 123.5 40.8237 120.62 39.7803C118.927 39.1661 117.125 38.7601 115.473 38.2469C116.69 34.8708 117.16 31.3033 117.275 27.7147Z" fill="#8A1A1C"/>
<path d="M52.7381 35.3398C40.941 43.4951 34.5298 57.4664 31.8254 71.2927C31.5852 71.2927 31.345 71.2927 31.1049 71.2927C30.6976 70.9982 30.2403 70.8404 29.8164 70.5754L29.7266 70.1105C31.6249 59.5825 36.6265 49.7109 43.3635 41.5136L43.7248 40.7879C43.8939 40.588 44.2009 40.3335 44.4452 40.0622C47.2123 36.9932 48.6032 35.9414 52.7381 35.3419V35.3398Z" fill="#D2D2D4"/>
<path d="M61.0295 91.9931C56.5437 90.1525 52.9141 87.8471 50.2139 83.6401C50.0761 83.4277 50.1993 82.7819 49.673 82.5568C46.8371 85.4954 42.911 89.1092 38.6758 89.4499L44.3289 86.423C44.8594 85.3524 45.9411 85.0768 46.7535 84.3322C47.7392 83.4319 47.7726 81.9678 49.9842 81.869C53.4174 86.6965 57.8155 91.2 64.0806 91.6397C68.4953 91.951 72.7347 90.6616 76.8947 89.4436L76.5313 88.7242C84.3563 86.8753 90.093 79.4731 91.3147 71.6544L90.5942 72.7462L89.4979 72.5211C88.8672 74.3953 86.3444 75.8677 84.5443 76.6334C80.1922 78.4845 72.6261 78.1584 68.1591 76.6376C66.6722 76.1307 62.4078 73.1374 61.9358 73.1227C61.3051 73.1016 59.505 74.3658 58.4525 74.6856C54.5389 75.8761 48.3469 75.5438 45.1664 73.1059C45.7824 73.1374 46.3839 73.2846 46.9686 73.4698C52.3628 75.1757 57.3582 75.1925 62.2428 72.1004C64.2894 73.7032 66.052 75.0137 68.5997 75.8341C77.5191 78.7011 88.792 77.3633 92.0373 67.296C91.9767 69.0398 92.2524 70.6195 91.9913 72.5169C90.1014 86.2547 73.7287 94.4247 61.0295 91.991V91.9931Z" fill="#47200F"/>
<path d="M114.39 15.0033H114.752L115.113 15.3672C115.301 15.9709 115.823 16.1329 116.195 16.4568C116.445 16.6756 116.969 17.2393 117.276 17.5464C117.398 17.6663 117.517 17.7883 117.638 17.9103L117.999 18.2742C118.118 18.3962 118.243 18.514 118.36 18.6381C118.803 19.1135 119.066 19.8245 119.803 20.0916C121.733 23.676 123.502 24.7361 125.212 29.1703C116.259 26.1749 106.987 23.8106 97.5791 22.6852C82.9126 20.9309 65.0886 21.2317 50.5787 24.0862C50.562 23.148 50.8857 21.0445 52.0218 21.1813C51.7649 21.8628 51.98 22.62 50.9421 23.1796C53.2936 23.4888 55.8539 22.8577 58.2346 22.5338C80.5006 19.5048 99.0556 21.0424 120.066 26.9722C121.044 27.2477 122.692 27.4139 123.769 27.7147C123.986 27.132 123.621 26.9322 123.496 26.6671C121.921 23.3647 118.809 20.2957 116.667 18.188C116.449 17.9734 116.568 17.376 116.193 17.0206C115.244 16.1266 113.421 15.8447 112.296 15.4871C103.836 12.7925 90.9403 11.4505 81.4216 11.358C74.058 11.2864 66.8553 12.0795 59.5941 12.4623C60.1517 12.01 61.2732 11.8586 61.9832 11.7808C79.3499 9.85187 97.4392 10.9141 114.399 15.0054L114.39 15.0033Z" fill="#F3A73E"/>
<path d="M59.9479 11.0088C72.1626 9.39122 86.7957 9.49218 99.0167 11.0593C102.905 11.5578 106.752 12.4728 110.601 13.1922C110.565 11.6777 108.283 11.1603 107.541 9.91919C109.112 10.6554 110.338 10.8721 111.507 12.2793C111.835 12.6727 111.864 13.3647 112.232 13.7265C113.025 14.5069 114.556 13.7349 114.391 15.0033C97.4338 10.912 79.3445 9.84978 61.9757 11.7787C61.2656 11.8565 60.1463 12.008 59.5866 12.4602C59.3464 12.4728 59.1042 12.4518 58.8661 12.4602C58.5069 12.4728 58.1436 12.4392 57.7844 12.4602C56.6754 12.5275 55.6522 12.883 54.5391 12.8241C54.8565 12.5759 55.5477 11.7597 55.6208 11.7345C56.1032 11.5599 59.1606 11.1119 59.9479 11.0088Z" fill="#47200F"/>
<path d="M57.7825 12.4623L57.4212 13.188C56.8093 13.1964 56.9764 13.2848 56.7007 13.5519C56.4647 13.7812 56.3144 13.9032 56.3394 14.2776C54.3597 16.8291 53.1756 18.0997 52.0124 21.1771C50.8784 21.0403 50.5547 23.1438 50.5693 24.082C49.4458 24.3028 48.032 24.7172 46.9648 25.1716C48.5457 20.8573 50.8784 15.7017 54.5372 12.8241C55.6503 12.8851 56.6736 12.5296 57.7825 12.4602V12.4623Z" fill="#D2D2D4"/>
<path d="M44.4434 72.3823C41.1898 69.4648 40.1623 66.4378 42.094 62.2077C44.6627 56.5788 51.0802 57.0773 55.8061 59.6688C56.0087 59.1093 56.418 58.6928 56.7041 58.2195L57.0654 58.9452C56.9192 59.265 57.2178 60.058 56.5266 60.3903C45.8886 54.8287 37.5393 65.3588 46.9703 73.4719C46.3856 73.2868 45.7841 73.1396 45.1681 73.108C44.9028 72.9061 44.6961 72.6053 44.4476 72.3823H44.4434Z" fill="#D2D2D4"/>
<path d="M50.2126 83.6402C47.4038 87.479 42.7154 90.9309 37.954 91.6292C37.1604 91.7449 36.206 91.4168 35.4292 91.9931C35.4041 91.9637 34.9426 92.0625 34.7003 91.7386C34.479 91.4441 33.2802 89.5846 33.2656 89.45C34.7484 89.4227 36.5986 90.4323 37.9519 89.45C38.1879 89.4542 38.4385 89.4689 38.6724 89.45C42.9075 89.1092 46.8336 85.4976 49.6696 82.5569C50.1959 82.782 50.0727 83.4256 50.2105 83.6402H50.2126Z" fill="#E18E29"/>
<path d="M68.6002 4.10939C69.2747 4.02105 70.0662 4.16829 70.7637 4.1136C70.8765 4.19143 70.5799 4.54692 70.4066 4.6584C69.1828 5.45352 66.2404 6.12033 64.5175 7.07952C63.1183 7.85781 60.4473 9.49011 59.9482 11.0109C59.1608 11.1161 56.1035 11.5642 55.6211 11.7366V11.3727C55.9156 11.2402 55.903 10.7312 55.9824 10.647C57.5236 8.98317 66.3302 4.40599 68.6023 4.10939H68.6002Z" fill="#E18E29"/>
<path d="M37.9524 91.6313C40.448 95.1778 43.2526 97.6557 46.6065 100.348H45.8861C41.8075 98.3183 38.274 95.3861 35.4297 91.9953C36.2066 91.421 37.1588 91.7491 37.9545 91.6313H37.9524Z" fill="#D2D2D4"/>
<path d="M103.572 86.909C103.472 86.9531 103.315 86.8669 103.211 86.909L102.849 87.2729C102.743 87.3128 102.597 87.235 102.488 87.2729C101.774 87.5274 101.099 87.9123 100.325 87.9986C101.237 87.195 102.979 86.4336 103.202 85.264C103.63 83.0133 101.747 80.2157 102.127 77.8324C101.097 76.6482 99.7441 81.3705 99.5102 81.9111C98.8398 83.4529 98.6686 84.0104 98.1527 85.5417C98.0379 85.8804 95.7156 87.8871 95.9934 89.2649L100.325 87.9986C99.9884 88.2952 99.6919 88.8315 99.2429 89.0882C97.5868 89.7192 95.9621 90.6195 94.1953 90.9035C97.0459 86.158 98.9442 80.3776 101.949 75.6532C102.764 79.1576 104.353 83.3541 103.57 86.909H103.572Z" fill="#F3A73E"/>
<path d="M69.682 3.38162L68.6002 4.10732C66.3281 4.40392 57.5215 8.9811 55.9803 10.645C55.9009 10.7312 55.9135 11.2381 55.619 11.3707L55.2891 10.6681C55.4875 10.5713 55.9218 10.7018 55.9803 10.6429C60.0254 6.55578 63.7427 4.45861 69.682 3.37952V3.38162Z" fill="#47200F"/>
<path d="M125.926 62.5779L129.171 52.0458C128.937 55.3882 128.223 58.1922 127.064 61.36C126.82 62.0247 126.957 62.6284 125.928 62.5758L125.926 62.5779Z" fill="#47200F"/>
<path d="M128.453 36.7934L126.289 30.2557C127.045 30.4472 128.534 34.8203 128.678 35.7185C128.816 36.5662 128.446 36.7366 128.453 36.7913V36.7934Z" fill="#47200F"/>
<path d="M105.014 8.46571C103.262 7.90198 101.919 7.15945 100.328 6.2865L103.935 7.1931L105.016 8.46571H105.014Z" fill="#47200F"/>
<path d="M31.8235 91.991C30.1591 91.8101 29.9127 89.5846 29.3008 88.3646C29.8625 87.8008 32.2349 91.5535 31.8235 91.991Z" fill="#EFE3E3"/>
<path d="M37.9546 89.4521C36.6013 90.4345 34.7489 89.4248 33.2683 89.4521C33.0135 87.2014 35.4924 89.2313 36.0563 89.3785C36.6786 89.5405 37.3281 89.4395 37.9546 89.4521Z" fill="#47200F"/>
<path d="M102.491 87.2728C102.205 88.9998 100.399 88.6506 99.2461 89.0881C99.6951 88.8315 99.9916 88.2951 100.328 87.9985C101.101 87.9123 101.777 87.5273 102.491 87.2728Z" fill="#47200F"/>
<path d="M99.6067 5.92469C98.6126 5.8132 97.4035 5.6323 96.7227 4.83508C97.2113 4.95077 97.8462 4.76987 98.5395 4.99705C99.2767 5.23895 99.4166 5.8111 99.6067 5.92469Z" fill="#47200F"/>
<path d="M106.818 9.5553C106.294 9.27764 105.617 9.35337 105.375 8.4657C106.054 8.65712 106.841 8.27007 106.818 9.5553Z" fill="#47200F"/>
<path d="M125.568 63.6675L125.812 63.8337L125.508 65.0705L124.848 65.1189C125.054 64.7066 125.414 64.0209 125.568 63.6654V63.6675Z" fill="#47200F"/>
<path d="M129.173 40.7878C128.63 40.7374 128.63 39.7487 129.173 39.6982C129.175 39.7592 129.505 39.9401 129.511 40.2409L129.173 40.7878Z" fill="#47200F"/>
<path d="M116.191 16.4569L117.252 16.4779L117.273 17.5465C116.966 17.2394 116.442 16.6757 116.191 16.4569Z" fill="#47200F"/>
<path d="M118.355 18.6361C120.371 18.9222 119.502 19.5406 119.799 20.0896C119.061 19.8246 118.798 19.1136 118.355 18.6361Z" fill="#47200F"/>
<path d="M129.173 50.9562C128.63 50.9057 128.63 49.9171 129.173 49.8666C129.167 50.1821 129.187 50.485 129.173 50.9562Z" fill="#47200F"/>
<path d="M128.453 37.519H129.174C129.232 37.986 129.105 38.5224 129.174 38.9726C128.664 38.636 128.499 38.0975 128.453 37.519Z" fill="#47200F"/>
<path d="M129.172 45.5082H129.89L129.894 46.0488L129.172 46.2339C129.174 45.992 129.172 45.7501 129.172 45.5082Z" fill="#47200F"/>
<path d="M43.3633 41.5137C43.3988 41.4716 43.4155 41.1477 43.7246 40.788L43.3633 41.5137Z" fill="#47200F"/>
<path d="M46.6072 100.346V100.71C46.2438 100.786 46.058 100.432 45.8867 100.346H46.6072Z" fill="#47200F"/>
<path d="M102.852 87.2728L103.213 86.9089C103.156 86.9321 103.052 87.1992 102.852 87.2728Z" fill="#47200F"/>
<path d="M89.1523 98.5308L89.5136 98.1669C89.3967 98.4004 89.1711 98.4929 89.1523 98.5308Z" fill="#47200F"/>
<path d="M117.994 18.2722L117.633 17.9083C117.754 18.0282 117.873 18.1502 117.994 18.2722Z" fill="#47200F"/>
<path d="M57.0632 58.9452C57.8964 57.1151 59.3082 54.4942 60.3231 52.6789C61.3882 50.7731 62.1316 47.3718 62.4282 44.9191C62.5869 43.6107 62.3133 42.1993 62.472 40.9624C62.5368 40.4597 62.6704 39.9002 63.1883 40.4261C63.5621 43.0764 67.2439 43.007 66.4399 46.238L67.4966 46.2191L68.4322 43.6928C69.2278 43.5182 71.454 46.2149 72.8532 46.5199C73.0244 46.5577 75.9293 46.4273 76.0734 46.3537C76.7939 45.9835 76.6603 44.9044 77.7921 45.1484L77.9738 46.5956C79.5735 46.6103 81.8561 46.4568 83.3012 47.2329C84.0781 47.6515 83.9883 48.7138 85.187 48.4151C85.0241 49.2607 82.5598 48.5119 82.303 48.7748C82.186 50.3209 82.5765 52.8408 84.573 51.6797C84.9447 51.4631 84.7401 50.6111 85.9096 50.9498L86.6321 54.2207C85.92 54.2376 85.3457 53.9325 85.5524 54.9464L90.9592 56.0381L90.8026 57.8787L89.1736 58.2384L89.1569 59.6688H90.2366L89.8774 58.5834L92.0034 58.9788C92.7928 61.869 92.1349 64.4878 92.0389 67.2981C88.7936 77.3654 77.5207 78.7032 68.6013 75.8362C66.0535 75.0179 64.293 73.7053 62.2444 72.1025C57.3618 75.1946 52.3644 75.1778 46.9702 73.4718C37.5392 65.3587 45.8884 54.8286 56.5265 60.3903C57.2177 60.0579 56.9191 59.267 57.0653 58.9452H57.0632ZM81.2191 48.4109C79.0639 46.4483 75.5952 47.0058 72.9284 47.3297L74.7264 48.23C73.5549 50.5018 72.306 52.5274 70.4036 54.2228C73.0036 53.5707 74.9562 50.3734 76.2447 48.129L81.2191 48.4109ZM85.9054 58.5876C81.1168 58.7958 76.7187 58.819 72.2142 56.9426C70.6249 56.28 69.4387 55.182 67.8829 54.5909C69.113 60.1652 76.0233 60.3524 80.6365 59.9927L85.9054 58.5876Z" fill="#F3A73E"/>
<path d="M90.2315 49.1409C91.0459 50.4156 92.514 51.7513 92.7563 53.4993C92.0546 52.7988 91.8374 52.3971 91.3153 51.8481C90.8204 51.3306 87.3349 49.0862 90.2335 49.1409H90.2315Z" fill="#F3A73E"/>
<path d="M84.103 50.5944H83.3867V51.3159H84.103V50.5944Z" fill="#F3A73E"/>
<path d="M54.1771 95.9919C54.127 96.5682 52.6129 96.6818 52.1932 96.7091C49.2716 96.8985 46.0284 96.3242 45.168 93.0848C46.7927 93.5834 47.8431 94.4353 49.5786 94.9927C51.0717 95.4723 52.638 95.7268 54.1771 95.9919Z" fill="#47200F"/>
<path d="M117.274 27.7147C117.157 31.3033 116.687 34.8708 115.471 38.2469C94.379 31.7135 70.7347 29.3176 49.1307 34.9781L46.9609 34.4164C47.7712 31.2949 48.4478 28.0892 49.8533 25.1716C72.2717 21.0509 95.371 21.1918 117.276 27.7147H117.274Z" fill="#D5412C"/>
<path d="M52.737 35.3399C60.0357 34.2776 61.7356 38.6129 60.9922 45.2894C60.8272 46.7618 59.3737 52.5086 57.9662 52.7736C54.0359 53.5161 48.6083 51.8102 45.0289 50.1842C44.3961 49.896 42.7233 48.2658 42.2827 49.1346C43.4062 49.4943 43.1953 50.6701 44.2666 51.6777C47.8794 55.0769 53.7435 54.0273 58.1416 53.4993L55.5875 58.5603C46.7601 53.3037 38.2417 60.1863 41.1988 69.835C37.9493 71.217 35.2783 71.2906 31.8242 71.2927C34.5265 57.4665 40.9399 43.4951 52.737 35.3399ZM55.2576 41.8817C53.2507 41.3643 49.9323 40.2642 48.4099 41.8733L49.4812 42.4097L46.6076 46.9574C47.608 47.7757 50.2497 43.0134 50.9326 42.4202L55.2597 41.8817H55.2576Z" fill="#F3A73E"/>
<path d="M82.661 37.883C81.4957 36.5746 80.4996 34.8603 79.0586 33.7013L79.6538 32.8599C84.5593 33.0681 89.4962 33.1817 94.3056 34.2376C94.6189 34.9255 95.3978 35.262 95.7779 35.7501C99.3782 40.3756 101.78 45.8931 104.294 50.9583L95.2809 54.5889C91.1835 48.859 87.5665 43.3899 82.661 37.883Z" fill="#D5412C"/>
<path d="M49.8521 25.1716C48.4467 28.0892 47.7701 31.2949 46.9598 34.4165L49.1296 34.9781C48.3193 35.1905 44.7524 37.0942 44.082 36.4295L46.2435 25.8994C47.415 25.4851 48.6409 25.3946 49.848 25.1737L49.8521 25.1716Z" fill="#E18E29"/>
<path d="M114.75 38.9726C115.024 40.3336 113.959 41.0551 113.669 42.2414C113.476 41.9049 110.469 38.8674 111.146 38.249C112.418 38.1165 113.575 38.634 114.75 38.9726Z" fill="#D5412C"/>
<path d="M82.6637 37.883L83.2087 39.6899C82.3734 38.8885 79.93 39.8708 79.4226 38.7854C79.1761 38.2595 81.2582 37.6201 81.4984 37.5822C81.9975 37.5002 82.2669 37.6116 82.6637 37.883Z" fill="#2C2523"/>
<path d="M61.3864 105.798H60.668V106.154H61.3864V105.798Z" fill="#2C2523"/>
<path d="M59.5856 12.4624C66.8468 12.0795 74.0495 11.2865 81.4131 11.358C90.9318 11.4506 103.825 12.7926 112.287 15.4872C113.413 15.8448 115.236 16.1288 116.184 17.0206C116.56 17.374 116.441 17.9735 116.658 18.1881C118.801 20.2958 121.912 23.3648 123.487 26.6672C123.612 26.9302 123.978 27.1321 123.761 27.7148C122.683 27.414 121.035 27.2478 120.058 26.9722C99.0471 21.0425 80.4921 19.5049 58.2261 22.5339C55.8454 22.8578 53.2851 23.4889 50.9336 23.1796C51.9715 22.6201 51.7564 21.8608 52.0133 21.1813C53.1765 18.1039 54.3606 16.8334 56.3403 14.2819C56.5199 14.0505 56.7309 13.9012 56.7016 13.5562C56.9773 13.289 56.8123 13.2007 57.4221 13.1923C57.4931 13.1923 57.7625 13.7097 58.0904 13.5225L58.8651 12.4666C59.1053 12.4582 59.3476 12.4792 59.5856 12.4666V12.4624Z" fill="#F5C522"/>
<path d="M58.8649 12.4623L58.0901 13.5183C57.7623 13.7076 57.4929 13.188 57.4219 13.188L57.7832 12.4623C58.1403 12.4413 58.5057 12.4749 58.8649 12.4623Z" fill="#F3A73E"/>
<path d="M56.3426 14.2777C56.3175 13.9033 56.4679 13.7792 56.7038 13.552C56.7352 13.897 56.5222 14.0463 56.3426 14.2777Z" fill="#F3A73E"/>
<path d="M100.327 87.9986L95.9957 89.2649C95.718 87.8871 98.0402 85.8804 98.1551 85.5417C98.6709 84.0125 98.8421 83.4529 99.5125 81.9111C99.7464 81.3705 101.102 76.6481 102.129 77.8324C101.749 80.2157 103.635 83.0133 103.205 85.264C102.981 86.4336 101.242 87.195 100.327 87.9986Z" fill="#F5C522"/>
<path d="M85.9053 58.5876L80.6364 59.9927C76.0232 60.3524 69.1129 60.1652 67.8828 54.5909C69.4386 55.182 70.6248 56.28 72.2141 56.9426C76.7186 58.8211 81.1167 58.7958 85.9053 58.5876Z" fill="#47200F"/>
<path d="M81.2179 48.411L76.2435 48.1291C74.9549 50.3735 73.0023 53.5708 70.4023 54.2229C72.3048 52.5296 73.5537 50.5019 74.7252 48.2301L72.9272 47.3298C75.594 47.008 79.0627 46.4505 81.2179 48.411Z" fill="#47200F"/>
<path d="M55.2575 41.8817L50.9304 42.4202C50.2496 43.0154 47.6058 47.7777 46.6055 46.9574L49.479 42.4096L48.4077 41.8733C49.9301 40.2641 53.2485 41.3642 55.2554 41.8817H55.2575Z" fill="#47200F"/>
</svg>
